<svg xmlns="http://www.w3.org/2000/svg" fill="none" viewBox="0 0 400 400" height="400" width="400"><g><path fill="{{ include.fill | default: '#000000' }}" d="M226.302 5.445c1.137 -1.225 3.527 0.333 4.466 1.617 3.86 5.272 5.587 11.93 5.488 18.416 0.206 3.236 -1.533 6.14 -1.888 9.312 -0.507 4.829 -2.863 9.147 -4.558 13.617 -1.269 3.117 -3.608 5.601 -5.247 8.508 -1.676 2.61 -2.669 5.654 -4.828 7.948 -0.92 0.855 -1.324 2.76 -0.242 3.59 1.785 0.182 3.619 0.083 5.301 -0.576 2.292 -0.935 4.594 0.487 6.894 0.62 5.601 -0.311 10.823 2.169 16.124 3.618 4.337 1.954 9.033 2.911 13.375 4.854 5.162 2.541 11.152 3.24 15.845 6.746 2.251 1.775 2.61 5.007 2.222 7.667 -1.185 6.313 -2.552 12.732 -5.665 18.411 -2.272 3.098 -3.904 6.904 -7.347 8.916 -1.317 0.796 -2.548 1.722 -3.747 2.676 -2.434 2.071 -6.024 2.602 -7.784 5.473 -1.892 3.306 -3.266 6.874 -4.908 10.309 -1.844 5.139 -6.82 7.972 -10.43 11.728 -5.005 4.15 -10.874 7.126 -16.784 9.762 -7.494 2.699 -15.706 2.896 -23.471 1.474 -3.638 -1.132 -7.238 -2.617 -10.218 -5.051 -5.577 -3.314 -10.874 -7.076 -16.066 -10.951 -7.578 -3.083 -14.649 -7.42 -22.433 -10.06 -4.205 -1.225 -8.817 -1.947 -12.235 -4.909 -2.423 -1.81 -5.624 -2.936 -6.992 -5.851 -1.151 -2.632 -1.623 -5.514 -2.148 -8.32 -0.345 -4.996 4.715 -8.344 5.379 -12.997 -1.426 -2.636 -4.386 -4.244 -6.043 -6.796 -2.115 -3.34 -4.396 -6.606 -6.122 -10.16 -0.792 -4.568 -1.863 -9.157 -1.584 -13.828 -0.147 -4.8 2.434 -9.03 3.413 -13.608 2.042 -4.77 5.404 -8.89 9.565 -11.989 3.93 -4.066 9.54 -5.624 14.811 -7.111 9.924 -0.276 19.178 5.198 25.813 12.27 2.832 2.64 4.191 6.481 7.106 9.044 2.312 -1.79 2.951 -4.869 4.431 -7.274 1.519 -2.346 1.25 -5.47 3.334 -7.5 2.892 -3.029 3.541 -7.347 6.108 -10.602 3.226 -5.888 5.836 -12.182 7.336 -18.738 0.212 -1.18 1.25 -2.184 2.497 -1.774 1.756 8.098 -0.477 16.376 -2.05 24.332 -0.304 6.574 -3.85 12.726 -3.182 19.434 1.078 1.382 2.548 -0.678 3.571 -1.287 6.196 -5.94 12.402 -11.92 17.876 -18.54 2.419 -4.425 6.805 -7.651 7.897 -12.801 0.384 -3.787 0.172 -7.677 -1.264 -11.23 0.205 -2.96 -2.036 -5.445 -1.613 -8.39M149.08 47.328c-4.854 1.5 -10.332 2.79 -13.573 7.051 -2.537 3.08 -5.715 5.98 -6.639 10.012 -1.13 3.766 -1.814 7.824 -0.983 11.728 -0.103 5.165 3.894 8.99 6.413 13.121 1.936 3.373 4.923 6.948 9.201 6.782 9.546 -1.686 18.756 -6.034 25.59 -12.978 4.037 -3.318 6.211 -8.384 7.515 -13.301 -0.369 -1.8 -0.84 -3.63 -1.907 -5.154 -2.192 -3.37 -3.406 -7.486 -6.643 -10.086 -2.346 -1.76 -4.22 -4.195 -7.021 -5.287 -3.678 -1.646 -7.942 -3.171 -11.949 -1.888m82.114 29.993c-5.202 0.206 -10.1 2.497 -15.347 1.976 -3.707 -0.34 -6.294 3.109 -6.683 6.475 -1.687 5.415 -1.21 11.292 -3.699 16.475 -2.06 4.422 -3.27 9.339 -6.441 13.159 -2.607 2.819 -5.188 6.171 -9.313 6.585 -3.451 -0.089 -6.86 1.243 -10.288 0.271 -5.341 1.352 -11.329 1.466 -16.218 -1.401 -3.497 -1.133 -6.383 -3.413 -9.57 -5.144 -3.442 -1.47 -5.444 -5.02 -8.953 -6.379 -2.332 -0.279 -5.642 -0.426 -6.541 2.327 -0.781 2.842 -1.436 6.276 0.231 8.925 4.543 5.198 11.084 8.3 17.752 9.747 4.961 1.254 8.381 5.572 13.258 6.948 2.001 0.59 3.087 2.607 5.036 3.289 2.789 1.101 4.682 3.567 7.112 5.232 4.243 3.506 9.323 5.73 13.971 8.612 2.974 1.913 6.644 1.928 9.962 2.862 6.988 2.183 14.734 -0.26 20.142 -4.942 4.401 -2.482 9.265 -4.528 12.51 -8.596 1.342 -1.962 2.409 -4.107 3.89 -5.97 4.268 -5.532 7.332 -11.845 10.375 -18.096 2.193 -3.718 6.236 -5.709 9.634 -8.139 3.058 -3.02 5.829 -6.624 6.9 -10.863 0.756 -3.348 -0.521 -6.628 -1.485 -9.791 -2.808 -2.67 -6.603 -4.004 -10.052 -5.66 -3.982 -2.017 -8.597 -2.204 -12.579 -4.2 -4.131 -2.28 -8.828 -3.977 -13.602 -3.702m-55.087 11.222c-4.909 2.797 -8.069 7.82 -12.953 10.712 -4.175 2.797 -9.161 3.791 -13.99 4.824 -0.704 3.289 3.516 4.073 5.551 5.572 3.491 3.102 8.109 4.279 12.329 6.013 2.371 -0.079 4.913 0.467 7.145 -0.546 1.863 -1.205 2.802 -3.392 4.667 -4.618 3 -2.124 2.153 -6.152 2.321 -9.294 0.408 -3.497 -1.548 -6.57 -2.167 -9.91 -0.378 -1.371 -0.998 -4.22 -2.901 -2.753m83.599 51.668c1.794 -1.214 4.627 0.078 4.543 2.346 0.015 4.78 -0.938 10.1 2.208 14.192 5.375 6.595 5.192 15.717 4.14 23.687 0.113 2.956 -0.521 5.867 -0.074 8.803 -1.121 6.954 -1.752 14.015 -3.787 20.791 -0.802 2.867 -0.206 5.891 -1.004 8.758 -0.227 2.897 -1.592 5.572 -1.558 8.492 -0.733 3.505 -0.074 7.131 -0.836 10.632 -0.338 3.919 0.443 7.926 -0.506 11.797 -0.374 2.922 0.245 5.927 -0.546 8.799 -1.235 4.131 -1.855 8.413 -3.109 12.534 -1.579 3.674 -5.253 5.789 -8.576 7.671 -1.686 0.974 -2.119 3.222 -1.499 4.957 1.327 2.228 2.882 4.337 4.751 6.141 4.864 4.721 6.878 11.787 6.462 18.426 -0.098 3.388 0.295 7.047 -1.474 10.105 -1.174 1.972 -3.369 2.778 -5.385 3.589 -0.319 4.579 1.623 8.941 3.486 13.018 1.727 3.526 2.735 7.425 5.05 10.646 2.867 4.037 4.839 8.641 6.559 13.258 0.025 4.425 -5.774 6.231 -5.507 10.877 -4.066 2.37 -4.883 7.318 -7.057 11.157 -1.565 2.042 -2.857 4.327 -3.531 6.826 -0.393 1.889 0.527 4.239 -1.239 5.64 -3.025 0.542 -6.013 1.697 -9.103 1.646 -3.476 -1.323 -6.618 -3.427 -10.17 -4.589 -2.852 -0.939 -5.459 -2.459 -8.088 -3.875 -0.099 -1.936 1.588 -3.241 2.596 -4.7 1.548 -1.746 2.306 -3.974 3.281 -6.049 0.972 -2.086 3.574 -2.699 4.513 -4.814 1.368 -2.804 3.772 -4.942 4.967 -7.843 1.427 -3.26 3.924 -6.387 3.413 -10.155 0.124 -1.441 -0.216 -2.787 -1.426 -3.669 -2.287 -5.572 -6.767 -9.786 -9.777 -14.921 -4.971 -6.028 -8.798 -12.86 -13.169 -19.296 -4.303 -7.863 -8.187 -15.996 -10.936 -24.538 0.055 -2.405 -0.679 -4.656 -1.397 -6.914 -0.741 -6.782 -2.808 -13.352 -3.28 -20.172 -0.143 -3.348 -1.922 -6.324 -2.292 -9.634 -0.443 -4.022 -3.468 -7.067 -4.297 -10.961 -0.674 -3.029 -2.67 -5.43 -4.381 -7.912 -1.042 -2.607 -3.109 -4.598 -4.096 -7.234 -2.193 -3.491 -5.812 -5.91 -7.351 -9.855 -3.014 -3.31 -4.632 -7.479 -6.885 -11.276 -1.819 -3.762 -1.899 -8.139 -3.959 -11.802 -0.723 -1.071 -0.532 -2.38 -0.723 -3.585 -3.633 -7.641 -5.473 -16.19 -5.213 -24.641 0.521 -2.115 1.922 -5.617 4.716 -4.524 4.2 2.543 8.464 4.992 12.687 7.5 2.483 0.777 3.64 3.436 6.083 4.297 4.425 3.128 8.847 6.265 13.451 9.122 2.877 1.445 4.803 4.102 7.632 5.635 2.332 2.827 6.093 3.329 9.078 5.192 5.005 3.178 12.703 3.006 16.399 -2.1 3.781 -2.729 7.145 -6.123 9.418 -10.233 1.489 -2.346 2.247 -5.114 4.072 -7.248 2.794 -3.231 4.199 -7.431 7.156 -10.544 1.874 -2.478 4.382 -5.011 4.195 -8.366 0.264 -3.776 -2.527 -7.076 -1.907 -10.873 0.527 -1.745 1.617 -3.388 3.284 -4.219m0.103 30.547c-0.831 0.989 -1.583 2.045 -2.522 2.93 -4.073 3.698 -6.776 8.586 -10.676 12.442 -2.863 2.886 -5.133 6.368 -8.488 8.739 -3.482 2.695 -8.201 3.796 -10.833 7.549 1.43 5.232 -0.796 10.537 0.107 15.855 1.844 6.35 1.239 13.14 3.34 19.449a55.767 55.767 0 0 0 2.306 14.409c0.458 3.072 0.777 6.177 1.565 9.195 1.111 6.313 3.889 12.211 4.627 18.584 1.258 3.402 1.749 7.017 3.333 10.312 1.609 3.615 1.023 7.853 3.054 11.296 1.686 3.333 2.228 7.105 3.728 10.503 0.777 1.063 1.726 2.886 3.314 2.313 1.489 -2.09 1.357 -4.682 0.832 -7.072 -0.04 -3.699 0.059 -7.717 -2.302 -10.823 -2.749 -3.919 -4.539 -8.424 -7.475 -12.201 -1.185 -1.942 -0.748 -4.318 -0.28 -6.412 0.173 -4.589 5.61 -6.049 6.999 -10.107 2.68 -6.864 4.081 -14.181 5.316 -21.431 0.235 -7.066 0.968 -14.098 1.058 -21.17 0.979 -7.695 2.149 -15.397 2.758 -23.122 0.949 -7.219 2.222 -14.394 2.214 -21.682 0.466 -3.043 0.92 -6.29 -0.345 -9.216 0.019 -1.019 -1.191 -1.132 -1.627 -0.34m-86.633 4.454c-0.521 0.124 -1.1 1.122 -0.714 1.643 1.752 3.93 2.808 8.143 3.403 12.392 1.686 4.858 3.058 9.924 5.902 14.28 1.657 2.533 2.631 5.425 3.614 8.267 0.92 2.76 3.777 4.219 4.85 6.914 0.949 2.189 2.571 3.909 4.238 5.543 1.815 4.755 5.478 8.403 7.843 12.85 1.529 3.703 3.93 7.076 4.774 11.045 0.3 3.296 2.497 6.112 2.602 9.441 0.546 7.687 3.334 14.973 4.17 22.621 0.462 3.894 1.726 7.607 2.946 11.316 1.51 6.885 2.857 14.024 6.992 19.911 1.594 4.56 4.466 8.498 7.858 11.89 4.641 6.39 8.911 13.048 13.45 19.498 3.663 3.28 5.715 8.036 5.341 12.957 -0.51 2.654 -2.661 4.498 -3.978 6.716 -0.792 3.836 -3.339 6.904 -4.774 10.489 -1.401 3.094 -5.425 5.365 -4.476 9.21 1.811 2.996 5.463 3.56 8.65 2.941 2.119 -2.208 2.222 -5.507 3.952 -7.948 3.26 -4.707 5.896 -9.829 7.967 -15.16 0.836 -1.775 0.712 -3.86 0.447 -5.749 -3.476 -6.605 -6.731 -13.322 -9.121 -20.394 -0.708 -4.385 -3.483 -8.05 -4.333 -12.392 -1.46 -4.047 -3.021 -8.094 -3.871 -12.322 -0.866 -4.043 -3.388 -7.469 -4.348 -11.478 -1.598 -4.378 -2.247 -9.03 -4.264 -13.258 -1.991 -6.633 -5.246 -13.114 -4.99 -20.186 -2.617 -13.927 -7.101 -27.464 -8.527 -41.612 -1.922 -5.572 -2.076 -11.453 -3.084 -17.212 -0.535 -2.592 0.294 -5.385 -0.846 -7.849 -3.369 -2.881 -7.78 -3.993 -11.531 -6.255 -4.18 -2.001 -7.813 -4.912 -11.545 -7.617 -2.288 -1.574 -5.203 -1.767 -7.494 -3.329 -2.577 -1.676 -5.045 -3.535 -7.696 -5.111 -1.331 -0.594 -1.558 -2.808 -3.407 -2.056m66.348 3.905c0.693 -0.07 1.39 -0.015 2.085 0.069 0.191 2.489 -1.766 4.78 -3.61 6.225 -3.142 -0.186 -5.625 1.968 -8.469 2.907 -4.077 0.653 -8.168 1.515 -12.314 1.059 -3.611 -1.239 -7.46 -1.953 -10.647 -4.169 -1.734 -1.147 -4.849 -2.031 -4.391 -4.648 2.57 -0.158 4.725 1.495 7.006 2.409 3.113 0.953 6.28 1.81 9.565 1.663 4.953 1.466 9.634 -1.165 14.369 -2.163 2.438 -0.51 4.179 -2.468 6.401 -3.348l0.005 -0.004Z" stroke-width="1"></path></g></svg>