<svg xmlns="http://www.w3.org/2000/svg" fill="none" viewBox="0 0 400 400" height="400" width="400"><g><path fill="#000000" d="M160.706 5.02c2.126 -0.084 4.25 0.12 6.38 0.1 3.437 1.107 5.83 3.933 8.944 5.601 0.91 0.333 0.577 1.431 0.819 2.16 1.166 1.003 2.775 1.376 3.794 2.567 3.456 3.71 7.882 6.78 9.733 11.69 2.145 3.769 3.75 7.797 6.033 11.485 0.129 3.432 1.087 7.816 4.871 8.9 6.634 2.368 12.548 6.296 19.148 8.719 2.622 2.071 5.999 2.656 8.689 4.623 6.114 1.838 11.382 5.63 17.515 7.446 5.229 4.443 12.225 5.914 17.718 9.96 2.156 1.555 5.06 1.561 7.061 3.374 1.346 0.943 2.497 2.677 4.35 2.419 5.124 -0.27 10.261 0.104 15.384 -0.104 2.324 0.078 4.777 -0.27 6.937 0.814 7.646 4.346 15.305 8.685 23.16 12.643 5.815 4.823 13.605 6.421 19.257 11.485 3.477 1.584 6.133 5.563 10.409 4.399 2.423 -2.815 2.359 -7.29 5.7 -9.391 1.961 -0.611 3.049 1.361 4.52 2.234 4.882 2.93 9.628 6.114 14.748 8.641 2.964 1.484 5.974 3.229 7.846 6.055 0.472 3.351 -1.018 6.554 -1.529 9.817 -2.344 4.286 -3.576 9.052 -3.947 13.904 -1.088 3.695 -5.556 3.511 -8.567 2.646 -6.529 -2.05 -13.268 -3.5 -19.609 -6.099 -6.957 -1.454 -13.387 -4.678 -20.156 -6.762 -2.115 -0.418 -3.894 -1.694 -5.76 -2.678 -5.153 -2.586 -10.934 -3.606 -16.068 -6.228 -2.97 -2.001 -6.581 -2.601 -9.951 -3.606 -7.021 0.049 -13.886 -1.546 -20.9 -1.673 -8.041 -2.925 -12.618 -11.43 -20.907 -13.93 -2.141 -0.447 -3.928 -1.723 -5.885 -2.611 -5.015 -1.558 -10.131 -3.04 -14.722 -5.667 -2.667 -1.717 -5.979 -1.679 -8.79 -3.084 -4.21 -1.546 -8.581 -2.627 -12.812 -4.136 -2.19 -0.84 -3.907 1.286 -5.701 2.179 -4.96 3.328 -10.542 6.336 -13.705 11.615 -2.877 2.985 -4.286 6.936 -6.525 10.349 -1.077 1.794 -0.992 3.943 -1.107 5.959 -0.591 2.534 -1.763 4.902 -2.378 7.429 -0.337 3.957 -0.382 7.956 -1.546 11.78 -0.159 5.368 1.092 10.676 2.086 15.925 1.713 4.106 3.104 8.373 4.052 12.723 0.033 3.278 2.234 5.9 2.904 9.023 1.058 2.588 2.463 5.045 3.267 7.742 0.661 4.405 1.295 8.818 2.081 13.198 0.026 4.236 -0.436 8.541 0.463 12.724 -0.204 3.828 -0.726 7.648 -1.099 11.471 -0.421 1.575 -0.169 3.406 -1.316 4.712 -4.325 3.765 -10.18 4.619 -15.096 7.286 -2.766 1.206 -5.914 1.058 -8.675 2.26 -3.55 1.991 -7.638 2.671 -11.197 4.687 -5.016 1.346 -10.027 2.856 -14.774 5.05 -4.195 0.939 -8.223 2.474 -12.424 3.432 -2.042 0.979 -4.425 0.155 -6.421 1.206 -0.596 2.001 1.36 3.093 2.492 4.369 1.643 1.853 3.093 3.918 5.071 5.453 1.643 -1.421 1.446 0.078 1.465 1.431 3.755 3.695 7.909 7.065 11.098 11.303 2.874 1.295 4.564 -2.022 6.491 -3.521 2.925 -2.021 5.175 -4.798 7.572 -7.373 1.982 -1.221 5.156 -0.134 5.542 2.329 0.337 2.886 -3.163 4.211 -3.356 6.966 1.217 5.841 4.369 11.06 5.611 16.89 3.182 3.396 8.501 2.149 12.603 3.366 2.678 0.973 5.686 -0.282 8.253 1.128 6.673 3.973 11.496 10.419 18.647 13.682 4.424 2.771 9.758 3.214 14.489 5.259 2.319 0.621 4.617 2.038 7.096 1.535 4.424 -1.927 9.158 -4.047 14.108 -3.317 2.577 1.907 3.023 5.397 5.407 7.508 2.231 4.132 4.931 7.975 7.414 11.963 2.463 3.864 6.635 6.724 7.489 11.477 2.896 6.928 5.283 14.057 8.234 20.97 0.963 2.209 1.261 4.99 0.288 7.201 -3.093 3.939 -8.789 2.949 -13.164 3.85 -4.395 0.108 -7.39 -3.788 -9.188 -7.335 -1.613 -3.262 -3.814 -6.152 -5.923 -9.088 -0.18 -1.431 0.214 -2.874 -0.044 -4.295 -0.914 -0.108 -1.838 -0.08 -2.746 -0.178 -1.634 -1.231 -2.124 -3.65 -4.246 -4.31 -3.317 -1.931 -6.943 -3.198 -10.275 -5.064 -2.692 -0.621 -5.319 -1.465 -7.812 -2.663 -6.57 -2.204 -13.243 -4.091 -19.679 -6.669 -5.696 -1.405 -11.378 -2.866 -17.097 -4.18 -3.029 -0.855 -5.834 -2.413 -8.948 -2.975 -3.4 -0.68 -6.932 -0.913 -10.161 -2.283 -0.85 -0.273 -1.942 -1.117 -2.444 0.089 -0.049 3.252 2.012 5.979 2.751 9.052 0.641 2.786 2.642 5.076 2.985 7.946 0.7 5.064 3.53 9.639 7.439 12.876 2.175 1.476 2.393 4.764 0.67 6.659 -2.837 3.163 -5.785 6.436 -9.798 8.1 -8.357 5.626 -13.875 14.256 -21.218 20.991 -1.34 1.321 -2.409 3.119 -4.317 3.706 -6.976 -0.004 -13.968 1.242 -20.955 0.343 -2.497 -0.869 -5.526 -1.728 -6.599 -4.439 -0.208 -3.069 -0.318 -6.181 -0.078 -9.251 2.319 -2.156 4.046 -4.872 6.624 -6.758 2.353 -1.828 3.735 -4.535 5.925 -6.511 1.694 -1.539 2.245 -3.928 3.969 -5.441 1.827 -2.031 3.943 -3.799 5.677 -5.911 0.044 -2.815 0.114 -5.641 0.104 -8.462 -1.395 -6.54 -2.885 -13.22 -6.347 -19.046 -1.395 -3.273 -3.651 -6.033 -5.527 -9.022 -2.919 -4.066 -4.221 -9.052 -7.35 -12.995 -2.196 -2.563 -2.948 -5.914 -4.648 -8.755 -5.165 -6.521 -7.539 -14.685 -12.218 -21.507 -2.463 -4.261 -4.83 -8.615 -7.964 -12.439 -3.356 -4.043 -5.711 -8.77 -8.675 -13.084 -2.096 -4.732 -5.645 -9.377 -4.797 -14.837 0.58 -2.19 0.204 -4.535 0.994 -6.67 0.914 -1.598 2.949 -1.931 4.157 -3.243 2.472 -2.593 5.915 -3.918 8.423 -6.481 2.915 -3.074 7.553 -4.369 9.624 -8.238 1.266 -3.739 1.446 -7.756 1.599 -11.67 0.413 -4.301 1.664 -8.526 1.471 -12.876 0.004 -1.747 1.513 -3.137 1.395 -4.927 -0.267 -4.22 0.625 -8.412 1.916 -12.414 0.358 -3.296 -0.11 -6.639 0.278 -9.932 1.072 -3.322 -1.276 -6.61 -0.274 -9.942 0.744 -8.611 -1.102 -17.231 -0.044 -25.837 0.447 -4.628 -0.566 -9.406 0.992 -13.894 -0.115 -3.129 0.799 -6.159 0.71 -9.266 -0.721 0.015 -1.499 0 -2.065 0.517 -3.018 2.238 -6.107 4.469 -8.437 7.458 -6.902 5.7 -12.2 12.98 -17.778 19.908 -1.719 2.811 -2.919 5.914 -4.805 8.63 -1.972 3.178 -1.039 8.367 -4.838 10.235 -4.35 -0.125 -8.5 -1.753 -12.48 -3.403 -2.91 -0.258 -5.844 0.437 -8.426 1.768 -10.032 1.241 -20.26 0.725 -30.162 -1.327 -3.267 -0.659 -3.318 -4.587 -2.712 -7.15 1.217 -2.319 3.174 -4.732 2.404 -7.524 -0.685 -2.134 1.232 -3.843 1.003 -5.944 -0.123 -3.311 -0.134 -6.629 -0.233 -9.936 -0.617 -2.711 -1.361 -5.671 -0.632 -8.378 5.081 -4.235 12.058 -2.478 18.036 -2.219 2.264 0.78 4.717 0.133 6.977 0.943 3.158 1.191 6.932 -0.606 9.753 1.698 2.26 1.45 0.789 4.384 1.325 6.551 1.103 -0.995 2.086 -2.131 3.411 -2.841 3.174 -1.876 5.041 -5.338 8.357 -7.011 2.766 -2.518 5.7 -4.837 8.522 -7.294 3.04 -2.224 6.347 -4.232 8.855 -7.072 0.585 -6.228 3.203 -12.048 4.79 -18.066 1.107 -2.766 2.897 -5.283 4.891 -7.48 4.346 -2.94 7.231 -8.644 12.976 -9.013 3.839 -0.178 7.624 -1.709 11.467 -0.78 2.766 -0.61 5.611 -0.204 8.412 -0.502 2.811 -0.344 5.596 -0.993 8.441 -0.84 0.958 0.149 2.082 -0.282 2.324 -1.302 1.043 -3.928 2.06 -7.87 2.811 -11.863 -0.034 -2.834 0.869 -5.552 2.2 -8.023 0.969 -1.228 -0.64 -2.553 -0.011 -3.859 1.058 -2.611 2.901 -4.793 4.505 -7.08 2.633 -3.788 7.236 -5.81 9.336 -10.02 1.048 -1.794 2.091 -4.058 4.3 -4.58m12.429 15.354c-0.651 1.196 -1.01 4.098 -3.199 3.585 -3.888 -0.774 -7.494 -2.9 -11.427 -3.466 -2.408 1.302 -2.433 4.465 -4.165 6.366 -2.601 2.87 -2.96 6.898 -4.728 10.214 -2.02 4.176 -3.625 9.067 -2.086 13.667 3.074 0.114 5.978 -1.232 9.063 -1.138 3.318 -1.51 6.932 -0.456 10.413 -0.948 2.919 -0.591 5.978 -0.585 8.918 -0.178 2.021 0.888 4.42 1.236 6.322 -0.133 1.868 -1.342 4.428 -0.547 6.196 -1.832 0.829 -3.133 -1.316 -5.993 -2.06 -8.933 -1.48 -5.09 -4.42 -9.559 -7.693 -13.661 -1.58 -1.476 -3.153 -3.695 -5.557 -3.54m10.924 34.334c-2.16 0.595 -4.331 1.45 -6.614 0.814 -2.874 -0.903 -5.626 0.54 -8.433 0.969 -2.315 0.496 -4.687 0.04 -7.027 0.237 -5.919 0.78 -11.823 1.813 -17.833 1.49 -6.769 1.143 -13.716 1.713 -20.326 3.337 -2.607 -0.859 -5.253 0.203 -7.835 0.625 -1.505 0.185 -1.831 1.953 -1.812 3.197 0.125 3.152 -0.03 6.307 0.015 9.455 0.729 2.93 1.464 5.904 1.39 8.948 0.392 7.102 2.338 14.252 0.914 21.348 -2.23 7.568 -0.555 15.632 -1.931 23.314 0.074 3.485 -0.03 6.987 0.485 10.439 -0.958 6.61 0.049 13.268 0.814 19.844 0.973 8.289 0.125 16.671 -1.658 24.799 -0.029 6.287 -2.249 12.369 -2.05 18.651 -0.129 1.494 1.887 1.176 2.816 0.943 2.075 -1.779 4.345 -3.311 6.451 -5.06 4.256 -3.063 9.44 -4.316 13.999 -6.809 4.211 -1.857 8.796 -2.837 12.817 -5.116 2.035 -1.083 4.624 -1.032 6.773 -0.54 3.242 1.672 2.705 6.415 -0.233 8.055 -5.015 1.525 -10.194 2.657 -14.932 4.961 -1.45 0.407 -1.296 2.641 -0.178 3.352 2.368 1.891 3.455 4.797 5.333 7.095 2.209 2.707 3.496 6.003 4.683 9.247 1.31 3.163 0.492 6.639 0.721 9.957 0.218 2.408 -0.869 5.313 1.121 7.225 4.802 -0.229 8.389 -3.884 12.932 -4.946 7.424 -2.315 14.663 -5.315 21.343 -9.317 2.389 -2.234 1.713 -5.889 1.902 -8.844 0.277 -6.019 -0.795 -11.948 -1.431 -17.896 -0.357 -4.232 -2.413 -8.06 -3.115 -12.222 -0.566 -3.943 -3.207 -7.169 -3.709 -11.144 -1.262 -6.544 -5.179 -12.306 -5.752 -19.005 0.045 -2.582 -0.044 -5.17 -0.888 -7.634 -0.606 -7.593 0.526 -15.31 3.174 -22.45 0.337 -1.371 0.214 -2.844 0.894 -4.131 2.209 -4.221 2.224 -9.525 5.616 -13.12 1.484 -3.651 4.284 -6.521 5.993 -10.047 0.411 -5.304 0.063 -10.642 0.044 -15.96 -0.894 -4.425 -0.358 -8.955 0.026 -13.394 -0.715 -3.5 -0.244 -7.12 -1.054 -10.606 -1.147 -0.14 -2.304 -0.144 -3.447 -0.07m13.89 1.431 -0.314 0.02c-1.543 6.673 0.939 13.478 -0.551 20.162 0.74 3.332 1.513 6.728 1.583 10.198 0.829 0.075 1.749 0.145 2.46 -0.396 3.218 -2.15 7.116 -2.8 10.576 -4.443 2.522 -0.602 4.657 1.384 7.021 1.931 6.266 1.524 11.958 4.609 18.15 6.356 8.334 4.383 17.604 6.573 26.167 10.453 3.039 0.788 4.905 3.387 6.828 5.647 2.001 1.698 4.142 3.307 6.461 4.543 5.154 0.814 10.28 1.972 15.484 2.374 2.552 1.018 5.482 -0.407 7.95 0.914 4.375 2.15 9.51 2.459 13.597 5.249 7.065 3.462 14.744 5.329 22.008 8.297 1.609 0.592 3.467 0.492 4.872 1.584 3.044 2.204 7.076 1.713 10.224 3.655 4.916 2.179 9.962 4.097 15.192 5.382 1.346 -0.184 3.258 -0.581 3.451 -2.22 0.61 -3.044 1.778 -5.939 3.243 -8.659 1.062 -1.828 0.744 -4.573 -1.102 -5.786 -2.171 -1.564 -4.32 -3.247 -6.907 -4.072 -2.035 -0.6 -4.002 -2.149 -6.222 -1.465 -1.742 2.519 -2.389 6.703 -5.848 7.369 -6.803 -1.043 -12.207 -5.785 -18.047 -9.077 -3.184 -2.006 -6.818 -3.178 -9.854 -5.427 -3.561 -2.05 -6.588 -4.906 -10.368 -6.591 -2.345 -0.977 -4.31 -2.656 -6.629 -3.67 -2.915 -0.799 -4.986 -3.284 -7.95 -3.998 -2.766 -1.312 -5.848 -0.75 -8.74 -1.486 -5.692 0.24 -11.293 -0.676 -16.938 -1.121 -4.206 -1.262 -7.721 -4.017 -11.71 -5.77 -5.419 -2.3 -10.736 -4.902 -15.563 -8.29 -6.951 -3.059 -13.944 -6.024 -20.999 -8.825 -3.367 -1.505 -6.326 -3.78 -9.799 -5.06 -4.642 -3.381 -10.101 -5.323 -15.339 -7.568 -0.766 -0.273 -1.588 -0.229 -2.383 -0.214m-95.26 11.462c-2.631 2.572 -4.117 6.008 -5.641 9.292 -1.757 3.506 -2.885 7.394 -2.83 11.337 -0.034 1.694 -0.015 3.636 -1.168 5.005 -2.358 2.472 -4.762 4.96 -7.787 6.625 -1.44 0.595 -0.585 2.423 -1.554 3.396 -4.683 0.328 -7.697 4.768 -11.803 6.684 -1.306 1.579 -3 2.766 -4.395 4.25 -2.17 0.007 -3.491 1.862 -5.105 3.015 -3.302 2.304 -5.929 5.404 -8.785 8.164 0.23 3.606 -2.429 8.984 1.603 11.193 3.61 -0.178 7.136 0.104 10.583 1.087 3.252 -2.363 4.316 -6.436 4.702 -10.235 3.025 -0.174 3.828 -3.659 3.356 -6.137 0.65 0.174 1.29 0.422 1.956 0.547 2.786 -4.439 6.03 -8.571 9.714 -12.291 1.693 -1.673 2.645 -3.928 3.213 -6.207 0.645 0.148 1.232 0.566 1.908 0.562a74.028 74.028 0 0 0 4.791 -4.776c3.377 -3.85 8.387 -5.86 11.679 -9.784 0.254 -3.04 -0.625 -6.01 -0.522 -9.048 -1.31 -4.405 -1.002 -9.221 -3.069 -13.423a48.52 48.52 0 0 1 -0.85 0.744m-67.13 45.243c-4.623 1.151 -1.623 6.943 -3.769 9.991 -0.074 4.276 -1.212 8.397 -1.702 12.639 -0.362 1.34 -0.947 3.903 1.007 4.136 3.952 -0.193 7.916 0.214 11.863 -0.019 2.36 -5.548 1.55 -11.814 2.686 -17.648 0.189 -2.811 1.166 -5.97 -0.093 -8.615 -3.015 -1.684 -6.714 -0.785 -9.991 -0.482m94.372 90.355c-5.667 3.674 -11.492 7.187 -16.716 11.501 -2.563 1.901 -5.486 3.355 -7.553 5.865 -3.928 4.465 -9.584 6.877 -13.66 11.153 -1.366 3.129 -3.74 6.669 -2.246 10.165 1.673 7.261 7.757 12.505 9.714 19.66 1.053 2.29 3.699 3.381 4.598 5.8 1.117 3.03 3.462 5.368 4.519 8.427 1.436 3.898 4.42 6.887 6.362 10.512 3.589 3.977 4.916 9.4 8.412 13.453 2.542 3.138 4.649 6.58 5.959 10.42 3.436 5.507 6.137 11.422 9.052 17.215 -0.169 2.201 1.306 3.829 2.474 5.508 2.135 6.347 3.173 13.061 3.123 19.734 1.028 2.141 3.58 3.074 4.92 5.06 2.105 0.407 3.392 -1.619 5.011 -2.542 2.245 -1.346 3.948 -3.436 5.309 -5.63 1.127 -5.1 -2.697 -9.236 -3.615 -14.023 -0.85 -4.668 -3.466 -8.774 -4.35 -13.423 -3.188 -9.207 -5.3 -18.742 -7.646 -28.182 -1.029 -4.395 -1.72 -9.008 -3.804 -13.055 -4.504 -6.476 -8.441 -13.582 -14.773 -18.517 -2.131 -3.403 -5.079 -6.137 -7.856 -9.003 -1.535 -1.565 -3.719 -3.282 -3.026 -5.766 2.224 -1.694 5.194 -1.679 7.638 -2.941 3.759 -2.06 8.23 -1.575 12.143 -3.233 2.572 -1.191 5.8 -0.983 7.971 -2.97 0.03 -2.87 0.218 -5.77 -0.341 -8.596 0.81 -3.865 0.636 -8.005 -0.611 -11.759 -1.009 -4.062 -4.613 -6.684 -6.54 -10.275 -1.202 -1.675 -1.872 -4.832 -4.464 -4.558m24.372 75.492c-1.545 0.71 -2.984 1.738 -4.008 3.118 0.025 1.554 2.209 2.538 1.49 4.196 -1.172 2.671 0.803 5.304 1.028 7.985 1.024 7.102 2.622 14.242 5.705 20.748 3.402 2.472 7.816 2.686 11.651 4.21 4.449 1.355 8.874 2.826 13.412 3.862 2.746 0.111 5.512 0.507 8.09 1.501 4.38 1.62 8.999 2.438 13.387 4.018 9.192 3.514 19.183 5.378 27.55 10.701 5.423 0.273 9.496 4.494 13.076 8.168 1.425 0.61 1.058 -1.033 0.973 -1.927 -2.641 -4.99 -6.466 -9.196 -9.296 -14.059 -2.999 -3.307 -5.596 -7.609 -10.339 -8.537 -5.214 -2.012 -10.434 -4.043 -15.761 -5.745 -10.061 -2.538 -16.09 -12.777 -26.348 -14.814 -3.1 0.034 -5.934 -1.365 -8.984 -1.683 -3.392 -0.437 -6.456 -2.394 -9.922 -2.349 -1.45 0.199 -2.423 -1.158 -2.948 -2.324 -2.309 -5.596 -4.575 -11.227 -7.181 -16.694 -0.167 -0.735 -1.068 -0.392 -1.573 -0.377m85.369 41.573c-0.155 2.305 1.961 3.833 2.926 5.737 2.23 4.098 3.824 8.537 6.385 12.454 2.101 3.239 3.417 6.909 4.22 10.663 0.537 1.898 -1.628 2.852 -2.06 4.454 -0.322 1.44 0.736 2.548 1.535 3.6 2.105 2.552 2.775 6.332 6.014 7.861 1.628 1.416 4.901 0.252 4.445 -2.12 -0.636 -3.818 -1.891 -7.609 -3.803 -10.979 -1.539 -3.988 -2.76 -8.079 -4.369 -12.048 -4.647 -5.781 -7.89 -12.524 -12.147 -18.562 -0.64 -0.839 -2.677 -2.279 -3.144 -1.058m-76.961 38.392c-3.5 1.687 -6.444 4.469 -9.802 6.481 -3.055 3.169 -6.913 5.363 -10.165 8.297 -1.162 0.273 -2.404 0.193 -3.576 0 -1.938 -1.52 -1.347 -4.424 -0.015 -6.152 0.943 -1.158 1.524 -3.447 -0.496 -3.788 -1.132 1.301 -1.968 2.825 -3.144 4.091 -2.741 2.985 -3.914 7.186 -7.21 9.688 -2.126 1.952 -4.579 5.533 -2.23 8.2 2.046 0.441 3.973 -0.537 5.611 -1.501 3.53 1.848 6.063 -1.853 8.234 -4.032 1.246 -1.491 3.432 -1.717 4.613 -3.292 5.071 -6.436 12.41 -10.428 18.269 -16.031 0.958 -0.681 1.902 -2.76 -0.089 -1.961Zm-7.494 -326.879c4.42 -0.914 9.37 -0.367 13.432 1.717 2.552 1.768 5.419 3.034 7.772 5.086 2.874 1.664 6.003 3.074 8.263 5.607 0.84 2.663 -2.145 2.33 -3.892 1.986 -3.403 -1.325 -6.629 -3.03 -9.996 -4.435 -2.437 -0.954 -4.294 -3.054 -6.927 -3.546 -3.566 -1.033 -7.617 0.536 -10.986 -0.999 -0.422 -2.016 0.367 -4.521 2.334 -5.416Zm-98.33 95.805c0.189 0.182 0.189 0.182 0 0Z" stroke-width="1"></path></g></svg>