<svg xmlns="http://www.w3.org/2000/svg" fill="none" viewBox="0 0 400 400" height="400" width="400"><g><path fill="{{ include.fill | default: '#000000' }}" d="M215.157 5.43c1.99 -0.712 4.255 -0.403 6.312 -0.048 6.06 -0.928 12.196 1.042 17.809 3.282 2.51 1.255 4.6 3.266 7.291 4.19 1.268 0.554 2.935 0.587 3.733 1.883 2.165 2.746 2.413 6.37 3.983 9.415 1.269 2.912 2.585 6.239 1.527 9.414 -1.168 3.96 0.959 7.937 0.443 11.938 -0.859 2.524 -3.148 4.228 -4.046 6.734 -0.276 2.165 0.248 4.38 -0.231 6.53 -0.677 2.313 0.038 4.74 -0.341 7.088 -1.863 2.7 -5.561 2.284 -8.297 3.406 -0.199 2.7 2.898 4.307 3.12 7.033 0.172 3.59 3.406 5.851 4.043 9.261 0.36 2.173 2.206 3.785 2.242 6.054 1.43 4.712 2.423 10.397 -0.578 14.657 -0.092 1.973 1.574 3.581 1.379 5.588 0.042 4.671 -2.842 8.749 -2.732 13.406 0.24 3.365 3.558 5.118 6.27 6.363 3.17 1.85 2.437 5.93 2.459 9.013 0.12 2.602 -1.887 4.551 -3.912 5.847 -1.819 1.006 -1.616 3.451 -3.156 4.692 -1.127 1.098 -2.713 1.533 -3.84 2.626 -0.882 1.708 -0.973 3.751 -2.035 5.386 -0.882 1.283 -2.482 1.767 -3.489 2.926 -1.056 2.247 -1.647 4.702 -2.773 6.916 -0.457 1.034 -2.414 1.296 -2.022 2.603 2.451 3.23 3.521 7.204 5.325 10.779 1.048 2.049 0.873 4.458 1.888 6.531 0.64 1.172 -0.166 2.575 -1.513 2.561 -5.085 0.567 -8.316 4.919 -11.698 8.25 -2.146 1.905 -3.249 4.702 -5.51 6.489 -3.595 3.077 -6.133 7.116 -9.326 10.567 -1.218 0.075 -3.028 0.508 -3.627 -0.9 -0.67 -2.599 1.753 -4.291 2.953 -6.249 2.843 -5.528 7.518 -9.834 10.711 -15.135 3.203 -2.27 7.226 -3.988 8.818 -7.9 0.614 -3.105 -1.32 -5.87 -2.705 -8.477 -0.956 -1.588 -1.753 -3.709 -3.785 -4.125 -5.015 -1.269 -9.844 -3.341 -15.03 -3.83 -4.675 -0.789 -9.313 -1.808 -13.83 -3.262 -4.424 -0.559 -8.538 -2.801 -13.059 -2.699 -1.657 0.073 -3.428 -1.731 -4.887 -0.291 -2.819 2.389 -5.108 5.394 -8.154 7.541 -2.165 1.513 -3.499 3.857 -5.349 5.689 -1.491 1.444 -1.68 3.688 -3.096 5.187 -1.929 1.929 -1.842 4.84 -2.991 7.181 -2.049 4.282 -2.053 9.15 -3.386 13.646 -1.338 3.162 -1.976 6.621 -2.039 10.037 2.141 3.798 3.977 7.766 5.744 11.749 1.698 3.152 -0.719 6.432 -1.038 9.631 -0.327 4.895 -3.132 9.432 -2.358 14.42 2.035 2.317 4.832 3.808 6.871 6.133 1.431 1.726 4.033 2.039 5.113 4.093 0.904 1.541 2.247 2.768 3.764 3.692 1.962 0.42 3.455 -1.463 4.052 -3.114 1.509 -3.692 4.001 -6.816 5.961 -10.244 0.974 -1.675 3.184 -1.661 4.772 -1.08 1.481 0.656 1.653 2.579 0.65 3.733 -2.64 3.747 -4.241 8.058 -6.446 12.049 -1.532 3.313 -3.733 6.276 -5.094 9.676 -1.653 2.756 -3.613 5.473 -3.623 8.842 -1.162 1.836 -3.562 2.557 -5.672 2.677 -3.179 0.124 -6.142 1.343 -9.123 2.324 -4.619 0.666 -9.253 -0.248 -13.594 -1.828 -4.805 -0.867 -9.313 -2.99 -14.204 -3.502 -2.925 -0.176 -5.723 -2.396 -8.672 -1.173 -3.4 2.307 -4.129 6.594 -6.359 9.793 -1.773 3.609 -2.52 7.693 -4.578 11.158 -1.214 0.568 -2.317 1.293 -3.29 2.23 -1.911 0.138 -3.857 0.144 -5.754 -0.1 -2.297 -1.086 -4.555 -2.534 -6.147 -4.537 -2.344 -6.397 -1.804 -13.567 0.144 -20.013 1.777 -3.586 2.313 -7.596 3.94 -11.233 1.19 -4.775 0.822 -9.838 2.1 -14.619 0.516 -2.193 0.896 -4.974 3.142 -6.087 3.28 -0.008 5.999 -2.427 9.308 -2.008 4.2 -0.286 6.216 4.214 7.549 7.484 1.365 1.976 0.54 5.15 3.014 6.345 3.974 0.144 6.216 -3.922 9.299 -5.75 5.08 -1.251 9.326 3.973 14.337 2.874 1.399 -5.352 1.842 -10.876 2.949 -16.286 0.845 -4.125 1.732 -8.25 2.23 -12.436 -1.794 -4.572 -3.733 -9.119 -6.341 -13.296 -0.148 -2.543 1.024 -4.96 0.918 -7.517 1.527 -5.112 3.489 -10.24 3.747 -15.63 0.739 -3.603 2.252 -7.009 2.801 -10.659 0.382 -1.892 0.544 -4.39 2.599 -5.256 2.893 -1.265 4.495 -4.19 7.245 -5.676 2.368 -1.217 2.737 -4.407 5.303 -5.386 3.424 -1.574 5.229 -5.953 9.289 -6.105 0.175 -1.075 -1.07 -1.127 -1.754 -1.546 -1.286 -0.956 -2.066 -2.756 -3.802 -2.987 -4.651 -0.951 -9.463 -0.096 -14.166 -0.591 -4.942 -0.914 -9.119 -3.884 -13.691 -5.772 -1.416 -0.831 -3.069 -2.155 -2.76 -3.997 -0.347 -3.258 3.266 -4.877 4.001 -7.84 3.059 -4.998 5.892 -10.165 8.648 -15.362 1.251 -2.248 3.056 -4.135 4.131 -6.489 1.306 -2.719 3.946 -4.592 4.827 -7.536 1.398 -4.379 3.433 -8.555 6.515 -12.003 1.556 -3.313 2.557 -6.885 4.125 -10.212 0.522 -4.066 2.832 -7.508 4.475 -11.186 2.898 -4.72 8.265 -6.898 12.612 -10.019 2.593 -2.145 6.318 -1.86 8.903 -4.029 1.743 -1.347 4.416 -1.13 5.778 0.657 2.371 3.082 6.166 4.55 8.541 7.633 2.589 3.125 6.876 2.173 10.388 3.107 0.908 0.268 2.658 0.134 2.551 -1.127 -2.746 -2.072 -6.465 -2.506 -8.8 -5.2 -3.041 -1.957 -6.008 -4.325 -7.655 -7.638 -1.038 -0.914 -2.488 -1.468 -3.101 -2.798 -1.643 -4.07 -3.059 -8.57 -6.558 -11.477 -1.708 -1.324 -2.196 -3.575 -3.719 -5.057 -0.987 -1.014 -2.169 -2.159 -2.045 -3.705 0.018 -2.857 2.094 -4.994 3.609 -7.199 -0.083 -4 1.371 -7.675 3.31 -11.085 1.083 -4.296 4.243 -7.826 8.22 -9.704Zm22.167 14.817c-3.411 0.743 -7.914 1.094 -9.543 4.726 -1.578 2.114 -3.077 4.39 -3.534 7.043 -0.438 2.874 -2.778 5.325 -5.634 5.888 -2.754 0.434 -4.242 3.166 -4.744 5.662 0.605 1.85 1.55 3.585 2.376 5.348 1.333 0.42 2.094 -1.274 3.406 -0.935 1.436 0.258 2.819 1.097 3.457 2.444 -0.248 1.866 -1.324 3.678 -0.825 5.593 2.801 4.104 7.166 7.153 12.082 8.04 2.574 0.25 5.07 -0.581 7.647 -0.406a2.48 2.48 0 0 0 -2.51 -3.19c-2.901 0.278 -4.115 -3.839 -2.269 -5.73 1.702 -2.894 4.929 -4.523 8.264 -4.125 1.412 -2.376 -1.592 -2.654 -3.05 -3.572 -0.323 -1.306 0.264 -2.502 1.334 -3.258 1.675 -0.2 3.253 0.853 4.937 0.396 1.245 -1.602 0.433 -3.826 0.65 -5.703 0.278 -2.09 -2.403 -2.475 -3.926 -2.492 -1.066 0.738 -1.891 1.836 -3.138 2.283 -1.73 0.226 -2.967 -1.505 -4.685 -1.389 -1.842 -0.213 -2.973 1.481 -4.306 2.433 -1.025 0.918 -2.995 0.087 -2.88 -1.32 -0.341 -1.952 1.771 -3.282 1.434 -5.228 -1.681 -0.079 -3.369 0.102 -5.044 -0.061 -0.918 -0.86 -1.512 -2.561 -0.116 -3.273 1.984 -2.003 4.943 -0.913 7.374 -1.78 3.77 0.254 8.745 1.735 11.615 -1.537 -0.313 -4.135 -4.495 -6.682 -8.37 -5.857m-38.317 50.79c-3.266 1.966 -6.369 4.232 -9.219 6.83 -1.684 3.978 -2.459 8.298 -4.517 12.124 -1.204 2.234 -0.873 4.767 -1.001 7.19 -4.033 3.176 -6.456 7.821 -9.401 11.938 -2.464 4.025 -4.438 8.343 -7.222 12.169 -3.89 4.564 -6.105 10.216 -9.105 15.334 -1.702 2.124 -2.939 4.61 -3.812 7.167 1.787 2.34 5.057 2.63 7.675 3.567 6.133 0.641 12.385 0.369 18.431 1.836 8.515 0.702 17.029 1.667 25.565 2.118 10.401 2.045 21.108 2.506 31.671 3.272 2.297 0.276 2.922 -2.354 3.668 -3.973 1.172 -3.087 5.359 -4.517 4.892 -8.26 -0.203 -1.464 2.482 -3.184 0.604 -4.08 -2.131 -0.705 -3.165 -2.839 -4.923 -4.074 -7.462 2.275 -14.818 4.888 -22.215 7.393 -1.842 -0.199 -3.678 -0.573 -5.547 -0.451 -2.524 0.156 -4.882 -1.103 -7.36 -1.192 -2.64 0.729 -5.229 -0.585 -7.872 -0.581 -2.63 -0.037 -5.302 0.103 -7.855 -0.67 -4.131 -1.369 -8.638 -0.535 -12.736 -2.062 -2.035 -0.577 -5.307 -0.942 -5.468 -3.613 4.499 -4.803 8.614 -9.996 12.552 -15.279 2.727 -2.248 4.504 -5.331 6.779 -7.989 1.86 -2.265 2.551 -5.255 4.671 -7.338 2.283 -3.54 4.846 -7.933 9.45 -8.504 2.086 -0.749 4.956 -0.004 6.174 -2.293 0.157 -3.107 -0.124 -6.235 0.065 -9.35 0.485 -4.753 -3.627 -8.882 -8.075 -9.718 -1.998 -0.433 -3.692 -2.08 -5.865 -1.509m-14.351 87.54c0.175 0.172 0.175 0.172 0 0Zm-69.192 95.594c-1.652 0.144 -2.718 1.997 -3.049 3.479 -1.021 8.845 -3.28 17.466 -6.322 25.828 -1.911 4.685 -1.688 10.217 0.79 14.602 1.196 0.433 1.076 -1.296 1.791 -1.836 2.22 -2.368 2.939 -5.611 4.411 -8.422 0.9 -3.241 3.506 -5.695 4.341 -8.954 0.578 -2.866 -1.513 -5.283 -1.402 -8.102 -0.01 -2.262 -1.107 -4.657 0.01 -6.81 0.715 -1.801 1.873 -3.359 2.825 -5.03 1.392 -2.159 -0.863 -5.449 -3.393 -4.753m44.319 3.203c-1.458 1.822 -2.488 4.011 -2.894 6.312 -0.134 0.987 -0.705 2.303 -1.925 2.11 -3.843 0.457 -6.164 -3.544 -9.704 -4.259 -1.56 -0.327 -3.045 -0.915 -4.582 -1.32 -3.396 1.842 -6.349 4.403 -9.611 6.469 -2.709 0.227 -4.376 -3.069 -7.144 -2.293a10.62 10.62 0 0 0 -1.863 1.966c-0.77 2.465 1.513 4.228 2.182 6.404 0.393 1.403 1.616 2.276 3.001 2.561 2.921 0.66 5.805 1.569 8.786 1.933 4.578 0.065 8.938 1.574 13.423 2.269 3.19 0.083 6.06 1.998 9.267 1.878a183.226 183.226 0 0 1 7.923 -1.933c3.438 -0.894 5.109 -4.393 6.59 -7.291 0.743 -1.392 1.667 -3.475 0.041 -4.596 -3.211 -2.681 -6.506 -5.273 -9.995 -7.576 -1.245 -0.725 -1.919 -3.885 -3.493 -2.636m86.238 -63.591c1.158 -0.42 1.729 0.946 1.942 1.86 0.282 2.657 2.709 4.3 3.406 6.812 0.402 1.578 2.215 2.11 2.829 3.554 1.029 2.206 1.588 4.637 3.004 6.658 2.091 3.069 3.342 6.728 3.235 10.467 -1.268 2.027 -3.392 3.231 -5.293 4.568 -1.279 1.537 1.241 3.664 -0.443 5.067 -1.352 1.278 -1.541 4.241 -3.521 4.421 -1.154 -1.45 -2.039 -3.129 -2.395 -4.953 -0.629 -2.695 -2.138 -5.098 -2.644 -7.827 0.705 -2.446 4.72 -2.976 4.06 -5.971 -1.574 -3.884 -3.382 -7.675 -4.671 -11.666 -1.601 -2.904 -3.839 -5.681 -3.983 -9.147 0.605 -2.035 2.591 -3.197 4.474 -3.843ZM206.85 225.12c4.342 -0.802 6.53 3.603 9.284 6.045 1.348 1.486 3.881 2.764 3.255 5.14 -0.674 1.422 -1.856 2.764 -1.417 4.462 1.513 1.113 3.779 -0.096 5.105 1.547 0.738 2.427 -1.358 4.245 -2.733 5.929 -1.983 1.85 -4.545 0.248 -6.095 -1.33 -1.574 -1.56 -4.107 -2.907 -4.129 -5.385 -0.544 -2.912 3.94 -4.025 2.764 -7.061 -1.154 -1.269 -2.437 -3.138 -4.383 -2.843 -2.839 1.671 -3.3 5.786 -6.545 6.899 -2.289 -0.24 -4.314 1.021 -6.575 1.038 -0.278 1.056 0.715 1.699 1.227 2.469 0.839 1.436 -0.319 3.327 -1.942 3.437 -2.695 0.692 -5.566 0.595 -8.123 1.75 -2.639 1.034 -5.118 -3.359 -2.427 -4.799 3.111 -0.701 6.363 -0.526 9.391 -1.647 0.733 0.032 0.461 -0.853 0.619 -1.296 -2.949 0.193 -6.139 -0.719 -8.845 0.811 -1.407 0.172 -3.221 0.475 -4.173 -0.862 -0.059 -1.241 -0.508 -2.981 0.952 -3.582 2.663 -1.227 5.661 -1.07 8.49 -1.643 3.249 -0.762 6.838 0.443 9.88 -1.241 1.526 -1.869 2.801 -3.936 4.152 -5.933 0.572 -0.798 1.043 -2.138 2.27 -1.907m49.364 6.363c3.203 -1.533 6.837 1.536 7.415 4.775 0.138 1.523 0.766 2.925 1.347 4.32 0.402 1.962 -0.678 3.843 -1.887 5.297 -1.933 0.591 -3.658 -0.262 -4.933 -1.674 -0.664 2.874 1.73 5.08 1.805 7.882 -0.042 2.303 2.289 3.788 2.316 6.073 0.144 1.911 1.273 3.554 1.86 5.349 0.78 2.066 0.845 4.375 1.962 6.321 0.78 1.385 1.361 2.912 1.33 4.527 0.031 3.387 2.732 6.18 2.234 9.636 0.234 5.135 -0.124 10.271 0.082 15.403 1.021 3.152 -0.134 6.327 -0.262 9.501 -0.34 1.606 0.591 3.197 0.199 4.819 -1.13 2.612 -4.475 3.709 -4.96 6.648 -0.747 3.115 -2.819 6.243 -1.495 9.515 1.186 2.811 4.153 4.104 7.013 4.537 1.777 0.152 0.433 2.045 0.055 2.939 -1.495 8.436 -1.168 17.139 0.106 25.52 1.303 1.763 3.156 3.021 4.896 4.32 4.245 1.491 8.837 1.688 13.138 3.045 3.059 1.007 6.52 0.845 9.274 2.705 1.519 1.028 3.249 1.694 4.762 2.729 0.148 1.144 0.175 2.454 -0.918 3.151 -1.61 1.232 -2.607 2.971 -3.716 4.624 -7.462 2.124 -14.808 5.589 -22.363 7.793 -1.462 -0.147 -3.554 0.684 -4.462 -0.835 -0.955 -0.932 0.292 -2.179 0.172 -3.304 -3.548 -0.226 -6.742 1.97 -9.155 4.37 -4.042 3.004 -9.556 4.286 -14.454 3.087 -2.186 -0.457 -2.178 -2.932 -2.832 -4.596 -1.273 -2.547 -2.589 -5.317 -2.248 -8.237 1.519 -3.018 3.571 -5.829 4.476 -9.136 0.055 -2.317 0.831 -4.61 0.189 -6.909a127.288 127.288 0 0 0 -0.922 -16.617c0.742 -2.908 -0.568 -5.764 -0.997 -8.621 -0.766 -4.024 -4.573 -6.404 -5.851 -10.188 -1.042 -2.248 -0.599 -4.776 0.087 -7.047 1.148 -6.418 1.647 -12.925 2.293 -19.4 0.415 -2.589 0.859 -5.187 0.729 -7.823 0.258 -5.049 -2.953 -9.275 -5.136 -13.558 -2.727 -4.361 -4.2 -9.394 -7.19 -13.594 -2.682 -3.527 -3.836 -7.934 -6.553 -11.444 -0.882 -1.883 -3.286 -4.624 -0.965 -6.355 3.516 -2.853 5.455 -7.116 8.952 -9.968 2.358 -2.488 5.094 -5.304 8.786 -5.266 3.54 0.932 7.222 1.605 10.494 3.313 -0.688 1.966 -1.675 3.844 -3.056 5.414 -2.639 0.443 -4.881 -1.736 -7.513 -1.361 -2.667 0.811 -4.245 3.217 -6.188 5.025 -1.86 1.736 -2.732 4.297 -3.183 6.72 0.512 3.784 4.089 6.331 4.619 10.119 2.534 4.985 4.909 10.124 7.933 14.87 1.5 4.011 4.439 7.267 5.861 11.306 1.352 3.553 4.019 6.723 4.2 10.641 -0.447 1.892 -2.571 1.823 -4.139 1.764 -1.481 2.123 -0.77 4.743 -1.006 7.143 -0.53 5.076 -1.62 10.106 -1.303 15.234 -0.031 2.708 -0.031 6.136 2.672 7.651 1.337 0.595 0.996 2.275 1.814 3.29 2.417 3.049 1.158 7.171 1.505 10.742 -0.382 2.685 1.45 5.16 0.798 7.845 -1.127 3.234 1.357 6.451 0.327 9.696 -0.433 1.07 0.069 2.151 0.193 3.225 0.199 1.333 -0.78 2.732 0.203 3.922 3.036 0.461 5.335 -2.159 7.507 -3.871 3.115 -3.17 0.678 -7.768 1.052 -11.597 -0.746 -3.332 -0.295 -6.761 -0.522 -10.138 -0.663 -3.036 -0.096 -6.17 -0.492 -9.229 -0.762 -2.88 0.031 -5.898 -0.749 -8.769 0.956 -3.317 0.028 -6.816 0.849 -10.157 -0.89 -3.723 0.32 -7.466 0.046 -11.241 -0.382 -10.106 1.231 -20.637 -2.538 -30.258 -1.134 -3.688 -1.57 -7.607 -3.238 -11.113 -1.159 -2.589 -1.098 -5.483 -1.943 -8.154 -1.45 -4.214 -2.667 -8.597 -5.224 -12.306 -0.493 -2.723 2.437 -4.307 3.004 -6.775 0.591 -2.732 2.187 -5.067 3.836 -7.263m10.236 140.382c-3.974 2.349 -7.618 5.662 -12.192 6.706 -2.321 1.596 -3.259 5.916 -0.688 7.604 2.981 0.282 6.054 -0.711 8.37 -2.598 2.404 0.014 4.019 -1.911 6.068 -2.825 2.839 -1.227 5.538 -2.894 8.662 -3.276 3.43 -0.059 6.7 -1.371 10.161 -0.959 2.65 0.368 5.012 -1.108 7.638 -0.966 -1.2 -2.293 -4.015 -1.66 -6.095 -2.169 -2.465 -0.453 -4.919 0.481 -7.346 0.055 -3.761 1.242 -7.415 -1.337 -11.117 -0.663 -1.076 -0.461 -2.307 -2.035 -3.461 -0.909Zm20.706 8.353c-1.891 0.56 -3.617 1.578 -5.624 1.73 -2.922 0.299 -5.266 2.183 -8.002 3.028 -0.719 0.642 -2.382 1.897 -0.973 2.667 1.869 -0.347 3.788 -0.839 5.325 -2.011 3.949 -2.823 9.012 -3.304 13.309 -5.174 -0.95 -1.371 -2.729 -0.488 -4.035 -0.24Z" stroke-width="1"></path></g></svg>