<svg xmlns="http://www.w3.org/2000/svg" fill="none" viewBox="0 0 400 400" height="400" width="400"><g><path fill="#000000" d="M255.848 5.068c10.241 -0.688 20.787 3.977 26.612 12.515 3.4 7.709 3.538 16.667 0.72 24.587 -0.44 1.681 -1.623 4.933 0.992 5.267 7.913 1.344 15.955 2.3 23.587 4.933 7.082 1.154 13.743 4.226 19.684 8.18 7.058 2.781 11.735 9.12 18.03 12.999 6.413 8.037 13.471 16.252 15.739 26.588 0.18 5.714 3.215 10.999 2.522 16.779 0.508 3.861 -0.974 7.436 -1.623 11.165 -0.55 11.221 -3.458 22.206 -3.173 33.466 0.905 4.295 0.223 8.712 0.985 13.018 0.246 3.718 2.212 7.553 0.54 11.197 -1.406 1.612 -3.552 2.249 -5.113 3.655 -1.27 2.527 -0.408 5.552 -1.829 8.047 -2.064 3.872 -5.695 8.408 -10.67 7.077 -3.054 -1.321 -2.776 -5.169 -2.046 -7.852 -1.058 -2.088 -3.811 -0.72 -5.229 -2.287 -2.242 -1.99 -3.631 -4.914 -4.033 -7.851 -0.842 -13.055 -1.114 -26.234 0.129 -39.278 1.04 -4.698 0.236 -9.493 0.44 -14.246 0.227 -3.946 -2.988 -7.757 -1.469 -11.65 2.236 -2.41 4.523 -6.203 8.334 -5.366 0.928 2.715 -1.437 4.406 -2.565 6.499 -0.222 4.412 1.913 8.569 1.932 12.989 -0.204 5.862 0.333 11.76 -0.619 17.572 0.166 8.209 -1.649 16.296 -1.302 24.519 3.048 -0.119 5.173 -4.052 8.384 -2.443 4.213 2.546 4.152 7.802 4.139 12.131 1.976 -2.236 4.348 -4.263 5.488 -7.087 -0.267 -5.602 -1.585 -11.146 -1.307 -16.791 -0.143 -6.402 0.577 -12.894 -0.334 -19.208 2.491 -6.796 3.025 -14.021 4.163 -21.102 0.365 -5.465 0.013 -11.012 -2.157 -16.112 -0.688 -7.632 -5.451 -14.028 -9.381 -20.348 -11.419 -15.087 -28.931 -24.532 -47.003 -29.171 -5.216 -0.966 -10.44 -2.74 -15.812 -2.144 -0.582 3.216 1.246 6.37 0.235 9.535 -1.574 9.4 -9.177 15.998 -14.963 22.92 -0.613 6.302 2.814 12.386 1.543 18.7 -1.908 1.257 -3.76 -0.55 -4.065 -2.471 -0.111 -4.66 -1.474 -9.176 -1.45 -13.841 -2.051 -2.988 -5.409 -4.647 -8.302 -6.685 -5.986 -1.617 -12.001 1.755 -18.069 0.86 -3.748 -3.76 -6.01 -8.805 -8.283 -13.539 -2.393 -1.82 -4.232 -4.014 -5.045 -6.97 -1.971 0.13 -3.257 1.833 -5.049 2.429 -3.525 1.257 -7.336 2.07 -10.286 4.51 -1.797 1.635 -4.642 1.164 -6.27 3.03 -3.334 3.331 -6.679 6.671 -9.318 10.606 -6.351 5.761 -10.014 13.748 -15.968 19.891 -2.226 3.469 -4.796 6.692 -7.738 9.58 -4.888 7.78 -12.436 13.581 -16.514 21.901 -4.324 3.681 -6.685 8.942 -10.384 13.169 -1.821 2.397 -4.089 4.615 -4.994 7.566 -1.612 5.838 0.037 11.978 -1.302 17.845 -0.098 7.732 -1.276 15.447 -0.503 23.211 0.508 3.552 6.203 5.936 8.103 2.292 4.078 -7.386 7.397 -15.174 10.483 -23.013a480.708 480.708 0 0 0 8.209 -18.409c2.112 -4.641 8.606 -3.81 11.369 -7.843 4.181 -6.699 6.034 -14.413 9.41 -21.495 2.43 -6.227 4.573 -12.552 6.564 -18.929 3.842 -8.067 5.404 -17.06 10.037 -24.755 2.038 -4.388 3.086 -11.951 9.382 -11.567 0.873 7.119 -4.467 13.012 -6.476 19.543 -3.123 10.869 -8.704 20.814 -11.573 31.768 0.757 1.479 1.903 0.402 2.832 -0.241 3.464 -2.707 7.646 -4.269 11.165 -6.902 2.176 -1.709 5.372 -0.68 6.389 1.84 1.921 5.819 3.456 11.847 6.37 17.275 1.066 2.213 3.879 1.821 5.893 2.324 13.526 0.675 26.742 4.287 40.305 4.509 5.695 0.416 11.567 3.123 17.17 0.794 4.726 -2.397 7.132 -7.428 10.39 -11.345 2.725 -6.994 3.45 -14.635 6.195 -21.65 1.662 -4.227 2.384 -8.99 5.539 -12.467 2.411 -2.676 5.248 -5.923 9.215 -5.632 1.945 -0.222 4.379 1.4 3.784 3.57 -1.765 1.64 -4.449 2.162 -5.714 4.356 -6.147 8.823 -8.172 19.66 -10.241 30.008 -0.657 7.298 -8.495 10.953 -10.602 17.529 0.508 4.237 2.504 8.204 3.396 12.404 0.905 6.592 2.244 13.155 2.273 19.84 3.271 15.693 3.136 31.744 2.808 47.699 -0.818 5.756 -1.691 11.663 -4.38 16.889 -2.768 3.959 -6.185 7.437 -9.76 10.666 -1.506 1.344 -1.951 3.39 -2.347 5.279 -0.601 15.77 1.833 31.402 2.609 47.103 0.749 4.804 2.31 9.586 1.612 14.5 -2.509 2.157 -5.979 1.04 -8.953 1.461 -3.049 0.553 -6.227 0.577 -9.128 1.755 -0.013 0.86 -0.079 1.865 0.638 2.503 2.919 3.959 7.585 6.047 10.689 9.821 4.475 4.827 9.548 9.021 14.227 13.637 1.834 1.381 1.04 3.792 -0.582 4.933 -8.68 3.451 -18.385 5.557 -27.61 3.215 -5.095 0.371 -10.546 -0.212 -14.283 -4.097 -2.535 -1.45 -1.095 -5.007 -3.284 -6.642 -2.564 -3.08 -6.883 -1.437 -10.329 -1.686 -2.789 -0.384 -5.459 1.085 -8.217 0.453 -6.852 -2.236 -13.364 3.842 -20.25 1.561 -2.43 -0.619 -5.534 -2.106 -4.716 -5.155 2.572 -2.014 6.089 -4.338 9.387 -2.535 2.683 1.741 5.941 1.201 8.971 1.146 2.638 -0.874 5.131 -3.483 8.098 -2.102 2.855 1.81 6.375 0.8 9.225 -0.489 2.181 -2.3 2.268 -5.664 3.279 -8.519 3.544 -9.609 1.437 -19.994 1.233 -29.947 -1.029 -4.107 0.657 -8.272 -0.309 -12.398 -0.495 -9.064 -0.143 -18.155 -0.125 -27.232 0.051 -1.815 -2.037 -2.591 -3.353 -3.371 -7.391 -0.13 -14.491 -2.702 -21.835 -3.234 -1.927 -0.36 -2.763 1.934 -3.017 3.456 -1.548 6.338 -2.149 12.938 -4.586 19.041 -2.038 4.171 -8.122 3.594 -11.295 1.117 -6.786 -5.603 -6.264 -15.331 -6.166 -23.286 1.903 -8.32 -0.887 -16.593 -2.43 -24.718 -0.074 -4.697 -0.389 -9.561 1.04 -14.097 1.848 -3.848 6.847 -4.263 10.366 -2.652 7.373 1.469 14.728 3.031 22.095 4.536 6.389 0.805 12.523 3.687 19.041 3.216 0.119 -3.456 0.087 -6.915 1.247 -10.223 -0.657 -4.399 -5.243 -6.116 -8.061 -8.935 -6.384 -6.629 -13.862 -12.231 -19.462 -19.591 -8.477 -8.408 -15.72 -18.496 -18.782 -30.174 -0.606 -6.444 -1.418 -13.031 0.291 -19.393 0.371 -1.511 0.477 -5.539 -1.99 -4.462a92.116 92.116 0 0 1 -8.301 5.441c-3.766 4.623 -4.057 10.993 -6.796 16.185 -1.697 6.111 -9.263 6.296 -13.148 10.361 -5.996 11.594 -11.067 23.738 -17.522 35.121 -2.479 3.922 -1.474 8.624 -1.519 12.985 0.31 3.142 2.001 6.079 1.718 9.3 -0.291 2.771 -1.977 5.076 -3.321 7.423 -2.962 5.817 -6.6 11.488 -11.835 15.508 -3.276 6.531 -3.377 14.047 -5.063 21.047 -0.444 8.365 -2.074 16.611 -3.773 24.791 0.582 2.864 0.407 5.733 -0.662 8.464 -0.138 3.154 -0.18 6.325 -0.521 9.466 1.021 4.134 -0.503 8.291 0.267 12.417 -0.942 10.736 -1.773 21.581 -4.69 32.003 -0.545 3.221 -2.355 6.166 -2.064 9.53 -1.066 6.338 -4.726 11.877 -6.393 18.048 -1.969 3.71 -1.927 8.125 -4.19 11.747 -1.556 4.145 -6.767 5.627 -10.633 4.245 -1.932 -1.921 -2.157 -4.869 -3.4 -7.206 -5.423 -10.546 -5.997 -22.677 -5.571 -34.308 1.357 -8.754 1.667 -17.696 4.237 -26.242 1.622 -5.496 1.736 -11.461 4.56 -16.569 3.86 -7.447 7.626 -14.971 12.281 -21.96 1.183 -1.879 3.012 -3.414 3.594 -5.621 1.376 -7.068 1.76 -14.325 3.626 -21.309 0.466 -6.42 0.069 -12.869 0.079 -19.294 -1.246 -3.004 -4.231 -4.902 -5.391 -7.945 -0.637 -4.689 2.194 -8.818 4.2 -12.809 0.67 -2.448 -2.495 -3.861 -1.963 -6.325 -0.347 -2.818 1.265 -5.348 3.469 -6.946 3.557 -2.406 6.357 -5.746 8.948 -9.123 0.775 -13.793 1.307 -27.43 1.312 -41.241 -0.309 -4.698 3.266 -8.13 6.135 -11.34 5.7 -8.63 12.708 -16.352 18.371 -24.99 3.054 -2.429 4.98 -5.774 7.267 -8.855 4.877 -5.118 8.426 -11.321 13.198 -16.532 2.569 -2.845 4.366 -6.301 7.15 -8.971 3.89 -3.806 6.643 -8.575 10.551 -12.367 2.745 -2.633 4.319 -6.523 7.858 -8.273 8.836 -3.644 17.331 -8.098 26.22 -11.604 2.027 -0.916 0.918 -3.562 1.247 -5.298 0.484 -3.904 -2.292 -7.262 -1.99 -11.142 -0.167 -2.786 0.955 -5.44 0.849 -8.227 -1.413 0.841 -2.609 2.305 -4.337 2.416 -1.623 -2.2 -0.633 -5.18 0.624 -7.323 4.809 -8.037 13.174 -13.068 21.402 -17.021 3.916 -1.747 8.018 -3.396 12.398 -3.017m3.718 7.441c-7.28 -0.706 -14.121 2.268 -20.483 5.441 -1.691 0.845 -3.829 1.99 -3.626 4.227 1.22 0.77 2.721 1.146 3.713 2.244 0.199 3.371 -0.285 6.767 0.209 10.125 1.078 3.326 2.988 6.402 5.386 8.934 4.388 3.28 9.696 4.915 14.653 7.106 2.646 1.474 3.978 -2.231 6.301 -2.874 4.084 -1.847 7.77 1.686 9.877 4.84 1.151 -2.355 0.526 -5.012 1.01 -7.502 0.739 -5.677 3.766 -11.383 1.742 -17.146 -0.979 -5.725 -5.1 -10.906 -10.578 -12.907 -2.683 -1.035 -5.168 -2.99 -8.204 -2.488Zm-27.869 19.8c-2.517 4.338 -0.813 10.44 0.476 15.226 0.231 3.284 3.594 4.53 6.079 5.893 2.906 -0.378 6.637 -1.829 8.971 0.72 0.204 1.14 0.286 2.36 -0.111 3.477 -2.347 0.702 -4.652 -1.196 -7.015 -0.328 -2.591 0.985 -4.957 -1.395 -7.627 -0.823 -1.022 2.752 -0.739 5.83 -0.665 8.712 1.252 1.585 3.65 2.144 4.256 4.25 1.5 3.284 2.943 6.966 5.732 9.345 4.703 0.508 9.27 -1.945 13.984 -1.128 3.159 1.697 5.47 5.243 9.257 5.571 6.393 -6.042 13.774 -13.743 12.639 -23.304 0.079 -1.35 -0.564 -3.515 -2.305 -2.74 -2.144 3.253 -2.3 8.218 -6.32 9.914 -2.366 0.776 -2.411 -2.374 -1.188 -3.612 2.051 -3.017 4.555 -7.1 2.093 -10.615 -3.482 -0.918 -5.917 2.093 -8.685 3.562 -2.263 0.347 -3.959 -1.58 -5.83 -2.535 -3.438 -2.385 -7.987 -1.784 -11.531 -3.898 -5.396 -4.586 -9.108 -10.962 -10.961 -17.752 -0.31 0.018 -0.934 0.05 -1.252 0.068m-23.54 98.5c-2.776 4.226 -2.527 10.157 -2.434 15.243 -0.445 6.997 2.919 13.452 6.444 19.253 1.662 3.922 5.769 6.004 7.516 9.876 1.09 2.504 3.58 3.866 5.131 6.023 7.349 10.353 18.922 16.612 26.922 26.335 1.275 7.335 -1.858 14.976 -0.148 22.375 -0.08 4.406 0.272 8.855 -0.569 13.203 -1.4 8.929 0.254 17.908 -0.056 26.872 0.484 3.94 -1.437 7.87 -0.111 11.742 0.458 6.804 1.612 13.576 1.294 20.435 0.521 7.008 -0.836 14.264 1.538 21.042 2.535 -2.472 6.102 -2.281 9.386 -2.181 2.739 0.193 5.193 -1.344 7.831 -1.76 2.448 -0.079 4.925 -0.031 7.28 -0.836 0.546 -6.896 -0.831 -13.73 -1.257 -20.578 -0.05 -8.892 -2.032 -17.771 -1.188 -26.637 -0.466 -6.994 -1.635 -14.06 -0.683 -21.06 0.143 -14.573 0.998 -29.102 2.684 -43.552 0.905 -4.573 -0.217 -9.318 -2.093 -13.512 -1.964 -4.115 -3.136 -8.874 -6.99 -11.724 -4.993 -6.314 -10.662 -12.038 -16.45 -17.627 -4.454 -4.362 -6.711 -10.311 -10.098 -15.379 -7.77 -0.632 -15.299 -2.948 -23.024 -3.959 -2.101 -0.513 -4.989 -0.701 -5.862 -3.054 -1.418 -3.501 -2.429 -7.187 -4.2 -10.54 -0.217 0 -0.646 0.005 -0.855 0.005m46.392 17.956c-0.241 0.05 -0.72 0.156 -0.955 0.212 -1.152 3.183 1.63 5.335 3.302 7.613 5.317 8.892 14.201 14.847 19.989 23.392 3.964 4.782 7.399 10.477 7.51 16.865 0.342 17.033 -1.612 33.893 -2.988 50.827 -0.296 1.631 0.411 2.888 2.12 2.096 2.684 -3.631 6.381 -7.169 6.426 -12.001 -0.268 -3.877 2.082 -7.331 1.971 -11.202 -0.172 -7.839 0.185 -15.683 -0.143 -23.508 -0.974 -5.96 0.069 -12.076 -1.667 -17.932 0.323 -6.421 -3.099 -12.251 -3.297 -18.639 -0.86 -4.324 -1.562 -8.694 -2.657 -12.962 -0.371 -2.009 -2.689 -2.255 -4.348 -2.168 -3.57 0.098 -6.966 -1.368 -10.533 -1.257 -4.957 0.135 -9.834 -1.048 -14.727 -1.331m87.416 33.435 -0.458 0.069c0.333 2.985 -1.302 6.817 0.947 9.188 1.511 -2.85 0.85 -6.177 0.868 -9.262 -0.341 0 -1.016 0.005 -1.357 0.005Zm-211.858 23.558c-2.057 2.541 -4.708 4.536 -6.712 7.108 -0.934 2.578 2.231 3.959 2.403 6.288 -1.326 4.833 -4.634 9.027 -5.668 13.947l1.4 0.05c2.186 -3.75 3.562 -8.085 6.814 -11.115 2.268 -0.992 4.716 -2.366 7.267 -1.876 1.588 0.836 3.21 1.741 4.425 3.086 0.407 2.355 -0.278 4.66 -0.744 6.946 2.985 -4.467 6.87 -9.627 5.193 -15.304 -0.421 -2.088 -0.019 -4.684 -1.636 -6.282 -3.742 -1.773 -8.093 -1.641 -11.848 -3.414a91.31 91.31 0 0 1 -0.9 0.569m70.067 14.939c-2.615 2.411 -3.719 6.214 -2.652 9.635 1.455 5.452 1.876 11.086 2.26 16.699 1.506 7.765 -1.008 15.863 1.35 23.495 0.928 2.194 2.056 5.756 5.136 4.726 3.501 -5.875 2.708 -13.173 4.444 -19.641 -1.377 -2.242 -4.759 -2.273 -5.756 -4.888 -2.758 -6.121 -3.041 -13.322 -1.414 -19.785 0.546 -3.154 3.512 -5.644 2.851 -9.016 -1.723 -1.085 -4.388 -2.832 -6.222 -1.228m13.502 3.681a2.25 2.25 0 0 0 -1.474 0.905c-2.707 4.065 -3.501 8.985 -4.481 13.669 0.638 3.022 0.744 6.542 3.271 8.723 3.909 2.434 8.532 3.382 13.068 3.773 6.537 0.657 12.584 4.227 19.282 3.335 0.559 -0.985 1.09 -1.99 1.456 -3.054 -1.339 -7.132 -0.112 -14.574 -0.614 -21.836 -6.884 -3.427 -14.889 -2.874 -22.233 -4.758 -2.726 -0.447 -5.541 -1.884 -8.275 -0.757Zm-83.179 3.427c-5.235 7.021 -4.565 16.532 -5.613 24.834 -0.596 5.997 -1.903 11.922 -2.186 17.951 0.129 4.3 -2.583 8.098 -2.416 12.412 0.06 2.305 -0.088 4.832 -1.76 6.61 -2.657 2.864 -4.436 6.357 -6.532 9.617 -4.983 6.91 -8.96 14.569 -11.115 22.833 -1.736 6.537 -5.036 12.714 -5.396 19.581 0.032 5.452 -1.437 10.813 -1.238 16.265 1.114 5.547 0.638 11.419 2.781 16.754 1.302 3.42 1.81 7.268 3.996 10.274 0.712 1.275 2.102 0.471 2.726 -0.421 5.626 -7.907 8.477 -17.313 11.226 -26.514 0.569 -4.449 2.67 -8.575 2.893 -13.055 1.995 -11.377 3.742 -22.976 2.786 -34.536 -1.802 4.084 -0.383 8.625 -1.479 12.865 0.167 6.901 -1.747 13.605 -2.186 20.446 -1.686 3.197 -1.413 6.915 -2.948 10.143 -3.197 8.03 -5.174 16.57 -9.281 24.22 -0.241 0.924 -1.672 1.048 -1.802 -0.013 -4.264 -9.94 -5.899 -21.134 -4.48 -31.849 1.188 -3.581 0.267 -7.405 1.35 -10.986 1.505 -4.745 3.339 -9.498 3.903 -14.449 1.151 -1.58 2.559 -3.054 3.054 -5.012 2.365 -7.752 6.407 -14.995 12.274 -20.64 2.993 -6.288 4.678 -13.216 5.049 -20.192 1.059 -5.155 2.522 -10.236 2.726 -15.521 -0.193 -3.742 1.648 -7.069 2.088 -10.726 1.188 -7.076 4.462 -13.891 3.742 -21.179 -0.545 0.074 -1.622 0.214 -2.162 0.288Zm-15.863 84.654c-2.54 1.635 -3.636 4.517 -4.467 7.267 -2.212 4.207 -3.086 8.923 -4.541 13.409 -3.761 11.451 -4.605 23.868 -1.884 35.639 2.199 0.86 3.191 -1.691 3.903 -3.289 4.541 -12.412 6.455 -25.578 8.773 -38.529 -2.218 -4.351 0.804 -9.083 0.05 -13.743 -0.143 -1.053 -1.035 -1.037 -1.834 -0.754Zm140.559 16.09c-1.567 0.489 -3.261 1.228 -3.711 2.961 -1.029 2.869 -2.725 5.756 -2.392 8.897 1.035 3.308 5.547 3.607 6.513 7.04 1.551 4.933 6.971 7.267 11.816 7.031 4.61 -0.023 9.609 0.948 13.881 -1.228 2.082 -2.434 -1.456 -5.054 -3.266 -6.531 -6.097 -4.443 -10.652 -10.533 -14.971 -16.598 -1.058 -3.422 -5.279 -2.194 -7.868 -1.575M327.7 97.406c3.099 -1.132 3.533 3.147 1.659 4.661 -1.95 1.926 -4.107 3.631 -6.213 5.385 -1.294 -0.508 -1.866 -1.598 -1.464 -2.948 1.077 -2.938 3.298 -5.658 6.016 -7.095m5.562 8.005c2.361 -0.966 3.557 2.374 1.99 3.793 -1.791 1.765 -3.353 3.75 -5.112 5.539 -0.85 0.111 -1.932 0.322 -2.292 -0.694 -0.744 -3.723 2.614 -6.878 5.414 -8.638ZM45.781 306.806c3.21 -1.183 6.587 0.476 9.919 0.106 2.037 1.678 3.766 3.705 5.83 5.367 3.419 3.477 2.125 8.799 0.886 12.949 -4.3 9.505 -20.15 10.879 -25.262 1.413 -2.888 -7.355 0.693 -17.419 8.624 -19.835m3.118 5.632c-2.416 1.034 -4.674 2.873 -6.06 5.136 -0.098 3.853 0.78 8.365 4.591 10.236 5.044 0.906 11.475 -3.284 10.093 -8.915 -0.34 -4.25 -4.374 -7.561 -8.624 -6.457Z" stroke-width="1"></path></g></svg>