<svg xmlns="http://www.w3.org/2000/svg" fill="none" viewBox="0 0 400 400" height="400" width="400"><g><path fill="#000000" d="M288.6 5.355c0.758 -0.245 1.555 -0.502 2.355 -0.254 5.125 1.281 10.534 2.86 14.384 6.658 3.257 4.508 5.205 9.911 6.211 15.35 1.251 4.378 4.642 7.586 7.048 11.291 1.767 4.663 6.29 7.407 8.621 11.693 1.296 3.219 4.178 5.414 5.38 8.696 2.914 3.431 4.592 7.809 8.147 10.704 2.187 2.202 5.454 0.762 8.158 1.27 4.054 1.002 7.738 3.048 11.459 4.88 2.425 0.657 3.939 2.774 5.822 4.269 1.833 1.648 4.163 2.8 5.513 4.941 1.336 1.953 3.468 3.168 4.857 5.076 2.74 4.582 6.375 9.134 6.286 14.758 0.85 3.646 0.472 7.43 0.085 11.121 -0.171 2.287 0.478 4.831 -0.996 6.818 -3.78 5.837 -10.463 8.929 -16.943 10.467 -3.167 1.813 -6.479 -0.389 -9.795 -0.21 -3.576 -1.315 -7.452 -2.166 -10.464 -4.631 -4.586 -3.312 -9.245 -7.252 -11.166 -12.755 -1.378 -2.261 -2.848 -4.486 -3.267 -7.162 -1.429 -2.491 -2.336 -5.224 -2.261 -8.138 -0.821 -5.652 -0.951 -11.54 0.513 -17.103 0.836 -2.038 1.912 -3.988 2.49 -6.13 -0.716 -4.582 -4.318 -7.869 -6.249 -11.93 -5.952 -7.604 -11.206 -15.702 -16.76 -23.592 -2.191 -1.983 -3.55 -4.96 -6.42 -6.086 -5.365 -2.725 -8.511 -8.232 -13.805 -11.046 -1.304 -0.821 -3.112 -0.572 -4.233 0.453 -6.744 4.975 -13.07 10.478 -19.519 15.828 -2.291 2.395 -4.691 4.882 -7.779 6.2 -6.703 0.788 -12.625 -3.043 -18.956 -4.477 -1.37 -0.244 -1.893 -1.684 -2.62 -2.68 -0.811 1.21 -0.777 3.033 -2.206 3.74 -1.523 0.876 -1.887 2.748 -2.982 4.018 -3.657 4.337 -9.26 6.052 -13.94 8.955 -3.905 2.157 -8.128 3.68 -11.952 5.992 -9.836 3.985 -19.638 8.064 -29.251 12.58 -2.027 1.151 -4.393 -0.736 -3.661 -2.958 0.438 -1.53 -1.823 -0.758 -2.221 0.074 -2.933 3.82 -7.37 5.852 -11.05 8.804 -3.97 1.898 -8.003 4.03 -12.436 4.497 -4.96 1.868 -10.14 3.246 -15.413 3.795 -5.893 -0.155 -11.674 1.215 -17.477 2.023 -7.401 0.026 -14.801 0.064 -22.204 0.015 -6.26 -0.962 -12.635 -0.349 -18.944 -0.542 -0.851 -0.194 -0.305 0.984 -0.379 1.429 1.455 1.683 3.72 2.246 5.414 3.62 3.92 3.198 8.655 5.106 12.814 7.92 4.437 1.315 7.809 4.89 12.457 5.648 3.222 1.463 6.779 1.144 10.07 2.316 5.339 1.489 10.923 1.804 16.245 3.387 2.614 -0.209 5.209 0.965 7.749 0.004 0.2 -1.63 -0.732 -3.138 -0.534 -4.767 0.951 -1.802 3.242 -0.947 4.861 -1.07 3.112 2.703 2.997 7.36 3.95 11.05 1.11 1.734 1.578 3.721 1.778 5.752 2.121 4.418 3.253 9.234 5.214 13.727 1 2.759 0.676 6.379 3.331 8.268 3.067 -0.478 5.818 -2.001 8.666 -3.133 9.653 -2.455 20.057 -4.337 29.768 -1.07 4.916 0.323 9.483 2.559 13.935 4.571 1.081 0.672 2.402 -0.487 2.265 -1.638 0.13 -7.481 1.007 -14.911 1.066 -22.392 1.515 -3.636 0.579 -7.641 1.281 -11.43 -0.041 -9.104 0.887 -18.123 0.561 -27.228 -0.308 -3.635 4.238 -5.35 7.103 -3.988 2.769 1.025 3.79 -2.39 5.388 -3.89 3.406 -2.83 5.343 -6.884 8.311 -10.107 2.514 -3.705 6.709 -5.447 10.508 -7.496 4.716 -2.989 9.019 -6.573 13.576 -9.795 1.618 -1.585 3.207 -4.185 5.866 -3.502 1.757 3.053 -0.189 7.126 -3.022 8.845 -3.397 2.461 -6.699 5.105 -10.515 6.913 -3.527 2.793 -8.402 4.02 -10.793 8.113 -6.918 7.377 -13.004 15.665 -18.896 23.867 -1.693 16.705 -2.793 33.388 -3.761 50.138 -1.006 3.754 1.081 7.66 -0.134 11.306 -1.399 2.739 -4.258 -0.126 -6.434 0.412 -0.828 2.521 0.672 5.116 0.587 7.705 1.34 5.737 0.189 11.684 1.206 17.436 -1.07 3.451 0.368 6.933 0.07 10.445 0.36 2.406 -0.547 4.656 -0.936 6.977 1.289 8.306 -0.995 16.579 -0.642 24.911a110.874 110.874 0 0 0 -1.743 16.939c0.145 10.3 -2.822 20.306 -4.592 30.365 0.015 4.278 -1.47 8.422 -1.589 12.676 1.206 1.712 3.973 0.996 4.971 3.048 3.346 5.395 4.308 11.834 6.818 17.607 3.252 9.976 6.688 19.883 10.674 29.593 3.042 7.724 5.15 15.877 9.302 23.125 0.253 0.538 0.164 1.165 0.089 1.742 -2.276 1.987 -5.164 3.152 -7.404 5.199 -0.783 2.71 2.046 4.516 2.335 7.066 0.464 3.038 4.204 4.92 3.587 8.213 -1.379 3.104 -5.374 2.336 -7.541 4.437 -2.246 2.072 -4.448 4.199 -6.709 6.256 -1.425 1.415 -3.58 0.424 -5.254 1.185 -5.359 1.923 -10.987 2.84 -16.58 3.657 -3.201 0.249 -6.111 -3.691 -4.258 -6.575 2.684 -4.021 4.697 -8.766 8.815 -11.57 1.455 -0.976 2.197 -2.614 3.059 -4.069 0.563 -2.581 -1.983 -4.359 -2.491 -6.743 -2.929 -4.865 -5.788 -9.766 -8.522 -14.752 -2.195 -3.217 -2.186 -7.307 -4.352 -10.553 -4.533 -7.76 -7.311 -16.297 -10.787 -24.559 -1.374 -6.838 -4.114 -13.262 -5.199 -20.131 -2.729 -10.089 -3.979 -20.474 -5.388 -30.774 -0.563 -5.314 -0.208 -10.693 -1.065 -15.973 -0.647 -3.799 -0.049 -7.7 -0.907 -11.469 -0.208 -1.379 0.443 -4.029 -1.34 -4.253 -3.007 4.572 -4.701 10.051 -8.432 14.18 -2.833 4.682 -6.23 9.004 -9.602 13.303 -3.014 4.886 -6.49 9.447 -9.866 14.095 -3.671 4.756 -8.183 8.87 -11.329 14.031 -3.988 3.969 -6.424 9.023 -9.109 13.835 -1.408 3.671 -4.054 6.713 -5.577 10.34 -1.902 3.068 -4.088 5.956 -5.758 9.179 -4.189 9.97 -12.276 17.711 -16.675 27.651 -2.106 4.129 -0.798 8.881 -0.049 13.188 -0.534 2.6 -3.452 3.327 -5.718 3.602 -9.776 1.2 -18.502 6.015 -27.562 9.532 -3.093 0.193 -6.196 -0.034 -9.293 0.07 -2.295 0.074 -4.927 1.319 -7.003 -0.224 -0.98 -0.304 -0.821 -1.425 -0.647 -2.212 1.758 -3.312 5.244 -5.069 7.72 -7.755 5.494 -5.493 11.255 -10.694 16.983 -15.922 -0.044 -1.894 1.334 -3.208 2.172 -4.716 -0.23 -2.068 -2.002 -4.114 -4.273 -3.929 -2.844 0.219 -5.195 -1.608 -7.924 -2.036 -1.434 -0.125 -2.176 -1.923 -1.162 -2.969 2.56 -3.591 4.523 -7.545 6.46 -11.485 2.794 -3.152 3.985 -7.396 6.893 -10.508 2.201 -2.491 2.833 -5.922 5.084 -8.362 3.535 -6.939 8.034 -13.267 11.829 -20.036 2.436 -1.449 3.014 -4.314 4.412 -6.575 1.259 -2.172 3.278 -3.78 4.522 -5.96 1.315 -1.819 2.091 -4.104 4.114 -5.284 4.303 -7.007 10.704 -12.397 14.956 -19.438 2.172 -2.44 3.88 -5.229 5.284 -8.169 4.971 -11.091 11.231 -21.565 16.041 -32.737 1.419 -4.95 4.831 -9.079 5.833 -14.195 0.483 -3.669 3.475 -6.309 4.018 -9.97 0.274 -2.205 1.459 -4.118 2.221 -6.166 2.082 -7.739 6.186 -15.12 6.12 -23.293 -3.323 -10.434 -6.12 -20.972 -9.349 -31.442 -0.368 -1.484 -2.038 -1.15 -3.172 -1.255 -5.658 -0.723 -11.306 -1.559 -16.968 -2.031 -4.423 -1.37 -8.89 -2.506 -13.382 -3.631 -3.9 -1.719 -8.024 -2.819 -11.949 -4.474 -2.55 -1.106 -4.392 1.296 -6.683 1.898 -4.07 2.899 -9.175 3.79 -13.946 4.894 -4.905 1.953 -10.33 0.713 -15.435 0.405 -4.029 -1.853 -7.181 -5.206 -11.414 -6.539 -2.47 -3.212 -6.38 -4.935 -8.57 -8.377 -2.258 -3.053 -6.49 -1.942 -9.722 -2.651 -3.297 -1.274 -7.032 -2.295 -9.108 -5.409 -1.394 -1.155 -1.4 -3.103 -0.97 -4.712 3.222 -5.145 7.909 -9.03 12.067 -13.367 2.12 -2.744 5.667 -3.824 8.975 -4.284 4.841 -1.23 9.642 1.464 13.267 4.474 2.425 1.474 3.88 4.313 6.709 5.154 4.93 1.778 10.234 1.225 15.384 1.478 3.271 0.85 6.687 0.015 9.965 0.806 6.052 0.543 12.242 -0.497 18.213 0.579 3.297 -1.04 6.814 0.06 10.13 -0.821 1.827 -0.264 3.671 -0.713 5.492 -0.23 2.276 -0.593 4.631 -0.995 6.992 -0.891 2.914 0.208 5.584 -1.364 8.517 -1.14 6.28 -2.396 13.174 -3.023 19.066 -6.42 3.268 -1.779 6.992 -3.06 9.509 -5.933 1.544 -1.634 3.784 -2.495 5.035 -4.427 1.021 -1.2 1.782 -3.337 3.701 -3.088 1.378 -0.353 1.485 1.266 2.046 2.106 1.972 -4.697 2.944 -9.717 3.61 -14.742 0.368 -2.514 -1.797 -5.313 -0.278 -7.575 1.893 -1.244 5.113 -2.056 6.679 0.094 0.657 1.336 -0.728 2.336 -1.289 3.393 -0.294 5.084 -0.638 10.364 -2.87 15.02 0.428 2.365 -2.435 4.83 -0.542 6.854 3.186 -1.062 5.862 -3.291 9.089 -4.338 7.92 -4.188 16.586 -6.673 24.554 -10.801 1.664 -0.807 4.029 -1.728 4.144 -3.846 -2.166 -0.45 -4.816 0.783 -6.539 -1.092 -0.189 -0.957 -0.034 -2.142 1.13 -2.312 3.056 -0.508 4.581 -4.158 3.66 -6.888 -1.395 -1.359 -3.969 -2.072 -3.784 -4.467 -0.215 -3.56 -1.848 -7.52 -5.239 -9.074 -2.202 0.119 -4.344 -0.991 -6.514 -0.315 -1.901 0.125 -4.311 0.713 -5.722 -0.962 0.149 -2.42 2.74 -4.303 5.08 -4.337 2.57 -0.025 5.19 -0.215 7.7 0.464 2.321 -0.672 2.417 -4.125 4.946 -4.367 9.364 3.452 15.346 13.786 13.88 23.607 -0.189 1.813 -1.174 3.735 -0.045 5.44 4.757 -2.945 5.373 -9.139 8.645 -13.344 0.896 -2.213 4.048 -2.18 5.15 -0.17 -0.079 2.729 -2.006 4.94 -2.097 7.619 2.544 -3.401 4.722 -7.077 7.749 -10.1 2.729 -3.68 5.718 -7.277 9.587 -9.802 8.207 -3.346 16.545 -6.356 24.788 -9.591 3.601 -1.723 7.252 -3.431 11.165 -4.323m1.026 6.067c-2.057 -0.238 -3.665 1.396 -5.652 1.46 -2.361 -0.26 -4.393 1.299 -5.952 2.899 -5.205 0.433 -9.881 3.352 -14.448 5.569 -2.365 -0.339 -4.318 0.965 -6.279 2.042 -1.155 0.767 -2.819 0.07 -3.74 1.246 -3.95 3.625 -7.232 7.928 -9.731 12.67 -0.673 0.842 -1.051 2.933 0.468 3.029 3.482 0.193 6.353 3.022 9.921 2.435 7.151 -4.945 13.682 -10.753 19.653 -17.062 -1.36 -0.95 -1.66 -3.854 0.427 -3.89 0.747 0.95 0.283 2.212 0.413 3.316 1.066 -0.179 1.802 -1.01 2.58 -1.683 2.495 -2.365 5.499 -4.078 8.034 -6.4 1.638 -1.534 3.766 -2.276 5.942 -2.66 0.004 -1.359 0.434 -3.57 -1.634 -2.969m3.974 0.957c-0.424 0.807 -0.828 1.638 -1.047 2.521 1.334 0.513 2.914 0.836 3.676 2.191 0.029 2.64 -3.263 2.017 -5.027 2.44 -0.07 0.791 -0.259 1.834 0.643 2.231 1.931 1.21 3.063 3.278 4.964 4.518 1.464 1.296 2.974 3.308 5.214 2.596 1.578 -1.575 3.312 -3.353 3.527 -5.693 -0.642 -2.67 -2.236 -4.965 -3.063 -7.57 -1.957 -1.713 -4.737 -1.968 -7.067 -3.008 -0.557 0.06 -1.544 -0.991 -1.823 -0.223m-82.4 11.186c-0.976 2.37 1.204 4.552 1.823 6.769 0.732 1.883 1.902 5.041 4.418 4.473 0.702 -3.5 -1.559 -6.434 -2.954 -9.427 -0.773 -0.951 -1.894 -2.557 -3.287 -1.815Zm95.844 9.33c-1.061 0.015 -0.23 1.493 0.26 1.812 2.944 2.332 4.262 5.982 6.609 8.815 7.46 9.87 14.079 20.345 21.476 30.266 1.589 2.212 -0.813 5.365 -0.613 7.013 3.327 -1.827 6.46 -4.163 9.821 -6.011 0.668 0.025 0.617 -1.366 -0.138 -1.077 -2.161 -0.887 -4.593 -0.034 -6.713 -0.697 -3.487 -3.765 -5.888 -8.398 -8.971 -12.487 -3.341 -3.69 -5.288 -8.332 -7.883 -12.531 -2.529 -3.616 -5.529 -6.913 -7.624 -10.823 -0.608 -1.29 -2.395 -1.132 -3.157 -2.302 -0.931 -0.782 -1.589 -2.484 -3.063 -1.982m38.853 44.315c-4.169 0.168 -6.664 3.9 -9.732 6.18 -0.089 2.937 -1.997 5.513 -1.597 8.51 -0.234 2.923 0.587 6.037 -0.538 8.815 1.923 1.504 1.976 4.021 2.51 6.191 1.006 4.307 3.854 7.749 6.235 11.35 5.069 6.409 14.035 8.8 21.739 6.405 2.804 -1.585 4.801 -4.178 7.118 -6.356 3.724 -4.486 3.609 -10.608 3.152 -16.092 -2.355 -4.835 -4.512 -10.15 -8.97 -13.471 -1.946 -1.424 -2.58 -4.074 -4.791 -5.2 -4.571 -2.973 -9.412 -6.642 -15.124 -6.334M42.038 80.565c-1.017 0.557 -0.275 2.187 0.542 2.719 1.474 1.07 1.31 3.218 0.026 4.367 -2.306 0.702 -3.874 -1.894 -6.165 -1.46 -1.619 0.145 -3.308 -1.146 -4.797 -0.06 -2.057 1.216 -4.411 2.117 -5.907 4.07 -0.464 2.774 2.22 5.186 4.693 5.841 2.878 0.06 5.637 1.1 8.51 1.092 4.427 -0.902 8.964 -0.205 13.442 -0.573 1.753 -0.015 4.648 1.215 3.676 3.408 -2.689 2.106 -6.141 1.678 -9.317 1.623 -1.11 -0.174 -2.47 0.866 -2.061 2.061 1.236 1.738 3.171 2.785 4.782 4.14 1.963 0.717 4.262 0.657 6.026 1.938 8.153 5.762 19.538 4.716 27.785 -0.383 1.15 -0.632 1.055 -2.351 -0.215 -2.78 -4.088 -1.938 -7.898 -4.389 -11.819 -6.635 -3.141 -2.625 -7.043 -4.114 -10.136 -6.803 -2.146 -2.09 -5.105 -3.063 -7.217 -5.205 -3.187 -2.71 -6.286 -5.558 -9.97 -7.596a2.258 2.258 0 0 0 -1.878 0.236Zm132.544 67.861c-3.814 -0.489 -7.013 1.842 -10.449 3.004 -3.037 0.717 -5.707 2.41 -8.302 4.058 -1.742 2.997 -1.455 6.773 -1.834 10.13 -1.017 2.684 -2.41 5.25 -2.825 8.132 -1.34 3.467 -2.799 6.903 -3.999 10.43 -1.136 3.66 -1.385 7.694 -3.471 10.997 -1.968 3.501 -2.176 7.92 -5.05 10.878 -1.519 2.142 -2.132 4.742 -3.308 7.063 -3.725 8.213 -7.939 16.185 -12.321 24.056 -1.733 4.835 -4.496 9.164 -6.758 13.72 -7.623 9.557 -15.792 18.732 -22.167 29.206 -3.605 4.099 -5.284 9.417 -8.626 13.682 -1.708 3.246 -4.462 5.878 -5.588 9.434 -2.082 2.132 -3.256 4.927 -5.258 7.126 -2.855 3.212 -4.184 7.381 -6.424 10.991 -1.768 4.72 -6.16 7.92 -7.98 12.595 -0.656 1.615 1.107 2.372 2.251 2.889 3.208 2.629 6.997 4.418 10.709 6.211 2.848 0.096 5.817 1.177 8.55 -0.149 2.273 -0.767 1.839 -4.08 4.034 -4.911 2.302 -0.962 2.64 -3.691 3.999 -5.484 2.076 -2.31 3.212 -5.244 4.403 -8.064 1.185 -2.938 3.831 -5.027 4.797 -8.079 1.389 -4.333 5.124 -7.679 5.748 -12.268 6.241 -5.235 7.738 -14.113 13.735 -19.627 5.703 -5.837 9.985 -12.855 15.543 -18.811 2.974 -5.03 6.869 -9.402 10.374 -14.035 1.913 -4.069 5.718 -6.839 7.367 -11.065 4.307 -5.833 7.913 -12.172 10.448 -18.96 0.505 -5.328 -1.17 -10.47 -1.971 -15.679 -0.234 -3.008 -2.793 -6.197 -0.802 -9.079 2.899 -1.106 5.762 1.255 5.841 4.203 2.346 9.154 3.761 18.517 5.265 27.841 -0.215 4.418 0.667 8.86 1.155 13.267 0.01 4.741 1.08 9.398 1.444 14.114 -0.17 6.011 1.095 11.927 1.081 17.934 1.733 9.757 2.52 19.847 6.394 29.081 3.178 7.934 5.996 16.021 8.866 24.056 1.597 4.463 3.959 8.617 5.243 13.184 1.196 3.242 3.755 5.737 5.05 8.93 1.215 2.733 1.887 5.767 3.861 8.102 1.738 2.181 2.544 5.016 4.448 7.043 4.222 0.071 8.117 -2.127 11.489 -4.428 2.769 -0.22 4.701 -3.506 3.316 -5.952 -1.404 -2.825 -0.672 -6.282 -2.514 -8.949 -1.893 -5.34 -4.169 -10.553 -5.941 -15.958 -3.323 -7.267 -5.842 -14.857 -7.879 -22.568 -1.021 -3.371 -2.84 -6.453 -3.914 -9.806 0.025 -2.167 -0.947 -4.178 -2.281 -5.832 -2.082 -1.166 -5.135 -0.807 -6.694 -2.764 -0.398 -4.169 1.315 -8.168 1.997 -12.186 1.266 -8.981 2.859 -17.905 4.348 -26.856 0.364 -2.699 -0.278 -5.494 0.587 -8.123 0.922 -3.368 0.105 -6.918 0.898 -10.304 0.925 -6.78 1.719 -13.557 1.619 -20.421 0.976 -5.752 0.215 -11.63 0.613 -17.422 1.225 -4.96 -1.022 -9.981 0.274 -14.945 -0.264 -4.642 -0.676 -9.294 -0.976 -13.94 -0.787 -4.054 0.319 -8.711 -2.462 -12.171 -8.332 -2.6 -17.287 -4.225 -25.953 -3.521ZM72.432 349.963c-2.405 0.857 -4.545 2.346 -6.353 4.133 -5.465 4.89 -11.663 9.019 -16.434 14.652 -0.434 1.719 1.718 1.363 2.74 1.378 2.465 0.334 4.322 -1.538 6.549 -2.18 6.575 -2.123 13.267 -4.293 19.21 -7.745 1.46 -2.317 1.842 -5.205 1.006 -7.809 -0.178 -0.946 -0.957 -1.942 -2.016 -1.778 -1.693 0.274 -3.044 -1.719 -4.697 -0.653m143.508 19.125c-1.3 0.353 -2.6 0.706 -3.895 1.081 -1.689 1.31 -0.972 3.939 -2.529 5.384 -3.951 3.76 -7.79 7.76 -10.683 12.401 5.005 -0.085 9.796 -1.789 14.597 -3.067 2.818 -1.523 4.956 -4.025 7.511 -5.922 1.584 -1.196 2.265 -3.621 0.925 -5.246 -1.508 -1.997 -2.774 -5.603 -5.926 -4.631ZM186.987 23.774c1.285 -0.52 2.9 -0.538 4.095 0.238 0.413 2.206 -0.646 4.288 -2.086 5.882 -1.638 0.248 -3.134 -0.587 -4.289 -1.66 -0.698 -1.942 0.457 -3.76 2.28 -4.462m-3.965 7.087c1.575 -0.063 3.512 -0.389 4.567 1.106 0.164 1.36 0.464 3.093 -0.931 3.925 -2.023 1.31 -5.878 0.608 -5.997 -2.306 0.513 -1.046 1.166 -2.416 2.361 -2.725Z" stroke-width="1"></path></g></svg>