<svg xmlns="http://www.w3.org/2000/svg" fill="none" viewBox="0 0 400 400" height="400" width="400"><g><path fill="#000000" d="M150.972 5.069c2.987 -0.268 6.089 0.235 8.724 1.697 2.774 -0.114 5.515 1.212 7.093 3.515 1.648 2.372 4.192 3.992 5.586 6.566 0.213 1.34 -0.132 2.71 0.114 4.045 0.527 1.378 1.71 2.684 1.204 4.262 -0.527 1.585 0.086 3.32 -0.62 4.861 -0.449 1.1 -0.558 2.29 -0.776 3.45 -2.204 5.025 -7.288 7.634 -11.629 10.525 -0.213 1.649 0.756 4.244 -1.385 4.861 -2.176 0.548 -2.788 -1.98 -4.124 -3.073 -1.688 -0.89 -3.699 -0.153 -5.427 -0.975 -1.734 -0.916 -3.863 -0.115 -5.444 -1.403 -1.72 -1.38 -3.789 -2.157 -5.729 -3.145 -1.695 -1.367 -2.429 -3.489 -3.558 -5.277 -1.147 -1.684 -1.402 -3.789 -1.448 -5.775 -0.538 -3.24 -0.61 -6.894 1.249 -9.75 1.674 -2.798 2.535 -6.242 5.259 -8.285 2.094 -1.56 3.568 -3.774 5.604 -5.388 1.812 0.096 3.6 -0.042 5.305 -0.711m-0.722 6.024c-2.421 0.345 -4.757 1.4 -6.726 2.835 -2.489 2.47 -2.852 6.146 -4.236 9.2 -0.275 2.82 0.524 5.623 0.886 8.376 1.908 2.269 2.297 6.36 5.793 6.798 1.142 1.129 2.71 0.836 4.13 1.1 2.321 1.436 5.145 0.847 7.733 0.876 3.193 -1.023 6.17 -3.582 6.862 -6.98 0.784 -2.071 2.022 -4.077 1.997 -6.362 -0.581 -4.906 -2.061 -10.426 -6.601 -13.126 -3.001 -1.655 -6.307 -3.218 -9.838 -2.717Zm74.06 9.248c2.179 -0.784 2.357 1.674 2.905 3.144 0.716 2.037 0.081 4.265 0.915 6.276 1.773 5.506 3.311 11.075 5.28 16.508 2.172 2.443 3.817 5.334 5.081 8.343 4.379 9.453 9.162 18.857 15.881 26.89 1.57 2.308 2.878 4.786 4.158 7.26 1.168 2.233 3.818 3.087 5.056 5.256 0.753 1.264 1.934 2.179 2.746 3.393 0.502 2.033 -0.552 4.006 -0.296 6.05 -0.644 5.558 -0.295 11.206 -0.075 16.783 -0.662 2.941 0.182 5.978 -0.581 8.905 0.891 3.152 -0.423 6.417 0.278 9.557 0.138 3.694 -0.01 7.39 0.071 11.081 0.103 5.492 -1.727 10.956 -0.755 16.423 -0.128 9.318 -0.036 18.641 -0.021 27.959 1.238 9.251 0.506 18.626 0.726 27.942 -0.039 2.507 0.922 4.916 0.727 7.438 -0.156 5.591 0.359 11.146 0.296 16.732 -0.026 5.473 0.417 10.985 -0.553 16.404 -0.291 7.841 -1.135 15.636 -1.692 23.462 -0.452 5.487 -0.075 11.106 -1.879 16.401 -0.097 4.815 -0.377 9.821 -2.973 14.037 -0.587 1.046 -1.869 -0.495 -2.614 0.221 -1.075 0.677 -1.894 2.022 -3.29 1.959 -1.321 -0.036 -2.24 1.183 -3.486 1.391 -1.859 0.361 -3.344 -1.074 -5.039 -1.552 -2.525 -0.761 -3.076 -3.664 -3.862 -5.825 -0.541 -0.911 0.217 -1.734 0.434 -2.595 0.662 -3.455 0.412 -6.99 0.472 -10.484 0.229 -3.044 -1.214 -5.889 -1.154 -8.919 -0.854 -5.326 -2.411 -10.533 -2.446 -15.924 -1.331 -0.241 -1.331 1.392 -1.713 2.276 -0.246 2.072 -0.666 4.099 -1.477 6.032 -0.854 6.035 -2.162 12.068 -3.81 17.951 -0.862 5.601 -1.085 11.249 -1.609 16.874 -1.147 2.916 -4.141 4.306 -6.619 5.89 -2.767 0.957 -5.405 -1.101 -8.19 -0.919 -1.085 -0.662 -1.731 -1.874 -2.902 -2.411 -1.204 -0.478 -1.962 -1.77 -1.873 -3.048 -0.036 -3.932 0.573 -7.815 0.89 -11.726 0.734 -3.144 1.139 -6.341 0.968 -9.572 -1.731 0.099 -3.115 1.692 -4.939 1.171 -0.345 -0.463 -0.805 -0.955 -0.766 -1.568 -0.078 -3.454 0.118 -6.914 -0.103 -10.361 -0.683 -2.962 0.306 -5.926 0.402 -8.892 -0.68 -5.918 -0.111 -11.914 0.314 -17.801 -0.609 -2.691 -0.021 -5.487 -0.54 -8.189 -0.036 -5.705 -0.966 -11.351 -0.78 -17.063 -0.716 -3.162 -0.277 -6.43 -0.355 -9.646 -0.122 -4.041 0.285 -8.35 2.666 -11.761 1.378 -2.424 2.04 -5.783 4.932 -6.891 1.204 -0.42 2.079 0.548 2.673 1.457 0.449 2.357 -1.09 4.379 -2.05 6.387 -0.655 1.571 -1.467 3.073 -2.126 4.641 -0.257 1.567 -0.114 3.19 0.163 4.75 0.224 6.045 0.722 12.085 0.395 18.149 -0.413 1.873 -0.256 3.81 0.053 5.686 0.117 12.943 0.007 25.887 -0.021 38.834 -0.392 1.352 -0.11 2.72 0.163 4.066 2.422 -0.139 4.821 -0.584 7.196 -1.035 2.357 0.54 4.793 0.184 7.15 0.687 2.087 -0.42 2.407 -3.034 2.23 -4.825 0.786 -4.397 2.055 -8.728 3.654 -12.918 2.396 -4.854 3.273 -10.347 6.097 -14.998 1.142 -0.246 2.411 -0.111 2.567 1.282 0.199 2.468 1.93 4.558 1.666 7.097 1.869 6.538 1.064 13.705 3.966 19.993 1.901 0.997 3.806 -0.519 5.779 -0.288 1.313 -0.205 2.463 0.463 3.688 0.763 1.231 0.278 2.083 -0.908 2.467 -1.916 0.213 -2.792 0.021 -5.586 0.103 -8.375 0.699 -2.162 0.086 -4.447 0.512 -6.645 0.328 -2.367 0.709 -4.732 0.82 -7.111 -0.711 -4.159 -0.018 -8.347 0.395 -12.467 -0.719 -2.848 0.498 -5.705 -0.281 -8.535 -0.031 -7.254 -0.581 -14.475 -0.441 -21.732 -0.691 -3.525 0.049 -7.143 -0.491 -10.686 -0.324 -3.001 -0.802 -5.996 -0.53 -9.03 0.249 -1.069 -0.626 -1.783 -1.267 -2.489 -2.564 -0.381 -5.11 0.252 -7.514 1.111 -1.428 0.57 -3.013 -0.032 -4.454 0.503 -1.742 0.257 -3.297 1.467 -5.106 1.142 -2.015 -0.573 -4.142 -0.309 -6.167 0.036 -3.027 -0.145 -5.757 1.745 -8.794 1.397 -4.914 -0.849 -9.892 0.111 -14.824 0.049 -1.726 0.2 -3.172 -1.389 -3.322 -3.016 -0.773 -4.849 -1.023 -9.767 -1.862 -14.621 -0.306 -1.726 0.182 -3.543 -0.477 -5.209 -1.015 -3.198 -1.446 -6.541 -1.425 -9.881 -1.253 -3.372 -1.42 -6.99 -1.428 -10.562 -0.641 -3.194 -1.204 -6.391 -1.977 -9.564 -0.28 -0.823 -0.976 -1.396 -1.57 -1.991 -2.247 -2.043 -3.977 -4.565 -6.058 -6.762 -1.933 -1.762 -3.421 -3.932 -5.134 -5.892 -2.995 -2.941 -5.876 -6.011 -9.062 -8.739 -3.408 -4.696 -8.923 -8.264 -9.927 -14.346 -1.233 -3.307 -2.332 -6.663 -3.533 -9.977 -0.558 -3.938 -2.666 -7.41 -3.39 -11.317 -2.19 -5.025 -3.507 -10.393 -5.91 -15.337 -0.245 -1.726 0.129 -3.631 -0.841 -5.202 -0.911 -1.399 -1.239 -3.052 -1.82 -4.594 -1.684 -2.855 -5.341 -3.311 -7.389 -5.78 -2.24 -1.751 -5.084 -3.115 -6.224 -5.904 -0.57 -1 0.566 -1.872 1.36 -2.282 1.524 -0.195 2.796 0.823 4.024 1.563 2.193 1.64 5.059 2.076 7.171 3.852 2.19 1.976 4.836 3.465 6.663 5.833 1.075 2.025 1.68 4.24 2.043 6.494 1.228 3.115 1.848 6.416 2.891 9.586 2.251 4.565 3.112 9.606 4.846 14.36 0.837 2.425 1.449 5.285 3.736 6.79 2.756 -0.879 3.2 -4.136 3.091 -6.618 -0.948 -4.465 -3.699 -8.36 -4.345 -12.915 -1.371 -5.306 -4.679 -10.266 -4.252 -15.924 -0.036 -1.927 0.987 -3.629 1.527 -5.423 0.559 -1.498 0.014 -3.159 0.637 -4.643 0.776 -2.28 0.755 -5.002 2.634 -6.748 1.226 -1.698 4.088 -0.847 4.836 0.864 0.275 2.585 -1.347 4.846 -1.681 7.35 -0.418 3.764 -2.739 7.161 -2.098 11.042 0.958 3.43 1.641 6.975 3.365 10.13 0.758 2.895 2.439 5.452 3.034 8.4 0.62 3.13 2.3 5.897 3.193 8.945 0.452 1.894 1.816 3.35 2.442 5.173 0.431 1.317 1.864 1.83 2.661 2.859 0.512 1.004 1.046 2.011 1.845 2.831 3.375 3.782 5.347 8.806 9.624 11.755 1.329 0.862 1.713 2.513 2.832 3.571 0.654 0.649 1.502 1.08 2.104 1.788 2.372 2.967 5.381 5.324 8.244 7.795 1.934 2.279 4.724 3.528 6.844 5.598 0.74 0.712 1.859 0.438 2.788 0.446 0.099 -2.627 -1.072 -5.095 -1.142 -7.712 -1.033 -1.965 -1.984 -3.971 -2.475 -6.149 -1.363 -2.938 -2.047 -6.284 -1.352 -9.476 -0.392 -5.462 1.944 -10.58 4.678 -15.15 1.873 -2.316 5.077 -2.604 7.392 -4.302 3.974 -2.087 7.945 0.866 11.797 1.474 -0.044 -2.403 -1.991 -4.176 -3.081 -6.182 -2.336 -3.743 -2.577 -8.379 -5.02 -12.06 -1.816 -3.571 -3.387 -7.27 -5.22 -10.831 -2.902 -3.732 -6.58 -6.827 -10.497 -9.443 -0.804 -0.695 -2.022 -1.389 -1.845 -2.621 0.185 -1.493 -1.905 -2.938 -0.548 -4.298 1.716 -1.578 4.244 -0.548 6.339 -0.894 -0.698 -4.152 -2.111 -8.332 -1.773 -12.637 0.228 -1.454 1.648 -2.368 3.062 -1.916 1.126 1.054 0.628 2.73 1.044 4.07 0.192 3.896 1.972 7.52 1.941 11.43 1.528 5.747 4.433 10.967 6.862 16.358 2.058 3.151 4.849 5.858 6.289 9.383 0.844 0.84 0.983 2.692 2.411 2.596 0.467 -3.315 -0.968 -6.552 -2.713 -9.284 -0.615 -2.65 -2.066 -4.981 -2.866 -7.566 -0.711 -2.308 -2.297 -4.198 -3.218 -6.41 -1.125 -3.75 -3.312 -7.072 -5.018 -10.553 0.211 -1.784 -1.168 -3.177 -1.139 -4.918 -0.104 -1.755 -1.083 -3.273 -1.674 -4.882 -0.691 -1.646 -0.862 -3.44 -1.498 -5.099 -0.512 -1.43 -1.093 -3.083 -0.481 -4.55 0.694 -0.794 1.407 -1.958 2.557 -2.001m-7.581 30.07c-0.416 0.107 -0.278 0.87 0.078 0.958 1.414 0.898 3.055 1.332 4.547 2.08 1.752 0.288 1.375 -2.661 -0.093 -2.835 -1.471 -0.317 -3.069 -0.527 -4.532 -0.203Zm10.782 46.493c-3.063 1.884 -4.782 5.412 -5.384 8.913 1.194 0.067 2.645 -0.182 3.518 0.846 0.851 0.763 0.534 2.033 0.469 3.042 -1.189 2.033 -3.771 0.979 -5.287 -0.049 -0.797 1.103 -0.545 3.005 0.41 4.023 1.56 -0.278 3.159 -0.62 4.75 -0.314 0.654 0.662 1.599 1.57 1.093 2.582 -0.802 2.022 -3.507 2.056 -4.54 3.889 0.69 3.478 4.853 3.073 6.826 5.23 0.655 2.154 -2.406 1.103 -3.008 2.684 -1.318 2.429 0.081 5.252 0.156 7.831 -0.122 1.624 1.42 3.205 3.07 2.585 5.609 -1.998 9.718 -6.979 11.978 -12.342 1.517 -2.318 2.111 -5.049 3.261 -7.538 -2.346 0.496 -5.736 -1.534 -5.116 -4.166 1.028 -0.687 2.343 -0.363 3.421 -0.929 1.407 -0.309 2.058 -1.702 2.585 -2.891 -0.36 -1.61 -0.451 -3.309 -1.147 -4.821 -2.172 -0.143 -4.503 0.285 -6.476 -0.89 -1.3 -1.137 -1.306 -2.97 -2.048 -4.412 -1.214 -1.563 -2.824 -2.845 -4.672 -3.575 -1.256 0.41 -2.57 0.231 -3.859 0.303m23.505 192.663c-1.492 0.52 -3.608 -0.103 -4.54 1.414 0.039 3.733 0.545 7.46 0.423 11.213 0.979 4.031 -0.498 8.098 -0.042 12.143 1.493 0.62 3.198 0.677 4.768 0.402 1.592 -1.101 3.45 -2.315 3.751 -4.394 0.897 -3.13 1.3 -6.357 1.72 -9.572 0.182 -3.347 0.991 -6.663 0.706 -10.027 -2.009 -1.272 -4.483 -1.357 -6.783 -1.179m-30.623 4.231c-0.826 -0.138 -1.178 0.747 -1.402 1.381 -0.527 1.57 -1.015 3.201 -0.983 4.875 0.348 4.724 -2.191 9.168 -1.749 13.901 0.734 1.688 1.481 3.504 2.995 4.654 2.733 0.758 6.17 -0.965 6.556 -3.966 0.103 -4.387 -0.086 -8.778 -0.047 -13.168 0.168 -2.282 1.108 -4.508 0.709 -6.823 -1.727 -1.033 -4.078 -0.833 -6.079 -0.854Zm8.942 -196.206c0.975 -0.808 2.143 0.057 3.037 0.558 1.388 0.844 2.923 2.212 2.691 4.006 -0.776 1.313 -2.556 0.848 -3.802 0.701 -1.446 -0.922 -3.159 -0.418 -4.753 -0.62 -1.239 -0.719 -1.35 -2.518 -0.192 -3.387 1.036 -0.353 2.125 -0.6 3.019 -1.261m11.312 219.707c0.957 -0.154 1.339 0.939 1.762 1.591 0.979 1.588 1.872 3.348 3.44 4.447 2.826 0.117 6.231 0.078 8.067 -2.453 0.779 -1.421 2.611 -1.286 3.575 -2.49 0.755 -1.028 2.517 -1.04 3.052 0.208 0.527 1.321 -0.231 2.727 -0.665 3.987 -0.628 1.279 0.007 2.767 -0.584 4.062 -0.559 1.709 -2.126 2.785 -2.959 4.335 2.385 0.989 0.387 3.493 0.449 5.258 0.171 1.67 -1.078 2.916 -1.688 4.356 -1.193 3.254 -1.466 6.73 -2.475 10.037 -0.236 4.942 -2.155 9.689 -1.905 14.702 -0.631 3.019 -0.026 6.125 -0.67 9.137 0.597 3.628 0.081 7.363 0.467 10.999 1.488 3.294 -0.135 7.634 -3.504 9.012 -2.881 0.709 -5.871 0.388 -8.806 0.478 -1.602 0.221 -2.899 -1.168 -3.461 -2.528 -1.78 -5.677 -0.916 -11.823 -1.033 -17.573 -1.51 -2.486 -2.489 -5.37 -2.556 -8.279 0.758 -1.976 2.681 -3.13 3.67 -4.953 0.844 -1.492 1.752 -2.962 2.3 -4.594 0.424 -2.538 -1.513 -5.084 -0.132 -7.537 0.285 -2.492 0.67 -5.067 0.195 -7.564 -0.199 -2.172 0.428 -4.412 -0.298 -6.527 -0.139 -1.308 -0.31 -3.144 1.028 -3.839 2.406 -0.605 3.639 2.061 5.637 2.824 2.653 1.588 5.75 0.366 8.542 -0.078 0.574 -0.377 1.845 -1.207 0.712 -1.716 -1.617 0.101 -3.133 0.929 -4.779 0.695 -2.068 -0.356 -4.052 -1.09 -6.12 -1.459 -2.977 -1.194 -4.109 -4.761 -3.603 -7.73 0.978 -0.325 1.788 0.296 2.531 0.843 0.156 -1.679 -1.314 -2.962 -1.186 -4.638 0.003 -1.051 -0.413 -2.739 0.994 -3.013m0.662 7.848 -0.605 -0.067c1.884 1.908 3.999 4.443 6.997 3.988 2.422 -0.373 5.157 -0.609 6.901 -2.559 0.003 -0.371 0.548 -1.802 -0.366 -0.812 -1.898 1.339 -4.223 2.128 -6.562 1.902 -2.172 -0.67 -4.213 -1.766 -6.364 -2.45m-0.249 36.639c-0.937 0.346 -1.339 1.61 -1.827 2.464 -0.569 1.495 -2.009 2.525 -2.383 4.106 -0.267 1.308 0.663 2.396 0.994 3.603 0.182 1.428 -0.114 2.899 0.296 4.309 0.423 3.194 -0.335 6.494 0.553 9.639 0.256 0.922 0.231 1.895 0.352 2.842 0.984 2.287 4.771 2.542 6.228 0.659 0.306 -2.382 -0.247 -4.747 -0.569 -7.093 -0.133 -4.273 -0.032 -8.55 -0.014 -12.823 -0.078 -2.032 0.652 -4.072 0.228 -6.084 -1.256 -0.587 -2.514 -1.296 -3.857 -1.62m-29.582 -39.518c2.186 -0.181 2.853 2.582 4.6 3.44 2.136 0.722 4.288 -0.328 6.334 -0.87 2.207 -0.078 4.005 -1.891 6.266 -1.463 0.234 1.03 -0.257 1.915 -0.994 2.6 -2.09 2.421 -5.308 3.806 -8.477 3.831 -2.077 0.207 -3.796 -1.5 -5.893 -1.103 -0.68 2.229 1.563 3.478 3.372 3.913 2.219 -0.096 4.6 -0.178 6.473 -1.52 1.592 -0.556 2.977 -1.965 4.768 -1.674 0.455 1.656 -0.666 3.211 -2.083 3.948 -3.387 1.965 -7.414 2.77 -11.306 2.414 -1.137 -0.527 -2.29 -1.054 -3.359 -1.702 -1.175 -1.222 -1.684 -3.042 -1.391 -4.708 0.292 -0.933 1.905 -1.453 1.282 -2.567 -0.688 -1.35 -1.072 -3.733 0.405 -4.54m-1.765 13.549c2.175 -0.364 3.924 1.25 5.918 1.794 2.372 -0.506 4.867 -0.132 7.179 -1.033 1.385 -0.249 3.307 -1.56 4.443 -0.27 -0.199 1.378 -1.007 2.609 -1.108 4.009 -0.106 3.149 -0.95 6.217 -1.118 9.362 -0.637 1.973 0.039 4.102 -0.698 6.056 -0.595 1.638 -0.032 3.432 -0.626 5.07 -0.641 1.884 -0.252 3.891 -0.473 5.833 -0.904 4.241 0.278 8.555 0.007 12.825 -0.594 2.813 0.068 5.721 -0.562 8.534 0.659 2.176 0.249 5.031 -2.048 6.051 -1.168 0.944 -2.614 0.349 -3.917 0.199 -2.492 0.716 -5.323 1.183 -7.792 0.171 -2.338 -2.097 -1.043 -5.725 -1.894 -8.428 -1.189 -2.375 -0.67 -5.085 -1.275 -7.598 -0.298 -3.603 -1.777 -7.065 -1.588 -10.711 0.662 -1.827 2.638 -2.777 3.258 -4.639 0.509 -1.545 1.463 -2.866 2.219 -4.288 0.794 -4.119 -0.841 -8.3 0.124 -12.409 0.158 -1.317 -0.495 -2.56 -0.36 -3.875 0.285 -2.222 -0.802 -4.365 -0.267 -6.584l0.576 -0.071m4.999 25.67c-1.3 1.093 -1.481 2.946 -2.382 4.327 -0.613 1.467 -2.066 2.671 -1.877 4.384 0.14 4.888 0.909 9.72 1.194 14.599 0.342 1.628 0.223 3.489 1.424 4.8 1.677 0.195 4.441 -0.096 4.473 -2.287 -0.296 -3.6 0.761 -7.104 0.452 -10.704 0.62 -4.955 1.118 -10.031 0.22 -14.994 -0.932 -0.787 -2.478 -0.634 -3.504 -0.125Z" stroke-width="1"></path></g></svg>