<svg xmlns="http://www.w3.org/2000/svg" xmlns:xlink="http://www.w3.org/1999/xlink" version="1.1" width="1000pt" height="699pt" viewBox="0 0 1000 699">
<defs>
<clipPath id="clip_0">
<path transform="matrix(1,0,0,-1,0,699)" d="M200 0H800V699H200Z"/>
</clipPath>
<path id="font_1_3" d="M.47099305 .024002076 .4889984 .026992798C.509669 .029668173 .52533468 .034835817 .5359955 .042495729 .54666647 .050165815 .55200198 .063334148 .55200198 .08200073V.34599305H.21000672V.08200073C.21000672 .063334148 .21533711 .050165815 .22599793 .042495729 .2366689 .034835817 .2523346 .029668173 .272995 .026992798L.29100038 .024002076V0H.033996583V.024002076L.052001954 .026992798C.07266235 .029668173 .08832804 .034835817 .09899902 .042495729 .109670009 .050165815 .11500549 .063334148 .11500549 .08200073V.6179962C.11500549 .6366628 .10950216 .65016177 .09849548 .65849307 .087498988 .66683456 .07200114 .67200216 .052001954 .673996L.033996583 .6759949V.69999697H.29100038V.6759949L.272995 .673996C.25299583 .67200216 .23749797 .66683456 .22650147 .65849307 .21550496 .65016177 .21000672 .6366628 .21000672 .6179962V.38000489H.55200198V.6179962C.55200198 .6366628 .5464986 .65016177 .53549197 .65849307 .5244954 .66683456 .5089976 .67200216 .4889984 .673996L.47099305 .6759949V.69999697H.7279968V.6759949L.7100067 .673996C.6899974 .67200216 .67449447 .66683456 .6634979 .65849307 .6525014 .65016177 .6470032 .6366628 .6470032 .6179962V.08200073C.6470032 .063334148 .65233358 .050165815 .6629944 .042495729 .67366537 .034835817 .6893361 .029668173 .7100067 .026992798L.7279968 .024002076V0H.47099305V.024002076Z"/>
<path id="font_1_11" d="M.2440033-.011993408C.20333354-.011993408 .16699727-.0018310547 .1349945 .018493653 .103001918 .038828535 .07800293 .067326869 .05999756 .10398865 .04200236 .1406606 .03300476 .18299866 .03300476 .23100281 .03300476 .28300477 .043004354 .32883708 .06300354 .36849977 .083002727 .40816245 .109166469 .43899537 .14149475 .46099855 .1738332 .4830017 .20800273 .4940033 .2440033 .4940033 .2833303 .4940033 .31699119 .48516847 .34498597 .46749879 .37299095 .4498291 .39415995 .426829 .40849305 .39849855 .42282615 .37016807 .42999269 .34000144 .42999269 .30799867 .42999269 .29799906 .42966209 .28966777 .42900086 .28300477H.11399841V.28199769C.11399841 .20866394 .1299998 .15399678 .16200257 .117996219 .19400533 .08199564 .23400371 .06399536 .28199769 .06399536 .31133525 .06399536 .33700053 .07032776 .35899354 .08299255 .3809967 .09566752 .4019979 .11567179 .42199708 .14300537L.43800355 .1329956C.41667176 .08433024 .38917033 .047999067 .35549928 .024002076 .32182823 .000005086263 .28466288-.011993408 .2440033-.011993408M.34100343 .31500245C.33833824 .3610026 .32800294 .39750163 .30999757 .4244995 .29200236 .4514974 .26733399 .46499635 .23599243 .46499635 .20533245 .46499635 .17883301 .45166017 .15649414 .4249878 .13416545 .3983256 .120666507 .36166383 .115997318 .31500245H.34100343Z"/>
<path id="font_1_17" d="M.024002076 .022003174 .042007448 .024002076C.059331258 .02599589 .07132467 .03082784 .07798767 .038497926 .08466085 .04616801 .08799744 .05966695 .08799744 .07899475V.6150055C.08799744 .6343333 .08383179 .647995 .07550049 .6559906 .06716919 .6639964 .05000305 .6706645 .024002076 .6759949V.69299319L.17100525 .7369995H.17799378V.07899475C.17799378 .05966695 .18132527 .04616801 .18798828 .038497926 .19466146 .03082784 .20666504 .02599589 .22399903 .024002076L.2420044 .022003174V0H.024002076V.022003174Z"/>
<path id="font_1_20" d="M.27000428-.011993408C.22800191-.011993408 .1888326-.0014953613 .15249634 .019500733 .11617025 .040496828 .08717346 .07015991 .06550598 .10848999 .0438385 .14683025 .03300476 .19033306 .03300476 .23899842 .03300476 .2876638 .0438385 .3314972 .06550598 .37049867 .08717346 .40950013 .11617025 .4398346 .15249634 .46150209 .1888326 .48316957 .22800191 .4940033 .27000428 .4940033 .31199647 .4940033 .35099284 .48350016 .3869934 .4624939 .422994 .4414978 .451828 .41182963 .47349549 .37348939 .49516297 .3351593 .5059967 .2916616 .5059967 .24299622 .5059967 .19433086 .49516297 .15049744 .47349549 .11149597 .451828 .07249451 .422994 .042160036 .3869934 .020492554 .35099284-.0011647543 .31199647-.011993408 .27000428-.011993408M.1329956 .2610016C.1329956 .21899922 .1386617 .17949932 .1499939 .14250183 .16133626 .10550436 .1778361 .07550558 .19949341 .052505495 .22116089 .029505412 .2466634 .018005372 .27600099 .018005372 .31733195 .018005372 .34932963 .036834718 .37199403 .07449341 .39466859 .11216227 .40600587 .16133118 .40600587 .22200012 .40600587 .2673289 .4001719 .3083242 .38850404 .34498597 .37683616 .38165794 .36016847 .4106598 .33850099 .43199159 .3168335 .45333354 .29200236 .46400453 .26400758 .46400453 .2220052 .46400453 .18966675 .44533793 .16699219 .40800477 .1443278 .3706716 .1329956 .32167054 .1329956 .2610016Z"/>
<path id="font_1_29" d="M.042007448-.11000061C.06666565-.10533142 .0858256-.09649658 .099487308-.083496097 .11315918-.070495609 .11999512-.05532837 .11999512-.037994386 .11999512-.029327393 .11732992-.021993002 .11199951-.015991211 .106669109-.009999593 .09866842-.0036671956 .08799744 .0030059815 .07533264 .011001587 .06566366 .018997193 .05899048 .026992798 .052327474 .034998578 .04899597 .045669557 .04899597 .059005739 .04899597 .073664348 .054662069 .08632914 .06599426 .09700012 .077326457 .107671108 .09099325 .11300659 .10699463 .11300659 .1289978 .11300659 .14633179 .104670207 .15899658 .08799744 .17166138 .07133484 .17799378 .05000305 .17799378 .024002076 .17799378-.015335083 .16615804-.050501508 .14248657-.08149719 .11882528-.11250305 .08533224-.1303355 .042007448-.1349945V-.11000061Z"/>
<path id="font_1_1" d="M0 0Z"/>
<path id="font_1_5" d="M.19999695 .024002076 .21800232 .026992798C.23866272 .029668173 .2543284 .034835817 .2649994 .042495729 .27567039 .050165815 .28100587 .063334148 .28100587 .08200073V.66700747H.2250061C.18833415 .66700747 .15916443 .6621704 .13749695 .65249636 .11582947 .64283248 .09866333 .6276652 .085998538 .6069946 .07333374 .5863342 .062332155 .5580037 .052993776 .5220032H.027999878L.041000368 .69999697H.6170044L.6300049 .5220032H.6049957C.59566757 .5580037 .58466598 .5863342 .57199099 .6069946 .5593262 .6276652 .54216006 .64283248 .52049258 .65249636 .49883525 .6621704 .46967063 .66700747 .43299867 .66700747H.37600709V.08200073C.37600709 .063334148 .3813375 .050165815 .3919983 .042495729 .40266929 .034835817 .41833497 .029668173 .43899537 .026992798L.45700074 .024002076V0H.19999695V.024002076Z"/>
<path id="font_1_7" d="M.3880005-.005996704C.3640035-.005996704 .34617106 .00083414718 .33450318 .01449585 .3228353 .028167725 .31599937 .045669557 .31399537 .06700134 .29866538 .04499817 .27816773 .026830038 .25250245 .012496948 .22683716-.001836141 .20000203-.009002686 .17199707-.009002686 .13533528-.009002686 .104003909 .0031636556 .07800293 .027496338 .052001954 .05182902 .039001466 .08233134 .039001466 .119003299 .039001466 .15166728 .04966736 .17733257 .070999149 .19599915 .09233093 .21466573 .1269989 .23166402 .17500305 .24699402L.31300355 .2899933V.35499574C.31300355 .43232728 .28400169 .47099305 .22599793 .47099305 .20466614 .47099305 .18933106 .46549479 .17999268 .4544983 .17066448 .4435018 .16100057 .42266847 .15100098 .3919983 .14633179 .3773295 .14049785 .36749269 .13349915 .3624878 .12650045 .35749308 .11766561 .35499574 .10699463 .35499574 .094329837 .35499574 .082829799 .35782878 .07249451 .36349488 .06216939 .36916099 .05467224 .37599693 .05000305 .3840027 .05467224 .40133668 .06483968 .41867066 .08050537 .43600465 .09617106 .45333863 .117004398 .46767173 .14300537 .4790039 .16900635 .4903361 .19866944 .4960022 .23199463 .4960022 .28999839 .4960022 .3328298 .48283387 .3604889 .4564972 .38815818 .43017069 .4019928 .39667259 .4019928 .3560028V.09199524C.4019928 .074661258 .4053243 .06199646 .4119873 .054000856 .4186605 .04600525 .42966715 .042007448 .44500733 .042007448 .45433555 .042007448 .46399943 .044006349 .47399903 .04800415V.033996583C.46266685 .020670573 .44916789 .0106709799 .4335022 .0039978029 .41783653-.002665202 .40266929-.005996704 .3880005-.005996704M.12600708 .14100647C.12600708 .11500549 .13417053 .092168178 .15049744 .07249451 .16683452 .052831014 .18966675 .042999269 .21899414 .042999269 .23766072 .042999269 .25549317 .047332765 .27249146 .055999757 .2894999 .06466675 .30300395 .07533264 .31300355 .08799744V.2599945L.19999695 .22200012C.17200215 .21266175 .15266927 .20215862 .14199829 .19049073 .13133748 .17883301 .12600708 .16233826 .12600708 .14100647Z"/>
<path id="font_1_27" d="M.08299255-.20799256C.054326375-.20799256 .028661093-.19966126 .005996704-.18299866 .009333293-.16433208 .016331992-.14866638 .026992798-.13600159 .037663778-.12333679 .051330568-.117004398 .067993167-.117004398 .07733154-.117004398 .08933512-.119003299 .104003909-.1230011 .115997318-.1269989 .1259969-.1289978 .13400269-.1289978 .14400228-.1289978 .15250142-.12582906 .15950012-.11949158 .16649883-.11316427 .17399597-.10166422 .18199158-.084991458 .18999736-.06832886 .20166524-.041666669 .21699524-.005004883L.22399903 .013000488 .087005618 .33999635C.06833903 .3859965 .05400594 .4166616 .044006349 .43199159 .034006757 .44733177 .020339966 .45700074 .0030059815 .46099855V.48199464H.21499634V.46099855L.19700623 .45799256C.18166606 .45532737 .17032878 .4511617 .16299439 .4454956 .15565999 .4398295 .1519928 .43133036 .1519928 .41999818 .1519928 .40600077 .15766399 .3856659 .16900635 .35899354L.26800538 .117996219 .3639984 .35099793C.37600199 .38033549 .38200379 .40266929 .38200379 .41799928 .38200379 .43000285 .37883506 .43900047 .37249757 .44499208 .36617027 .45099388 .3560028 .45532737 .34199525 .45799256L.32499696 .46099855V.48199464H.49299623V.46099855C.47299705 .45632936 .45666505 .44566346 .44400025 .42900086 .43133546 .41233827 .41633607 .3836721 .39900209 .34300233L.2480011-.01499939C.22666931-.06566874 .20783489-.104670207 .1914978-.13200379 .1751709-.15933736 .15867107-.17883301 .14199829-.19049073 .1253357-.20215862 .105667117-.20799256 .08299255-.20799256Z"/>
<path id="font_1_21" d="M.027999878 .022003174 .04600525 .024002076C.06333923 .02599589 .07533773 .03082784 .08200073 .038497926 .088663738 .04616801 .09199524 .05966695 .09199524 .07899475V.3710022C.09199524 .39033 .08782959 .40415956 .07949829 .41249085 .07116699 .4208323 .054000856 .42733766 .027999878 .43200685V.44999696L.17199707 .49299623H.17999268V.3809967C.19066365 .41099549 .20649719 .43699647 .22749329 .45899964 .24849956 .4810028 .27366639 .4920044 .30299378 .4920044 .31899516 .4920044 .33433024 .48849998 .34899903 .4814911 .36366783 .4744924 .3746694 .46632896 .38200379 .45700074 .37800599 .44167076 .3710022 .42817179 .36099244 .4165039 .35099284 .40483604 .33899436 .39900209 .32499696 .39900209 .31499736 .39900209 .30199687 .40266929 .28599549 .41000367 .27199809 .41600547 .2596639 .41900636 .24899292 .41900636 .23499553 .41900636 .22216289 .41233827 .210495 .39900209 .1988271 .3856659 .18933106 .3686676 .18200684 .3480072V.07899475C.18200684 .05966695 .18683879 .046503705 .19650269 .039505006 .20616658 .032506307 .22500102 .027338664 .25300599 .024002076L.27200318 .022003174V0H.027999878V.022003174Z"/>
<path id="font_1_28" d="M.10800171-.0079956059C.09132894-.0079956059 .076828-.0019989014 .0644989 .009994507 .0521698 .021998087 .04600525 .036331178 .04600525 .052993776 .04600525 .06966654 .0521698 .083836879 .0644989 .09550476 .076828 .107172649 .09132894 .11300659 .10800171 .11300659 .1253357 .11300659 .13999939 .107172649 .1519928 .09550476 .16399639 .083836879 .16999817 .06966654 .16999817 .052993776 .16999817 .036331178 .16382854 .021998087 .15148926 .009994507 .13916016-.0019989014 .12466431-.0079956059 .10800171-.0079956059Z"/>
<path id="font_1_4" d="M.033996583 .024002076 .052001954 .026992798C.07266235 .029668173 .08832804 .034835817 .09899902 .042495729 .109670009 .050165815 .11500549 .063334148 .11500549 .08200073V.6179962C.11500549 .6366628 .10950216 .65016177 .09849548 .65849307 .087498988 .66683456 .07200114 .67200216 .052001954 .673996L.033996583 .6759949V.69999697H.29100038V.6759949L.272995 .673996C.25299583 .67200216 .23749797 .66683456 .22650147 .65849307 .21550496 .65016177 .21000672 .6366628 .21000672 .6179962V.08099365C.21000672 .06232707 .21533711 .04982503 .22599793 .04348755 .2366689 .037160238 .2530009 .033996583 .2749939 .033996583H.33399964C.3773346 .033996583 .41166688 .039662679 .43699647 .050994874 .4623362 .06232707 .4826711 .0804952 .4980011 .10549927 .5133311 .13050334 .5273285 .16600545 .5399933 .21200562H.56500247L.548996 0H.033996583V.024002076Z"/>
<path id="font_1_23" d="M.19700623-.009994507C.16233826-.009994507 .13533528-.0004984538 .115997318 .018493653 .09666952 .03749593 .087005618 .06566366 .087005618 .102996829V.44200135H.013000488V.46299745C.07699585 .4810028 .12266032 .52867129 .1499939 .6060028H.17700196V.48199464H.30400086L.29299928 .44200135H.17700196V.1230011C.17700196 .09767151 .18266805 .07866923 .19400025 .06599426 .20533245 .053329469 .22299703 .04699707 .24699402 .04699707 .2710012 .04699707 .29367066 .05233256 .31500245 .06300354V.042999269C.29832969 .025665284 .279658 .012496948 .25898744 .0034942628 .23832703-.0054982507 .21766663-.009994507 .19700623-.009994507Z"/>
<path id="font_1_31" d="M.057006837 .58999636C.049672445 .6173299 .04600525 .6383311 .04600525 .6529999 .04600525 .6683299 .0508372 .68132528 .0605011 .6919861 .070165 .70265707 .08266703 .70799258 .0980072 .70799258 .1133372 .70799258 .12583415 .70265707 .13549805 .6919861 .14516194 .68132528 .1499939 .6683299 .1499939 .6529999 .1499939 .6443329 .1466624 .6233317 .13999939 .58999636L.10800171 .44500733H.08900452L.057006837 .58999636Z"/>
<path id="font_1_22" d="M.21200562-.011993408C.17799886-.011993408 .1463267-.008158366 .116989139-.00048828127 .08766174 .007171631 .06199646 .017003378 .039993287 .029006958L.044006349 .17300415H.069000247C.07967123 .1276652 .09717306 .09049479 .12150574 .06149292 .14583843 .03250122 .17700196 .018005372 .21499634 .018005372 .24433391 .018005372 .26766969 .02633667 .28500367 .042999269 .30233766 .059661867 .31100465 .08165995 .31100465 .10899353 .31100465 .1323293 .30367027 .15032959 .28900147 .16299439 .27433268 .17566936 .2496643 .18933614 .21499634 .20399475L.18400574 .21600342C.15200298 .22932942 .12650045 .24165853 .10749817 .25299073 .08849589 .2643331 .07382711 .27816773 .06349182 .29449464 .053166707 .3108317 .04800415 .33133445 .04800415 .3560028 .04800415 .38200379 .055669149 .405838 .070999149 .4275055 .08632914 .44917298 .10699463 .46600343 .1329956 .47799684 .15899658 .4900004 .18666585 .4960022 .21600342 .4960022 .26733399 .4960022 .31499736 .4869995 .35899354 .46899415L.35699464 .34700013H.33200074C.31266276 .42633567 .27199809 .46600343 .21000672 .46600343 .18466695 .46600343 .16349793 .45866905 .14649964 .44400025 .12950135 .42933146 .1210022 .4106649 .1210022 .3880005 .1210022 .36732994 .1280009 .35049439 .14199829 .3374939 .15599568 .3244934 .18133037 .31066386 .21800232 .29600526L.24899292 .28300477C.29966227 .2623342 .335495 .24166362 .3564911 .22099304 .37749736 .20033264 .3880005 .17266846 .3880005 .13800049 .3880005 .10999552 .38049827 .084493007 .36549378 .06149292 .35049949 .03849284 .3294983 .020492554 .30249024 .0074920656 .27549235-.0054982507 .24533081-.011993408 .21200562-.011993408Z"/>
<path id="font_1_24" d="M.227005-.011001587C.17833965-.011001587 .14150493 .002665202 .116500858 .02999878 .09149679 .057332357 .07899475 .09566752 .07899475 .14500427V.3919983C.07899475 .41000367 .074661258 .42266847 .06599426 .42999269 .05732727 .43732707 .04032898 .44332887 .01499939 .44799806V.46600343L.16099549 .49299623H.16900635V.15499878C.16900635 .119669597 .1771698 .09200541 .1934967 .072006229 .20983379 .05200704 .23500061 .042007448 .2689972 .042007448 .31233216 .042007448 .34733073 .057673139 .37399293 .08900452 .3726603 .107671108 .37199403 .1230011 .37199403 .1349945V.3919983C.37199403 .41000367 .36782838 .42266847 .35949708 .42999269 .35116578 .43732707 .33399964 .44332887 .30799867 .44799806V.46600343L.45500184 .49299623H.46200563V.10600281C.46200563 .08200582 .46617127 .065338138 .47450257 .055999757 .48283387 .04667155 .5 .04000346 .526001 .035995485V.016998291L.39900209-.007003784C.3876699 .012995402 .38000489 .03866577 .37600709 .070007327 .3619995 .04800415 .34165956 .029001872 .31498719 .013000488 .28832499-.0030008953 .2589976-.011001587 .227005-.011001587Z"/>
<path id="font_1_15" d="M.027999878 .022003174 .04600525 .024002076C.06333923 .02599589 .07533773 .03082784 .08200073 .038497926 .088663738 .04616801 .09199524 .05966695 .09199524 .07899475V.3710022C.09199524 .39033 .08782959 .40415956 .07949829 .41249085 .07116699 .4208323 .054000856 .42733766 .027999878 .43200685V.44999696L.17500305 .49299623H.18200684V.07899475C.18200684 .05966695 .18533834 .04616801 .19200135 .038497926 .19866435 .03082784 .21066284 .02599589 .22799683 .024002076L.2460022 .022003174V0H.027999878V.022003174M.13400269 .5720062C.118662517 .5720062 .105158489 .5776723 .0934906 .5890045 .081832889 .60033676 .07600403 .6133372 .07600403 .628006 .07600403 .643336 .081832889 .65666708 .0934906 .66799929 .105158489 .6793315 .118662517 .68499758 .13400269 .68499758 .15000408 .68499758 .16367086 .6793315 .17500305 .66799929 .18633525 .65666708 .19200135 .643336 .19200135 .628006 .19200135 .6133372 .1861674 .60033676 .17449951 .5890045 .16283162 .5776723 .14933269 .5720062 .13400269 .5720062Z"/>
<path id="font_1_18" d="M.5980072 .022003174 .6159973 .024002076C.6333313 .02599589 .6453298 .03082784 .6519928 .038497926 .65866598 .04616801 .66200259 .05966695 .66200259 .07899475V.33700563C.66200259 .3710022 .6536662 .39699809 .6369934 .4149933 .6203308 .43299867 .59800216 .44200135 .5700073 .44200135 .54866537 .44200135 .5288289 .4371643 .51049807 .42749024 .49216715 .41782633 .47633363 .40532939 .46299745 .3899994 .46566264 .3793284 .46699525 .36699424 .46699525 .35299684V.07899475C.46699525 .05966695 .47032676 .04616801 .47698976 .038497926 .48366294 .03082784 .4956665 .02599589 .5130005 .024002076L.53100588 .022003174V0H.31300355V.022003174L.33099366 .024002076C.34832765 .02599589 .36032615 .03082784 .36698915 .038497926 .37366233 .04616801 .3769989 .05966695 .3769989 .07899475V.33700563C.3769989 .3710022 .3686625 .39699809 .35198976 .4149933 .33532716 .43299867 .31299845 .44200135 .28500367 .44200135 .2650045 .44200135 .24617005 .4375 .22850037 .4284973 .21083069 .41949464 .19533284 .4079946 .18200684 .3939972V.07899475C.18200684 .05966695 .18533834 .04616801 .19200135 .038497926 .19866435 .03082784 .21066284 .02599589 .22799683 .024002076L.2460022 .022003174V0H.027999878V.022003174L.04600525 .024002076C.06333923 .02599589 .07533773 .03082784 .08200073 .038497926 .088663738 .04616801 .09199524 .05966695 .09199524 .07899475V.37199403C.09199524 .391332 .08782959 .40499879 .07949829 .41299439 .07116699 .42100016 .054000856 .42733766 .027999878 .43200685V.44999696L.17199707 .49299623H.17999268V.41200257C.19466146 .43533836 .2154948 .45516969 .24249268 .47149659 .26950074 .48783366 .29900108 .4960022 .33099366 .4960022 .36566163 .4960022 .39349366 .48783366 .41448976 .47149659 .435496 .45516969 .45033265 .43367005 .45899964 .40699769 .47366844 .43099467 .4946696 .451828 .5220032 .46949769 .54933676 .48716737 .58000186 .4960022 .6139984 .4960022 .6599986 .4960022 .6944987 .48183189 .7174988 .4534912 .74049887 .42516075 .7519989 .3916626 .7519989 .35299684V.07899475C.7519989 .05966695 .7553304 .04616801 .7619934 .038497926 .76866659 .03082784 .78067019 .02599589 .79800418 .024002076L.81500247 .022003174V0H.5980072V.022003174Z"/>
<path id="font_1_13" d="M.20799256-.21000672C.14932759-.21000672 .10216268-.19900513 .0664978-.17700196 .030832926-.15499878 .013000488-.1263326 .013000488-.09100342 .013000488-.06766764 .021331788-.04699707 .037994386-.0289917 .054667158-.010996501 .07633463 .0036671956 .102996829 .01499939 .066996257 .029668173 .04899597 .05233256 .04899597 .08299255 .04899597 .103663127 .056996664 .122665408 .07299805 .13999939 .08899943 .15733338 .110331218 .17266846 .13699341 .18600464 .10899862 .20066326 .086502078 .22049459 .069503787 .24549866 .052505495 .27050273 .044006349 .29833476 .044006349 .32899476 .044006349 .35966493 .052337648 .3876648 .069000247 .41299439 .08566284 .43833415 .10799154 .45817057 .13598633 .47250367 .16399129 .48683677 .19399517 .4940033 .22599793 .4940033 .25732932 .4940033 .28633119 .4876709 .31300355 .4750061H.47399903L.46299745 .43400575H.3639984C.3786672 .42066957 .39033509 .40466819 .39900209 .3860016 .40766908 .367335 .41200257 .3480021 .41200257 .32800294 .41200257 .29800416 .40349833 .27033488 .38648988 .24499512 .36949159 .21966553 .34682719 .19983419 .3184967 .1855011 .29016624 .17116802 .2599996 .16400147 .22799683 .16400147 .20199585 .16400147 .17699687 .16866558 .15299988 .17799378 .1423289 .17200215 .13349407 .16416931 .12649536 .15449524 .119496669 .14483135 .115997318 .1343333 .115997318 .1230011 .115997318 .10699972 .12449646 .095331829 .14149475 .08799744 .15850322 .08066305 .18667095 .07699585 .22599793 .07699585H.29299928C.35299684 .07699585 .39683024 .0671641 .4244995 .04750061 .4521688 .027837119 .46600343 .0020039876 .46600343-.02999878 .46600343-.059336347 .45550028-.08783468 .43449403-.115493778 .41349793-.14316304 .3833313-.16583252 .34399415-.1835022 .30466715-.20117188 .25933329-.21000672 .20799256-.21000672M.085006717-.06300354C.085006717-.09700012 .10033671-.12432861 .1309967-.14498902 .16166687-.16565959 .20066834-.17599488 .2480011-.17599488 .29466249-.17599488 .33132426-.16599529 .35798646-.1459961 .3846588-.1259969 .397995-.100997928 .397995-.070999149 .397995-.04899597 .38949586-.031992597 .37249757-.019989014 .35549928-.0079956059 .32533265-.0019989014 .28199769-.0019989014H.21200562C.17600505-.0019989014 .14500427 .0016682943 .119003299 .009002686 .10833231 .00033569337 .09999593-.0101623539 .09399414-.022491456 .088002528-.03483073 .085006717-.04833476 .085006717-.06300354M.1349945 .3350067C.1349945 .29366557 .14415996 .25949607 .16249085 .23249817 .18083191 .20550029 .20433553 .19200135 .23300171 .19200135 .2590027 .19200135 .28016664 .20399983 .29649354 .22799683 .3128306 .252004 .32099916 .28300477 .32099916 .32099916 .32099916 .3623301 .31149803 .39683024 .29249574 .4244995 .27350364 .4521688 .2500051 .46600343 .22200012 .46600343 .19599915 .46600343 .17499797 .45383708 .15899658 .4295044 .1429952 .40517173 .1349945 .3736725 .1349945 .3350067Z"/>
<path id="font_1_14" d="M.024002076 .022003174 .042007448 .024002076C.059331258 .02599589 .07132467 .03082784 .07798767 .038497926 .08466085 .04616801 .08799744 .05966695 .08799744 .07899475V.6150055C.08799744 .6343333 .08383179 .647995 .07550049 .6559906 .06716919 .6639964 .05000305 .6706645 .024002076 .6759949V.69299319L.17100525 .7369995H.17799378V.41299439C.19466655 .43566896 .21683248 .45516969 .24449158 .47149659 .27216087 .48783366 .30266319 .4960022 .33599855 .4960022 .3840027 .4960022 .41983543 .48199974 .4434967 .45399476 .46716819 .42599998 .4790039 .39300028 .4790039 .35499574V.07899475C.4790039 .05966695 .48233543 .04616801 .4889984 .038497926 .4956614 .03082784 .5076599 .02599589 .5249939 .024002076L.54200747 .022003174V0H.32499696V.022003174L.34300233 .024002076C.3603363 .02599589 .3723348 .03082784 .3789978 .038497926 .385671 .04616801 .38900758 .05966695 .38900758 .07899475V.33000184C.38900758 .36533103 .38050334 .39265953 .36349488 .4119873 .34649659 .4313253 .32266746 .44099427 .29200746 .44099427 .27000428 .44099427 .24916585 .43649293 .22949219 .42749024 .20982869 .4184977 .19266255 .40633647 .17799378 .39100648V.07899475C.17799378 .05966695 .18132527 .04616801 .18798828 .038497926 .19466146 .03082784 .20666504 .02599589 .22399903 .024002076L.2420044 .022003174V0H.024002076V.022003174Z"/>
<path id="font_1_12" d="M.026992798 .022003174 .04499817 .024002076C.062332155 .02599589 .07433065 .03082784 .08099365 .038497926 .08766683 .04616801 .09100342 .05966695 .09100342 .07899475V.44200135H.013000488V.46299745L.09100342 .48399354V.5339966C.09100342 .5793355 .100001018 .617335 .117996219 .647995 .13600159 .67866519 .15883382 .7011668 .18649292 .7154999 .21416219 .72983297 .2426656 .7369995 .27200318 .7369995 .30599977 .7369995 .33399964 .73133346 .3560028 .7200012 .37800599 .708669 .39333598 .6953328 .4019928 .6799927 .389328 .6553345 .3713328 .6430054 .3480072 .6430054 .3373362 .6430054 .328832 .6451721 .3224945 .6495056 .3161672 .6538391 .30900065 .6610057 .30099488 .67100527 .2896627 .68367007 .28049723 .6928355 .27349855 .6985016 .26649986 .70416769 .257665 .70700076 .24699402 .70700076 .22366841 .70700076 .20683797 .69366458 .19650269 .6669922 .1861674 .64033 .18099976 .59766647 .18099976 .53900149V.48199464H.30099488L.2899933 .44200135H.18099976V.07899475C.18099976 .05966695 .18583171 .046503705 .1954956 .039505006 .20516968 .032506307 .2243398 .027338664 .25300599 .024002076L.27200318 .022003174V0H.026992798V.022003174Z"/>
<path id="font_1_9" d="M.25100709-.011001587C.20633953-.011001587 .16766866-.00050354006 .1349945 .020492554 .10233053 .04149882 .0771637 .07066854 .05949402 .10800171 .041834516 .14533489 .03300476 .18766785 .03300476 .23500061 .03300476 .28433738 .04333496 .32883708 .06399536 .36849977 .08466593 .40816245 .112335208 .4391581 .14700318 .46148683 .18167115 .48382569 .21967061 .49499513 .2610016 .49499513 .29766337 .49499513 .32832847 .489329 .35299684 .47799684 .3776652 .46666465 .3963318 .4534963 .40899659 .43849183 .42166139 .42349754 .42966209 .40933229 .43299867 .3959961 .42699687 .3859965 .41916404 .37782798 .40950013 .37149049 .3998362 .36516319 .3896688 .3619995 .3789978 .3619995 .368337 .3619995 .3593394 .36483256 .352005 .37049867 .34467063 .37616477 .3373362 .3856659 .33000184 .39900209 .31799827 .42166648 .30633036 .43832908 .29499818 .44898988 .28366599 .45966087 .2666677 .46499635 .2440033 .46499635 .22333272 .46499635 .20332845 .45832826 .18399048 .44499208 .16466268 .43166606 .14866638 .4105021 .13600159 .38150025 .12333679 .35249839 .117004398 .31666566 .117004398 .27400209 .117004398 .22999573 .12450155 .19215901 .13949585 .16049195 .15450032 .12883504 .17449951 .1050059 .19949341 .08900452 .22449748 .073003139 .2519989 .06500244 .28199769 .06500244 .31332908 .06500244 .34066264 .07233175 .3639984 .08699036 .3873342 .10165914 .40866599 .123662319 .42799378 .15299988L.44400025 .14300537C.42666627 .09366862 .40149943 .055664064 .36849977 .0289917 .3355001 .0023295086 .29633586-.011001587 .25100709-.011001587Z"/>
<path id="font_1_25" d="M.087005618 .33999635C.07233683 .37400309 .06166585 .39800517 .054992677 .41200257 .04832967 .42599998 .04099528 .4371643 .032989503 .4454956 .024993897 .4538269 .01499939 .45899455 .0030059815 .46099855V.48199464H.21499634V.46099855L.19599915 .45799256C.18066915 .45532737 .16949971 .4511617 .16249085 .4454956 .15549214 .4398295 .1519928 .43133036 .1519928 .41999818 .1519928 .40733338 .15766399 .3869985 .16900635 .35899354L.2689972 .11500549 .3639984 .35099793C.3766632 .3816681 .3829956 .40433757 .3829956 .41900636 .3829956 .43033854 .3796641 .43900047 .3730011 .44499208 .3663381 .45099388 .3556722 .45532737 .34100343 .45799256L.32499696 .46099855V.48199464H.49299623V.46099855C.47366844 .45632936 .45733644 .4454956 .44400025 .4284973 .43066407 .41149903 .41566468 .3830007 .39900209 .34300233L.25300599-.0039978029H.23100281L.087005618 .33999635Z"/>
<path id="font_1_2" d="M.3769989-.014007568C.31499736-.014007568 .2583313 .001159668 .20700073 .03149414 .15567017 .061828615 .11516825 .10432943 .085494998 .15899658 .05583191 .21366374 .041000368 .27633158 .041000368 .34700013 .041000368 .41832987 .055999757 .48199464 .085998538 .5379944 .115997318 .59399417 .15699768 .6374919 .20899964 .66848757 .2610016 .6994934 .31866966 .71499636 .38200379 .71499636 .46599833 .71499636 .5426636 .69866439 .6119995 .66600039V.4960022H.58599856C.56800338 .56466677 .5415039 .6128337 .50650027 .6405029 .47149659 .6681722 .42933146 .68200686 .38000489 .68200686 .33333335 .68200686 .29266358 .66900637 .2579956 .6430054 .22332764 .6170044 .19666036 .5803375 .17799378 .53300479 .1593272 .485672 .1499939 .43133546 .1499939 .36999513 .1499939 .30799357 .15982564 .25232444 .17948914 .20298767 .1991628 .15366109 .22799683 .11483256 .2659912 .086502078 .30399577 .05817159 .34932963 .044006349 .4019928 .044006349 .44799296 .044006349 .48882548 .055170698 .52449038 .07749939 .5601654 .09982809 .5930023 .13699341 .6230011 .18899536L.6470032 .17500305C.592336 .04899597 .5023346-.014007568 .3769989-.014007568Z"/>
<path id="font_1_19" d="M.32699586 .022003174 .34500123 .024002076C.3623352 .02599589 .3743337 .03082784 .3809967 .038497926 .3876699 .04616801 .39100648 .05966695 .39100648 .07899475V.33299256C.39100648 .36766053 .38283793 .3943278 .36650086 .41299439 .3501638 .43166099 .32666526 .44099427 .29600526 .44099427 .27400209 .44099427 .25316368 .43649293 .23348999 .42749024 .21382649 .4184977 .19666545 .40633647 .18200684 .39100648V.07899475C.18200684 .05966695 .18533834 .04616801 .19200135 .038497926 .19866435 .03082784 .21066284 .02599589 .22799683 .024002076L.2460022 .022003174V0H.027999878V.022003174L.04600525 .024002076C.06333923 .02599589 .07533773 .03082784 .08200073 .038497926 .088663738 .04616801 .09199524 .05966695 .09199524 .07899475V.37199403C.09199524 .391332 .08782959 .40499879 .07949829 .41299439 .07116699 .42100016 .054000856 .42733766 .027999878 .43200685V.44999696L.17199707 .49299623H.17999268V.41099549C.19666545 .43433128 .21916707 .45433045 .24749756 .47099305 .27582804 .4876658 .30666099 .4960022 .33999635 .4960022 .3873291 .4960022 .42266337 .48233543 .44599916 .45500184 .46933494 .42766825 .4810028 .39533488 .4810028 .3580017V.07899475C.4810028 .05966695 .48433433 .04616801 .4909973 .038497926 .4976705 .03082784 .509669 .02599589 .5269928 .024002076L.54400637 .022003174V0H.32699586V.022003174Z"/>
<path id="font_1_26" d="M.08799744 .33999635C.074661258 .37400309 .064325969 .39850364 .056991579 .41349793 .04966736 .4285024 .04200236 .4398346 .033996583 .4474945 .026000977 .45516459 .015670777 .45966593 .0030059815 .46099855V.48199464H.21600342V.46099855L.19799805 .45799256C.18266805 .45532737 .17150371 .45132957 .164505 .44599916 .1575063 .44066874 .15400696 .43233744 .15400696 .42100526 .15400696 .40699769 .15933736 .38632713 .16999817 .35899354L.2649994 .115997318 .36099244 .3480072C.3436686 .391332 .33000184 .42049156 .31999208 .43548585 .30999247 .45049034 .29866029 .45899455 .28599549 .46099855V.48199464H.4889984V.46099855L.47000123 .45799256C.45467124 .45532737 .44366966 .4511617 .43699647 .4454956 .43033348 .4398295 .42700196 .43133036 .42700196 .41999818 .42700196 .4079946 .43233238 .3876597 .44299317 .35899354L.53300479 .117004398 .6260071 .35099793C.6380005 .3809967 .6439972 .40366618 .6439972 .41900636 .6439972 .43033854 .64082846 .43900047 .63449099 .44499208 .62816366 .45099388 .6176656 .45532737 .6029968 .45799256L.5870056 .46099855V.48199464H.7550049V.46099855C.7350057 .45700074 .718338 .44633485 .70500186 .42900086 .69166567 .41166688 .6769969 .3830007 .6609955 .34300233L.5180054-.0039978029H.4960022L.3789978 .30200196 .25-.0039978029H.227005L.08799744 .33999635Z"/>
<path id="font_1_8" d="M.25-.011001587C.21467082-.011001587 .18117269-.007003784 .14950562 .0009918213 .11783854 .0089976 .09133911 .020665488 .070007327 .035995485V.6150055C.070007327 .6343333 .065836589 .647995 .057495119 .6559906 .04916382 .6639964 .03199768 .6706645 .005996704 .6759949V.69299319L.1519928 .7369995H.16000366V.42700196C.17400106 .44499717 .19299825 .46032716 .21699524 .47299195 .2410024 .4856669 .26933799 .4920044 .30200196 .4920044 .33866374 .4920044 .37182618 .48233543 .40148927 .46299745 .4311625 .44366966 .45466615 .41600547 .47200013 .38000489 .4893341 .3440043 .4980011 .30200196 .4980011 .2539978 .4980011 .20199585 .48749797 .15599568 .4664917 .115997318 .4454956 .07599894 .41616313 .044830324 .37849427 .022491456 .34083558 .00016276042 .29800416-.011001587 .25-.011001587M.16000366 .054000856C.18333943 .03066508 .21500652 .018997193 .25500489 .018997193 .30166627 .018997193 .3374939 .037165326 .3624878 .07350159 .38749186 .10983785 .3999939 .16400147 .3999939 .23599243 .3999939 .30200196 .3869934 .35283915 .36099244 .38850404 .33500163 .4241689 .30000306 .44200135 .2559967 .44200135 .21800232 .44200135 .18600464 .42966715 .16000366 .40499879V.054000856Z"/>
<path id="font_1_10" d="M.23199463-.009994507C.19466146-.009994507 .16099549-.0003306071 .1309967 .018997193 .100997928 .038335165 .07749939 .0661672 .0605011 .102493289 .043502809 .13882955 .035003663 .18099976 .035003663 .2290039 .035003663 .28033448 .04550171 .32599894 .0664978 .3659973 .08750407 .4059957 .117004398 .4371592 .15499878 .45948792 .19300334 .48182679 .2366689 .49299623 .28599549 .49299623 .32000224 .49299623 .34900413 .48833213 .3730011 .4790039V.6150055C.3730011 .63367208 .3686676 .647171 .3600006 .6555023 .35133363 .6638336 .33433534 .6706645 .30900575 .6759949V.69299319L.45500184 .7369995H.46299745V.10499573C.46299745 .08099874 .4671631 .064331058 .47549439 .054992677 .48383586 .04566447 .5006714 .039332075 .526001 .035995485V.016998291L.39900209-.007003784C.3883311 .01499939 .3809967 .03799947 .3769989 .06199646 .3643341 .04266866 .34533183 .025838217 .31999208 .011505127 .29466249-.0028279622 .26533-.009994507 .23199463-.009994507M.1329956 .2460022C.1329956 .18066406 .14616394 .13016255 .17250061 .09449768 .19883728 .058832807 .23467 .041000368 .27999879 .041000368 .31733195 .041000368 .34899903 .054667158 .375 .08200073 .3736674 .101999919 .3730011 .1193339 .3730011 .13400269V.41600038C.35099793 .44733177 .31899516 .46299745 .2769928 .46299745 .23166402 .46299745 .19632976 .44482932 .17098999 .40849305 .1456604 .37216697 .1329956 .31800334 .1329956 .2460022Z"/>
<path id="font_1_30" d="M.18899536 .21800232C.18566895 .2400055 .18400574 .25733949 .18400574 .27000428 .18400574 .29332987 .18866985 .3138275 .19799805 .3314972 .20733643 .34916688 .22467041 .3713328 .25 .397995 .27200318 .42200218 .28800456 .44033814 .29800416 .45300294 .30800376 .46566773 .31667076 .4806671 .32400514 .4980011 .3313395 .5153351 .3350067 .53466799 .3350067 .55599978 .3350067 .5913289 .32567344 .62115988 .30700685 .64549258 .28834025 .6698354 .26333619 .68200686 .23199463 .68200686 .20866902 .68200686 .19133504 .6751709 .17999268 .661499 .16866048 .64783737 .15833028 .6283366 .14900208 .6029968 .14367168 .58832809 .13766988 .5778249 .1309967 .5714874 .1243337 .5651601 .115000408 .56199648 .102996829 .56199648 .075663249 .56199648 .05366516 .57199606 .037002565 .59199526 .042332967 .6113332 .053329469 .6303355 .069992069 .6490021 .08666483 .66766867 .10899862 .6831665 .13699341 .6954956 .16499837 .7078349 .19733174 .7140045 .23399353 .7140045 .27400209 .7140045 .30867005 .7063344 .33799745 .69099429 .367335 .67566427 .3896688 .65483096 .40499879 .62849429 .42032878 .6021678 .42799378 .5730031 .42799378 .54100039 .42799378 .5136668 .4224955 .48883058 .41149903 .4664917 .40050254 .444163 .3876699 .42499797 .3730011 .40899659 .3583323 .3929952 .33700053 .37199403 .30900575 .34599305 .27633158 .31666566 .25349427 .29299928 .24049378 .2749939 .22749329 .2569987 .21966045 .2386678 .21699524 .22000122L.21400452 .19500733H.19200135L.18899536 .21800232M.14399719 .052993776C.14399719 .06966654 .1499939 .083836879 .1619873 .09550476 .17399089 .107172649 .18865967 .11300659 .20599365 .11300659 .22266643 .11300659 .23716736 .107172649 .24949646 .09550476 .26183573 .083836879 .26800538 .06966654 .26800538 .052993776 .26800538 .036331178 .26183573 .021998087 .24949646 .009994507 .23716736-.0019989014 .22266643-.0079956059 .20599365-.0079956059 .18933106-.0079956059 .17483013-.0019989014 .16249085 .009994507 .15016175 .021998087 .14399719 .036331178 .14399719 .052993776Z"/>
<path id="font_1_6" d="M.09399414 .59599307C.083994548 .623998 .07432556 .64316818 .06498718 .6535034 .055658979 .6638387 .041330976 .67066958 .022003174 .673996L.009994507 .6759949V.69999697H.2630005V.6759949L.24499512 .673996C.22433472 .67200216 .20866902 .6678365 .19799805 .661499 .18733724 .65516158 .18200684 .6449941 .18200684 .6309967 .18200684 .6230011 .18400574 .6133372 .18800354 .602005L.3500061 .14700318 .48599244 .5209961 .4600067 .59599307C.45066834 .623998 .44132997 .6433309 .43199159 .6539917 .42266337 .66466268 .40766398 .67133077 .3869934 .673996L.37399293 .6759949V.69999697H.6239929V.6759949L.6069946 .673996C.5863342 .67133077 .571167 .66699728 .5614929 .6609955 .55182906 .6549937 .5469971 .6453298 .5469971 .6320038 .5469971 .623998 .548996 .6139984 .5529938 .602005L.70700076 .147995 .8679962 .6009979C.8726654 .6130015 .875 .6236674 .875 .6329956 .875 .6456604 .87016299 .6549937 .8604889 .6609955 .850825 .66699728 .83599349 .67133077 .81599429 .673996L.798996 .6759949V.69999697H1.0019989V.6759949L.9920044 .673996C.9713338 .67066958 .9548289 .663503 .9424896 .65249636 .9301605 .6414998 .91933187 .6226654 .91000369 .59599307L.68899539-.009002686H.66900637L.5059967 .46299745 .33200074-.009002686H.31300355L.09399414 .59599307Z"/>
<clipPath id="clip_2">
<path transform="matrix(1,0,0,-1,0,699)" d="M213 431H779V477H213Z"/>
</clipPath>
<path id="font_3_16" d="M0 0Z"/>
<path id="font_3_3" d="M.22016907 0 .02130127 .72727969H.11079407L.26278688 .13494873H.2698822L.42471314 .72727969H.52415469L.67897036 .13494873H.68608096L.83807376 .72727969H.92755129L.72869876 0H.63778689L.47727967 .57954409H.47158814L.31108094 0H.22016907Z"/>
<path id="font_3_11" d="M.07635498 0V.54545596H.15731812V.46305848H.16299439C.17294312 .49004618 .19093831 .51194259 .21697998 .52874758 .24302165 .54556277 .27237956 .55397036 .3050537 .55397036 .3112081 .55397036 .31889854 .55385336 .328125 .5536194 .33736167 .55338546 .3443451 .55302938 .34907533 .55255129V.46733094C.34623719 .468043 .3397878 .46916709 .32972718 .47070313 .31966654 .47223918 .30907188 .4730072 .29794313 .4730072 .2714335 .4730072 .247818 .46750389 .22709656 .4564972 .2063853 .4454905 .19004822 .43033854 .17808533 .41104127 .16613262 .391744 .16015625 .3697866 .16015625 .34516908V0H.07635498Z"/>
<path id="font_3_7" d="M.07661438 0V.54545596H.16041565V0H.07661438M.11923218 .6363678C.1028951 .6363678 .08886719 .64192709 .07714844 .65304568 .06542969 .6641744 .059570314 .67755129 .059570314 .69317629 .059570314 .70880129 .06542969 .72217819 .07714844 .7333069 .08886719 .7444356 .1028951 .75 .11923218 .75 .13555908 .75 .14958191 .7444356 .16130066 .7333069 .17301941 .72217819 .17887879 .70880129 .17887879 .69317629 .17887879 .67755129 .17301941 .6641744 .16130066 .65304568 .14958191 .64192709 .13555908 .6363678 .11923218 .6363678Z"/>
<path id="font_3_13" d="M.31373597 .54563906V.47460938H.031066895V.54563906H.31373597M.1134491 .6763153H.19726563V.15649414C.19726563 .13283284 .2007548 .11514282 .20773316 .10342407 .21472168 .09170532 .22371929 .08389282 .23472595 .07998657 .24573262 .07608032 .25739036 .0741272 .2696991 .0741272 .27893577 .0741272 .28651429 .074656169 .2924347 .07571411 .2983551 .07678223 .30309043 .077672328 .30664063 .0783844L.3236847 .003112793C.31799827 .000986735 .3100637-.001200358 .29988099-.0034484864 .28970848-.005706787 .2768097-.0068359377 .2611847-.0068359377 .23750305-.0068359377 .21435547-.0017496744 .19174195 .008422852 .1691386 .01860555 .1504364 .03410848 .13563538 .05493164 .12084452 .07576498 .1134491 .10204569 .1134491 .1337738V.6763153Z"/>
<path id="font_3_5" d="M.3053131-.01171875C.25273133-.01171875 .20743306-.00005086263 .16941834 .023284913 .13141378 .04663086 .10216776 .07933553 .0816803 .121398929 .06119283 .16346233 .050949098 .2124532 .050949098 .26837159 .050949098 .3243103 .06119283 .37366233 .0816803 .4164276 .10216776 .4591929 .13082378 .4925995 .16764832 .51664736 .20447286 .5407054 .2475179 .5527344 .29678346 .5527344 .32520548 .5527344 .35327149 .54799398 .38098146 .5385132 .4086914 .52904257 .43391419 .5136973 .45664979 .49247743 .47938539 .4712677 .49750266 .4432424 .5110016 .4084015 .52450057 .37356059 .53125 .33065797 .53125 .2796936V.24414063H.11061096V.3165741H.44602967C.44602967 .34742738 .43992616 .37495423 .42771913 .39915467 .41552226 .4233551 .39822898 .442454 .37583924 .45645143 .3534597 .47045899 .32710777 .47746278 .29678346 .47746278 .26338706 .47746278 .23454793 .46922303 .21026612 .45274354 .18599446 .4362742 .16734314 .41488139 .15431214 .38856507 .14128113 .36224876 .13476563 .33403526 .13476563 .30392457V.25556947C.13476563 .21433003 .14193218 .1794281 .15626526 .15086365 .17059835 .122299198 .19055684 .100606288 .21614075 .08578491 .24172466 .07097372 .27145387 .063568118 .30532838 .063568118 .32736207 .063568118 .34732057 .06670634 .36520387 .07298279 .38308717 .07926941 .39853923 .088750209 .41156007 .10142517 .42459107 .114100139 .43466188 .12991841 .44177247 .14888L.52272036 .12612915C.51419577 .09865316 .49986778 .07455444 .47973634 .053833009 .4596049 .033111574 .43473817 .017003378 .4051361 .005508423 .37553407-.005976359 .34225974-.01171875 .3053131-.01171875Z"/>
<path id="font_3_6" d="M.16015625 .328125V0H.07635498V.72727969H.16015625V.4602356H.16726685C.18003337 .48841349 .19925435 .51084396 .22492981 .52752688 .25060527 .54422 .28485618 .5525665 .3276825 .5525665 .36483256 .5525665 .39736939 .545166 .42529298 .530365 .45321656 .51557418 .4749247 .4929657 .49041749 .46253968 .5059204 .4321238 .5136719 .3934784 .5136719 .3466034V0H.4298706V.34091188C.4298706 .38423667 .418691 .4177958 .3963318 .44158937 .37397257 .4653829 .34303794 .47727967 .30352784 .47727967 .27608238 .47727967 .25153605 .47147624 .22988892 .45986939 .20824178 .4482727 .19120789 .4313456 .17878723 .40908814 .16636658 .38684083 .16015625 .35985313 .16015625 .328125Z"/>
<clipPath id="clip_4">
<path transform="matrix(1,0,0,-1,0,699)" d="M18 661H38V681H18Z"/>
</clipPath>
<clipPath id="clip_5">
<path transform="matrix(1,0,0,-1,0,699)" d="M448 663H464V679H448Z"/>
</clipPath>
<clipPath id="clip_6">
<path transform="matrix(1,0,0,-1,0,699)" d="M468 661H552V681H468Z"/>
</clipPath>
<path id="font_3_2" d="M.66503909 .72727969V0H.57980349L.1832428 .57102969H.1761322V0H.08807373V.72727969H.17329407L.57128909 .15483094H.5783844V.72727969H.66503909Z"/>
<path id="font_3_14" d="M.20028687 0 .034088136 .54545596H.122161868L.24005127 .12783814H.2457428L.36221314 .54545596H.45170594L.5667572 .1292572H.57244876L.69033816 .54545596H.77841189L.61221316 0H.52983096L.4105072 .41903688H.4019928L.28266908 0H.20028687Z"/>
<path id="font_3_12" d="M.46272279 .42344667 .3874359 .4021454C.38010154 .4210968 .36780296 .43885804 .35054017 .45542909 .33327738 .47201029 .3063151 .4803009 .26965333 .4803009 .23631795 .4803009 .20859273 .47266136 .18647766 .4573822 .16437276 .44211326 .15332031 .4227549 .15332031 .39930726 .15332031 .37846376 .16088867 .3619995 .17602539 .34991456 .19117229 .33783976 .21482849 .32777406 .24699402 .3197174L.32789613 .29981996C.37662254 .2879893 .41292826 .26993308 .43681336 .24565125 .46070863 .2213796 .47265626 .19018047 .47265626 .15205384 .47265626 .12079366 .46372477 .09284464 .44586183 .06820679 .42799888 .0435791 .40309654 .02415975 .3711548 .0099487309 .33921305-.0042622887 .30207316-.011367798 .2597351-.011367798 .20413208-.011367798 .15811157 .00070699056 .121673587 .024856568 .085235599 .049016317 .062164308 .08429972 .052459718 .13070679L.13200379 .15060425C.13957215 .12123617 .15394084 .09920756 .17510987 .08451843 .19627889 .06983948 .22401428 .0625 .25831605 .0625 .29733787 .0625 .32837425 .07084656 .35142518 .08753967 .3744863 .10423279 .38601686 .124303188 .38601686 .14775086 .38601686 .18635559 .35904948 .2119344 .30511476 .2244873L.21427918 .24580384C.1643626 .25764466 .12775167 .27605693 .10444641 .30104066 .08115133 .32603456 .069503787 .35735575 .069503787 .39500428 .069503787 .4257965 .078196208 .45303346 .095581058 .4767151 .112976077 .5003967 .13674927 .518987 .16690064 .53248599 .19706218 .5459849 .2313029 .5527344 .2696228 .5527344 .32355754 .5527344 .3659668 .54089358 .3968506 .5172119 .42774455 .49354045 .44970194 .46228538 .46272279 .42344667Z"/>
<path id="font_3_10" d="M.29792787-.01171875C.24872335-.01171875 .2056071 .000010172526 .1685791 .023468018 .13156128 .04692586 .10270182 .07974243 .08200073 .121917728 .06129964 .1641032 .050949098 .21339417 .050949098 .26979066 .050949098 .32667542 .06129964 .37632243 .08200073 .4187317 .10270182 .46115113 .13156128 .49408976 .1685791 .5175476 .2056071 .54100546 .24872335 .5527344 .29792787 .5527344 .34714256 .5527344 .3902588 .54100546 .4272766 .5175476 .4643046 .49408976 .49316917 .46115113 .51387026 .4187317 .53457137 .37632243 .5449219 .32667542 .5449219 .26979066 .5449219 .21339417 .53457137 .1641032 .51387026 .121917728 .49316917 .07974243 .4643046 .04692586 .4272766 .023468018 .3902588 .000010172526 .34714256-.01171875 .29792787-.01171875M.29794313 .063568118C.3353068 .063568118 .3660482 .07316589 .39016725 .09236145 .41429649 .11156718 .43215434 .13681539 .44374085 .16810608 .45532737 .19939678 .4611206 .2332967 .4611206 .2698059 .4611206 .30630494 .45532737 .34031678 .44374085 .37184144 .43215434 .40337626 .41429649 .42886354 .39016725 .44830323 .3660482 .46774293 .3353068 .47746278 .29794313 .47746278 .26056925 .47746278 .2298228 .46774293 .20570374 .44830323 .18158467 .42886354 .16373189 .40337626 .15214539 .37184144 .14055889 .34031678 .13476563 .30630494 .13476563 .2698059 .13476563 .2332967 .14055889 .19939678 .15214539 .16810608 .16373189 .13681539 .18158467 .11156718 .20570374 .09236145 .2298228 .07316589 .26056925 .063568118 .29794313 .063568118Z"/>
<path id="font_3_9" d="M.16015625 .328125V0H.07635498V.54545596H.15731812V.4602356H.16442871C.17718506 .4879354 .1965688 .5102437 .22257996 .52716067 .24860128 .5440877 .28219096 .55255129 .323349 .55255129 .3602346 .55255129 .392512 .54503378 .42018128 .5299988 .44785057 .51497396 .4693705 .49224855 .4847412 .4618225 .5001221 .43140666 .5078125 .3929952 .5078125 .34658814V0H.42399598V.34091188C.42399598 .38375855 .41288249 .41719566 .39065553 .44122315 .36843873 .46526084 .3379415 .47727967 .29916383 .47727967 .27245078 .47727967 .24863179 .47147624 .22770691 .45986939 .20679219 .4482727 .19030254 .4313456 .17823792 .40908814 .16618347 .38684083 .16015625 .35985313 .16015625 .328125Z"/>
<path id="font_3_1" d="M.087890628 0V.72753909H.5268097V.64941409H.1759491V.4033203H.5040741V.3251953H.1759491V.078125H.53248599V0H.087890628Z"/>
<path id="font_3_4" d="M.28248597-.01171875C.23703511-.01171875 .19690959-.00016784668 .16210938 .02293396 .12730916 .046035768 .1000824 .07873535 .08042908 .121032718 .060775758 .16334026 .050949098 .21340434 .050949098 .27122499 .050949098 .3285675 .060775758 .37832643 .08042908 .4205017 .1000824 .46268717 .12742615 .49526979 .16246033 .5182495 .1974945 .54123947 .23797608 .5527344 .28390504 .5527344 .31941734 .5527344 .34752909 .546875 .36824037 .53515627 .3889618 .5234375 .40482585 .5101776 .41583253 .4953766 .4268392 .48057557 .4354197 .46843974 .4415741 .45896913H.4486847V.72746279H.53248599V-.00035095216H.45152284V.083480838H.4415741C.4354197 .073542278 .42666117 .061050416 .41529847 .04600525 .40393577 .030970255 .38771568 .017588297 .36663819 .005859375 .3455709-.005859375 .31752015-.01171875 .28248597-.01171875M.29385377 .063568118C.32747398 .063568118 .35588075 .072397869 .3790741 .09005737 .40227763 .10771688 .41991679 .13224793 .43199159 .16365052 .44406639 .19506328 .45010377 .23139446 .45010377 .27264405 .45010377 .31341554 .44418336 .3491516 .43234254 .3798523 .42051188 .41055299 .40299479 .43449403 .37979127 .45167542 .35658775 .46886698 .3279419 .47746278 .29385377 .47746278 .25834147 .47746278 .22880554 .46839396 .20524597 .45025636 .18169658 .4321289 .1640625 .40759788 .15234375 .3766632 .140625 .34572856 .13476563 .3110555 .13476563 .27264405 .13476563 .23377483 .14074199 .19851685 .1526947 .16687012 .16464742 .13522339 .18239849 .11009216 .20594788 .09147644 .22950745 .07287089 .25880943 .063568118 .29385377 .063568118Z"/>
</defs>
<path transform="matrix(1,0,0,-1,0,699)" d="M0 699H1000V0H0Z" fill="#fafafa"/>
<path transform="matrix(1,0,0,-1,0,699)" d="M0 699H1000V0H0Z" fill="#fafafa"/>
<g clip-path="url(#clip_0)">
<use data-text="H" xlink:href="#font_1_3" transform="matrix(18,0,0,-18,212,109)" fill="#525252"/>
<use data-text="e" xlink:href="#font_1_11" transform="matrix(18,0,0,-18,225.302,109)" fill="#525252"/>
<use data-text="l" xlink:href="#font_1_17" transform="matrix(18,0,0,-18,233.546,109)" fill="#525252"/>
<use data-text="l" xlink:href="#font_1_17" transform="matrix(18,0,0,-18,238.406,109)" fill="#525252"/>
<use data-text="o" xlink:href="#font_1_20" transform="matrix(18,0,0,-18,243.05,109)" fill="#525252"/>
<use data-text="," xlink:href="#font_1_29" transform="matrix(18,0,0,-18,252.572,109)" fill="#525252"/>
<use data-text=" " xlink:href="#font_1_1" transform="matrix(18,0,0,-18,256.1,109)" fill="#525252"/>
<use data-text="T" xlink:href="#font_1_5" transform="matrix(18,0,0,-18,259.88,109)" fill="#525252"/>
<use data-text="a" xlink:href="#font_1_7" transform="matrix(18,0,0,-18,270.194,109)" fill="#525252"/>
<use data-text="y" xlink:href="#font_1_27" transform="matrix(18,0,0,-18,278.56404,109)" fill="#525252"/>
<use data-text="l" xlink:href="#font_1_17" transform="matrix(18,0,0,-18,287.22203,109)" fill="#525252"/>
<use data-text="o" xlink:href="#font_1_20" transform="matrix(18,0,0,-18,291.86604,109)" fill="#525252"/>
<use data-text="r" xlink:href="#font_1_21" transform="matrix(18,0,0,-18,301.514,109)" fill="#525252"/>
<use data-text="." xlink:href="#font_1_28" transform="matrix(18,0,0,-18,307.58003,109)" fill="#525252"/>
<use data-text=" " xlink:href="#font_1_1" transform="matrix(18,0,0,-18,311.108,109)" fill="#525252"/>
<use data-text="L" xlink:href="#font_1_4" transform="matrix(18,0,0,-18,314.888,109)" fill="#525252"/>
<use data-text="e" xlink:href="#font_1_11" transform="matrix(18,0,0,-18,325.85,109)" fill="#525252"/>
<use data-text="t" xlink:href="#font_1_23" transform="matrix(18,0,0,-18,334.27403,109)" fill="#525252"/>
<use data-text="'" xlink:href="#font_1_31" transform="matrix(18,0,0,-18,340.21403,109)" fill="#525252"/>
<use data-text="s" xlink:href="#font_1_22" transform="matrix(18,0,0,-18,343.922,109)" fill="#525252"/>
<use data-text=" " xlink:href="#font_1_1" transform="matrix(18,0,0,-18,351.608,109)" fill="#525252"/>
<use data-text="u" xlink:href="#font_1_24" transform="matrix(18,0,0,-18,355.388,109)" fill="#525252"/>
<use data-text="s" xlink:href="#font_1_22" transform="matrix(18,0,0,-18,365.378,109)" fill="#525252"/>
<use data-text="e" xlink:href="#font_1_11" transform="matrix(18,0,0,-18,373.11799,109)" fill="#525252"/>
<use data-text=" " xlink:href="#font_1_1" transform="matrix(18,0,0,-18,381.61399,109)" fill="#525252"/>
<use data-text="o" xlink:href="#font_1_20" transform="matrix(18,0,0,-18,385.39399,109)" fill="#525252"/>
<use data-text="u" xlink:href="#font_1_24" transform="matrix(18,0,0,-18,395.14997,109)" fill="#525252"/>
<use data-text="r" xlink:href="#font_1_21" transform="matrix(18,0,0,-18,405.05,109)" fill="#525252"/>
<use data-text=" " xlink:href="#font_1_1" transform="matrix(18,0,0,-18,411.78199,109)" fill="#525252"/>
<use data-text="t" xlink:href="#font_1_23" transform="matrix(18,0,0,-18,415.56199,109)" fill="#525252"/>
<use data-text="i" xlink:href="#font_1_15" transform="matrix(18,0,0,-18,421.44798,109)" fill="#525252"/>
<use data-text="m" xlink:href="#font_1_18" transform="matrix(18,0,0,-18,426.37995,109)" fill="#525252"/>
<use data-text="e" xlink:href="#font_1_11" transform="matrix(18,0,0,-18,441.30198,109)" fill="#525252"/>
<use data-text=" " xlink:href="#font_1_1" transform="matrix(18,0,0,-18,449.79798,109)" fill="#525252"/>
<use data-text="t" xlink:href="#font_1_23" transform="matrix(18,0,0,-18,453.57798,109)" fill="#525252"/>
<use data-text="o" xlink:href="#font_1_20" transform="matrix(18,0,0,-18,459.15797,109)" fill="#525252"/>
<use data-text="g" xlink:href="#font_1_13" transform="matrix(18,0,0,-18,468.96797,109)" fill="#525252"/>
<use data-text="e" xlink:href="#font_1_11" transform="matrix(18,0,0,-18,477.49995,109)" fill="#525252"/>
<use data-text="t" xlink:href="#font_1_23" transform="matrix(18,0,0,-18,485.92396,109)" fill="#525252"/>
<use data-text="h" xlink:href="#font_1_14" transform="matrix(18,0,0,-18,491.86396,109)" fill="#525252"/>
<use data-text="e" xlink:href="#font_1_11" transform="matrix(18,0,0,-18,501.87196,109)" fill="#525252"/>
<use data-text="r" xlink:href="#font_1_21" transform="matrix(18,0,0,-18,510.25996,109)" fill="#525252"/>
<use data-text=" " xlink:href="#font_1_1" transform="matrix(18,0,0,-18,516.99197,109)" fill="#525252"/>
<use data-text="e" xlink:href="#font_1_11" transform="matrix(18,0,0,-18,520.772,109)" fill="#525252"/>
<use data-text="f" xlink:href="#font_1_12" transform="matrix(18,0,0,-18,529.214,109)" fill="#525252"/>
<use data-text="f" xlink:href="#font_1_12" transform="matrix(18,0,0,-18,534.99197,109)" fill="#525252"/>
<use data-text="e" xlink:href="#font_1_11" transform="matrix(18,0,0,-18,540.2299,109)" fill="#525252"/>
<use data-text="c" xlink:href="#font_1_9" transform="matrix(18,0,0,-18,548.7079,109)" fill="#525252"/>
<use data-text="t" xlink:href="#font_1_23" transform="matrix(18,0,0,-18,557.09597,109)" fill="#525252"/>
<use data-text="i" xlink:href="#font_1_15" transform="matrix(18,0,0,-18,562.98196,109)" fill="#525252"/>
<use data-text="v" xlink:href="#font_1_25" transform="matrix(18,0,0,-18,567.67996,109)" fill="#525252"/>
<use data-text="e" xlink:href="#font_1_11" transform="matrix(18,0,0,-18,576.08596,109)" fill="#525252"/>
<use data-text="l" xlink:href="#font_1_17" transform="matrix(18,0,0,-18,584.32998,109)" fill="#525252"/>
<use data-text="y" xlink:href="#font_1_27" transform="matrix(18,0,0,-18,588.81198,109)" fill="#525252"/>
<use data-text="." xlink:href="#font_1_28" transform="matrix(18,0,0,-18,596.48,109)" fill="#525252"/>
<use data-text=" " xlink:href="#font_1_1" transform="matrix(18,0,0,-18,600.00796,109)" fill="#525252"/>
<use data-text="C" xlink:href="#font_1_2" transform="matrix(18,0,0,-18,603.78799,109)" fill="#525252"/>
<use data-text="a" xlink:href="#font_1_7" transform="matrix(18,0,0,-18,616.15396,109)" fill="#525252"/>
<use data-text="n" xlink:href="#font_1_19" transform="matrix(18,0,0,-18,624.8119,109)" fill="#525252"/>
<use data-text=" " xlink:href="#font_1_1" transform="matrix(18,0,0,-18,635.0719,109)" fill="#525252"/>
<use data-text="y" xlink:href="#font_1_27" transform="matrix(18,0,0,-18,638.8519,109)" fill="#525252"/>
<use data-text="o" xlink:href="#font_1_20" transform="matrix(18,0,0,-18,647.25796,109)" fill="#525252"/>
<use data-text="u" xlink:href="#font_1_24" transform="matrix(18,0,0,-18,657.0139,109)" fill="#525252"/>
<use data-text=" " xlink:href="#font_1_1" transform="matrix(18,0,0,-18,667.0039,109)" fill="#525252"/>
<use data-text="t" xlink:href="#font_1_23" transform="matrix(18,0,0,-18,670.7839,109)" fill="#525252"/>
<use data-text="e" xlink:href="#font_1_11" transform="matrix(18,0,0,-18,676.3639,109)" fill="#525252"/>
<use data-text="l" xlink:href="#font_1_17" transform="matrix(18,0,0,-18,684.6079,109)" fill="#525252"/>
<use data-text="l" xlink:href="#font_1_17" transform="matrix(18,0,0,-18,689.4679,109)" fill="#525252"/>
<use data-text=" " xlink:href="#font_1_1" transform="matrix(18,0,0,-18,694.3279,109)" fill="#525252"/>
<use data-text="m" xlink:href="#font_1_18" transform="matrix(18,0,0,-18,698.1079,109)" fill="#525252"/>
<use data-text="e" xlink:href="#font_1_11" transform="matrix(18,0,0,-18,713.0299,109)" fill="#525252"/>
<use data-text="w" xlink:href="#font_1_26" transform="matrix(18,0,0,-18,212,136)" fill="#525252"/>
<use data-text="h" xlink:href="#font_1_14" transform="matrix(18,0,0,-18,225.374,136)" fill="#525252"/>
<use data-text="a" xlink:href="#font_1_7" transform="matrix(18,0,0,-18,235.4,136)" fill="#525252"/>
<use data-text="t" xlink:href="#font_1_23" transform="matrix(18,0,0,-18,244.022,136)" fill="#525252"/>
<use data-text="'" xlink:href="#font_1_31" transform="matrix(18,0,0,-18,249.962,136)" fill="#525252"/>
<use data-text="s" xlink:href="#font_1_22" transform="matrix(18,0,0,-18,253.67002,136)" fill="#525252"/>
<use data-text=" " xlink:href="#font_1_1" transform="matrix(18,0,0,-18,261.35603,136)" fill="#525252"/>
<use data-text="b" xlink:href="#font_1_8" transform="matrix(18,0,0,-18,265.13603,136)" fill="#525252"/>
<use data-text="e" xlink:href="#font_1_11" transform="matrix(18,0,0,-18,274.946,136)" fill="#525252"/>
<use data-text="e" xlink:href="#font_1_11" transform="matrix(18,0,0,-18,283.424,136)" fill="#525252"/>
<use data-text="n" xlink:href="#font_1_19" transform="matrix(18,0,0,-18,291.812,136)" fill="#525252"/>
<use data-text=" " xlink:href="#font_1_1" transform="matrix(18,0,0,-18,302.07203,136)" fill="#525252"/>
<use data-text="o" xlink:href="#font_1_20" transform="matrix(18,0,0,-18,305.85203,136)" fill="#525252"/>
<use data-text="n" xlink:href="#font_1_19" transform="matrix(18,0,0,-18,315.5,136)" fill="#525252"/>
<use data-text=" " xlink:href="#font_1_1" transform="matrix(18,0,0,-18,325.76,136)" fill="#525252"/>
<use data-text="y" xlink:href="#font_1_27" transform="matrix(18,0,0,-18,329.54,136)" fill="#525252"/>
<use data-text="o" xlink:href="#font_1_20" transform="matrix(18,0,0,-18,337.946,136)" fill="#525252"/>
<use data-text="u" xlink:href="#font_1_24" transform="matrix(18,0,0,-18,347.70204,136)" fill="#525252"/>
<use data-text="r" xlink:href="#font_1_21" transform="matrix(18,0,0,-18,357.602,136)" fill="#525252"/>
<use data-text=" " xlink:href="#font_1_1" transform="matrix(18,0,0,-18,364.334,136)" fill="#525252"/>
<use data-text="m" xlink:href="#font_1_18" transform="matrix(18,0,0,-18,368.114,136)" fill="#525252"/>
<use data-text="i" xlink:href="#font_1_15" transform="matrix(18,0,0,-18,383.252,136)" fill="#525252"/>
<use data-text="n" xlink:href="#font_1_19" transform="matrix(18,0,0,-18,388.18403,136)" fill="#525252"/>
<use data-text="d" xlink:href="#font_1_10" transform="matrix(18,0,0,-18,398.22804,136)" fill="#525252"/>
<use data-text=" " xlink:href="#font_1_1" transform="matrix(18,0,0,-18,408.2,136)" fill="#525252"/>
<use data-text="l" xlink:href="#font_1_17" transform="matrix(18,0,0,-18,411.98,136)" fill="#525252"/>
<use data-text="a" xlink:href="#font_1_7" transform="matrix(18,0,0,-18,416.786,136)" fill="#525252"/>
<use data-text="t" xlink:href="#font_1_23" transform="matrix(18,0,0,-18,425.40803,136)" fill="#525252"/>
<use data-text="e" xlink:href="#font_1_11" transform="matrix(18,0,0,-18,430.988,136)" fill="#525252"/>
<use data-text="l" xlink:href="#font_1_17" transform="matrix(18,0,0,-18,439.232,136)" fill="#525252"/>
<use data-text="y" xlink:href="#font_1_27" transform="matrix(18,0,0,-18,443.714,136)" fill="#525252"/>
<use data-text="?" xlink:href="#font_1_30" transform="matrix(18,0,0,-18,452.732,136)" fill="#525252"/>
<use data-text=" " xlink:href="#font_1_1" transform="matrix(18,0,0,-18,460.99397,136)" fill="#525252"/>
<use data-text="W" xlink:href="#font_1_6" transform="matrix(18,0,0,-18,464.774,136)" fill="#525252"/>
<use data-text="h" xlink:href="#font_1_14" transform="matrix(18,0,0,-18,483.16996,136)" fill="#525252"/>
<use data-text="a" xlink:href="#font_1_7" transform="matrix(18,0,0,-18,493.19596,136)" fill="#525252"/>
<use data-text="t" xlink:href="#font_1_23" transform="matrix(18,0,0,-18,501.81797,136)" fill="#525252"/>
<use data-text=" " xlink:href="#font_1_1" transform="matrix(18,0,0,-18,507.75798,136)" fill="#525252"/>
<use data-text="i" xlink:href="#font_1_15" transform="matrix(18,0,0,-18,511.53797,136)" fill="#525252"/>
<use data-text="s" xlink:href="#font_1_22" transform="matrix(18,0,0,-18,516.45199,136)" fill="#525252"/>
<use data-text="s" xlink:href="#font_1_22" transform="matrix(18,0,0,-18,524.13796,136)" fill="#525252"/>
<use data-text="u" xlink:href="#font_1_24" transform="matrix(18,0,0,-18,531.824,136)" fill="#525252"/>
<use data-text="e" xlink:href="#font_1_11" transform="matrix(18,0,0,-18,541.634,136)" fill="#525252"/>
<use data-text="s" xlink:href="#font_1_22" transform="matrix(18,0,0,-18,550.11196,136)" fill="#525252"/>
<use data-text=" " xlink:href="#font_1_1" transform="matrix(18,0,0,-18,557.798,136)" fill="#525252"/>
<use data-text="a" xlink:href="#font_1_7" transform="matrix(18,0,0,-18,561.578,136)" fill="#525252"/>
<use data-text="r" xlink:href="#font_1_21" transform="matrix(18,0,0,-18,570.23599,136)" fill="#525252"/>
<use data-text="e" xlink:href="#font_1_11" transform="matrix(18,0,0,-18,576.80599,136)" fill="#525252"/>
<use data-text=" " xlink:href="#font_1_1" transform="matrix(18,0,0,-18,585.302,136)" fill="#525252"/>
<use data-text="y" xlink:href="#font_1_27" transform="matrix(18,0,0,-18,589.082,136)" fill="#525252"/>
<use data-text="o" xlink:href="#font_1_20" transform="matrix(18,0,0,-18,597.488,136)" fill="#525252"/>
<use data-text="u" xlink:href="#font_1_24" transform="matrix(18,0,0,-18,607.24398,136)" fill="#525252"/>
<use data-text=" " xlink:href="#font_1_1" transform="matrix(18,0,0,-18,617.23397,136)" fill="#525252"/>
<use data-text="f" xlink:href="#font_1_12" transform="matrix(18,0,0,-18,621.0139,136)" fill="#525252"/>
<use data-text="a" xlink:href="#font_1_7" transform="matrix(18,0,0,-18,626.61196,136)" fill="#525252"/>
<use data-text="c" xlink:href="#font_1_9" transform="matrix(18,0,0,-18,635.28799,136)" fill="#525252"/>
<use data-text="i" xlink:href="#font_1_15" transform="matrix(18,0,0,-18,643.7479,136)" fill="#525252"/>
<use data-text="n" xlink:href="#font_1_19" transform="matrix(18,0,0,-18,648.67996,136)" fill="#525252"/>
<use data-text="g" xlink:href="#font_1_13" transform="matrix(18,0,0,-18,658.74197,136)" fill="#525252"/>
<use data-text="," xlink:href="#font_1_29" transform="matrix(18,0,0,-18,667.3999,136)" fill="#525252"/>
<use data-text=" " xlink:href="#font_1_1" transform="matrix(18,0,0,-18,670.9279,136)" fill="#525252"/>
<use data-text="o" xlink:href="#font_1_20" transform="matrix(18,0,0,-18,674.7079,136)" fill="#525252"/>
<use data-text="r" xlink:href="#font_1_21" transform="matrix(18,0,0,-18,684.35598,136)" fill="#525252"/>
<use data-text=" " xlink:href="#font_1_1" transform="matrix(18,0,0,-18,691.0879,136)" fill="#525252"/>
<use data-text="w" xlink:href="#font_1_26" transform="matrix(18,0,0,-18,694.8679,136)" fill="#525252"/>
<use data-text="h" xlink:href="#font_1_14" transform="matrix(18,0,0,-18,708.24197,136)" fill="#525252"/>
<use data-text="a" xlink:href="#font_1_7" transform="matrix(18,0,0,-18,718.26797,136)" fill="#525252"/>
<use data-text="t" xlink:href="#font_1_23" transform="matrix(18,0,0,-18,726.88998,136)" fill="#525252"/>
<use data-text="g" xlink:href="#font_1_13" transform="matrix(18,0,0,-18,212,163)" fill="#525252"/>
<use data-text="o" xlink:href="#font_1_20" transform="matrix(18,0,0,-18,220.532,163)" fill="#525252"/>
<use data-text="a" xlink:href="#font_1_7" transform="matrix(18,0,0,-18,230.378,163)" fill="#525252"/>
<use data-text="l" xlink:href="#font_1_17" transform="matrix(18,0,0,-18,239.144,163)" fill="#525252"/>
<use data-text="s" xlink:href="#font_1_22" transform="matrix(18,0,0,-18,244.004,163)" fill="#525252"/>
<use data-text=" " xlink:href="#font_1_1" transform="matrix(18,0,0,-18,251.69,163)" fill="#525252"/>
<use data-text="a" xlink:href="#font_1_7" transform="matrix(18,0,0,-18,255.47,163)" fill="#525252"/>
<use data-text="r" xlink:href="#font_1_21" transform="matrix(18,0,0,-18,264.128,163)" fill="#525252"/>
<use data-text="e" xlink:href="#font_1_11" transform="matrix(18,0,0,-18,270.698,163)" fill="#525252"/>
<use data-text=" " xlink:href="#font_1_1" transform="matrix(18,0,0,-18,279.194,163)" fill="#525252"/>
<use data-text="y" xlink:href="#font_1_27" transform="matrix(18,0,0,-18,282.974,163)" fill="#525252"/>
<use data-text="o" xlink:href="#font_1_20" transform="matrix(18,0,0,-18,291.38,163)" fill="#525252"/>
<use data-text="u" xlink:href="#font_1_24" transform="matrix(18,0,0,-18,301.136,163)" fill="#525252"/>
<use data-text=" " xlink:href="#font_1_1" transform="matrix(18,0,0,-18,311.126,163)" fill="#525252"/>
<use data-text="t" xlink:href="#font_1_23" transform="matrix(18,0,0,-18,314.906,163)" fill="#525252"/>
<use data-text="r" xlink:href="#font_1_21" transform="matrix(18,0,0,-18,320.846,163)" fill="#525252"/>
<use data-text="y" xlink:href="#font_1_27" transform="matrix(18,0,0,-18,328.172,163)" fill="#525252"/>
<use data-text="i" xlink:href="#font_1_15" transform="matrix(18,0,0,-18,337.37,163)" fill="#525252"/>
<use data-text="n" xlink:href="#font_1_19" transform="matrix(18,0,0,-18,342.302,163)" fill="#525252"/>
<use data-text="g" xlink:href="#font_1_13" transform="matrix(18,0,0,-18,352.36399,163)" fill="#525252"/>
<use data-text=" " xlink:href="#font_1_1" transform="matrix(18,0,0,-18,361.20198,163)" fill="#525252"/>
<use data-text="t" xlink:href="#font_1_23" transform="matrix(18,0,0,-18,364.982,163)" fill="#525252"/>
<use data-text="o" xlink:href="#font_1_20" transform="matrix(18,0,0,-18,370.56199,163)" fill="#525252"/>
<use data-text=" " xlink:href="#font_1_1" transform="matrix(18,0,0,-18,380.44398,163)" fill="#525252"/>
<use data-text="r" xlink:href="#font_1_21" transform="matrix(18,0,0,-18,384.22398,163)" fill="#525252"/>
<use data-text="e" xlink:href="#font_1_11" transform="matrix(18,0,0,-18,390.79399,163)" fill="#525252"/>
<use data-text="a" xlink:href="#font_1_7" transform="matrix(18,0,0,-18,399.28999,163)" fill="#525252"/>
<use data-text="c" xlink:href="#font_1_9" transform="matrix(18,0,0,-18,407.96595,163)" fill="#525252"/>
<use data-text="h" xlink:href="#font_1_14" transform="matrix(18,0,0,-18,416.10197,163)" fill="#525252"/>
<use data-text="?" xlink:href="#font_1_30" transform="matrix(18,0,0,-18,425.78596,163)" fill="#525252"/>
</g>
<g clip-path="url(#clip_2)">
<use data-text=" " xlink:href="#font_3_16" transform="matrix(16,0,0,-16,213,240)" fill="#d4d4d4"/>
<use data-text="W" xlink:href="#font_3_3" transform="matrix(16,0,0,-16,217.5008,240)" fill="#d4d4d4"/>
<use data-text="r" xlink:href="#font_3_11" transform="matrix(16,0,0,-16,232.12961,240)" fill="#d4d4d4"/>
<use data-text="i" xlink:href="#font_3_7" transform="matrix(16,0,0,-16,238.0864,240)" fill="#d4d4d4"/>
<use data-text="t" xlink:href="#font_3_13" transform="matrix(16,0,0,-16,241.88321,240)" fill="#d4d4d4"/>
<use data-text="e" xlink:href="#font_3_5" transform="matrix(16,0,0,-16,247.616,240)" fill="#d4d4d4"/>
<use data-text=" " xlink:href="#font_3_16" transform="matrix(16,0,0,-16,256.9328,240)" fill="#d4d4d4"/>
<use data-text="h" xlink:href="#font_3_6" transform="matrix(16,0,0,-16,261.4336,240)" fill="#d4d4d4"/>
<use data-text="e" xlink:href="#font_3_5" transform="matrix(16,0,0,-16,270.8944,240)" fill="#d4d4d4"/>
<use data-text="r" xlink:href="#font_3_11" transform="matrix(16,0,0,-16,280.2112,240)" fill="#d4d4d4"/>
<use data-text="e" xlink:href="#font_3_5" transform="matrix(16,0,0,-16,285.896,240)" fill="#d4d4d4"/>
</g>
<path transform="matrix(1,0,0,-1,0,699)" d="M0 699H1000V643H0Z" fill="#fafafa"/>
<g clip-path="url(#clip_4)">
<path transform="matrix(.8333333,0,0,.8333333,18,18)" stroke-width="2" stroke-linecap="round" stroke-linejoin="round" fill="none" stroke="#525252" d="M15 18 9 12 15 6"/>
</g>
<g clip-path="url(#clip_5)">
<path transform="matrix(.6666667,0,0,.6666667,448,20)" stroke-width="1.5" stroke-linecap="round" stroke-linejoin="round" fill="none" stroke="#525252" d="M5.75 11.75C5.75 11.1977 6.19772 10.75 6.75 10.75H17.25C17.8023 10.75 18.25 11.1977 18.25 11.75V17.25C18.25 18.3546 17.3546 19.25 16.25 19.25H7.75C6.64543 19.25 5.75 18.3546 5.75 17.25V11.75Z"/>
<path transform="matrix(.6666667,0,0,.6666667,448,20)" stroke-width="1.5" stroke-linecap="round" stroke-linejoin="round" fill="none" stroke="#525252" d="M7.75 10.5V10.3427C7.75 8.78147 7.65607 7.04125 8.74646 5.9239 9.36829 5.2867 10.3745 4.75 12 4.75 13.6255 4.75 14.6317 5.2867 15.2535 5.9239 16.3439 7.04125 16.25 8.78147 16.25 10.3427V10.5"/>
</g>
<g clip-path="url(#clip_6)">
<use data-text="N" xlink:href="#font_3_2" transform="matrix(14,0,0,-14,468,33)" fill="#525252"/>
<use data-text="e" xlink:href="#font_3_5" transform="matrix(14,0,0,-14,478.5392,33)" fill="#525252"/>
<use data-text="w" xlink:href="#font_3_14" transform="matrix(14,0,0,-14,486.6984,33)" fill="#525252"/>
<use data-text=" " xlink:href="#font_3_16" transform="matrix(14,0,0,-14,498.0776,33)" fill="#525252"/>
<use data-text="s" xlink:href="#font_3_12" transform="matrix(14,0,0,-14,502.0228,33)" fill="#525252"/>
<use data-text="e" xlink:href="#font_3_5" transform="matrix(14,0,0,-14,509.342,33)" fill="#525252"/>
<use data-text="s" xlink:href="#font_3_12" transform="matrix(14,0,0,-14,517.5012,33)" fill="#525252"/>
<use data-text="s" xlink:href="#font_3_12" transform="matrix(14,0,0,-14,524.82046,33)" fill="#525252"/>
<use data-text="i" xlink:href="#font_3_7" transform="matrix(14,0,0,-14,532.1396,33)" fill="#525252"/>
<use data-text="o" xlink:href="#font_3_10" transform="matrix(14,0,0,-14,535.45486,33)" fill="#525252"/>
<use data-text="n" xlink:href="#font_3_9" transform="matrix(14,0,0,-14,543.81,33)" fill="#525252"/>
</g>
<path transform="matrix(1,0,0,-1,0,699)" d="M988 671V671C988 663.268 981.7224 657 973.9786 657H910.0214C902.2776 657 896 663.268 896 671 896 678.732 902.2776 685 910.0214 685H973.9786C981.7224 685 988 678.732 988 671Z" fill="#e4e4e7" fill-opacity=".502"/>
<use data-text="E" xlink:href="#font_3_1" transform="matrix(12,0,0,-12,908.1406,32)" fill="#525252"/>
<use data-text="n" xlink:href="#font_3_9" transform="matrix(12,0,0,-12,915.31668,32)" fill="#525252"/>
<use data-text="d" xlink:href="#font_3_4" transform="matrix(12,0,0,-12,922.33908,32)" fill="#525252"/>
<use data-text=" " xlink:href="#font_3_16" transform="matrix(12,0,0,-12,929.7874,32)" fill="#525252"/>
<use data-text="s" xlink:href="#font_3_12" transform="matrix(12,0,0,-12,933.163,32)" fill="#525252"/>
<use data-text="e" xlink:href="#font_3_5" transform="matrix(12,0,0,-12,939.4354,32)" fill="#525252"/>
<use data-text="s" xlink:href="#font_3_12" transform="matrix(12,0,0,-12,946.4242,32)" fill="#525252"/>
<use data-text="s" xlink:href="#font_3_12" transform="matrix(12,0,0,-12,952.69668,32)" fill="#525252"/>
<use data-text="i" xlink:href="#font_3_7" transform="matrix(12,0,0,-12,958.969,32)" fill="#525252"/>
<use data-text="o" xlink:href="#font_3_10" transform="matrix(12,0,0,-12,961.8154,32)" fill="#525252"/>
<use data-text="n" xlink:href="#font_3_9" transform="matrix(12,0,0,-12,968.9746,32)" fill="#525252"/>
</svg>
